%TF.GenerationSoftware,KiCad,Pcbnew,(6.0.9)*%
%TF.CreationDate,2022-12-08T20:01:15+01:00*%
%TF.ProjectId,floor-heating-controller-s2,666c6f6f-722d-4686-9561-74696e672d63,1*%
%TF.SameCoordinates,Original*%
%TF.FileFunction,Legend,Top*%
%TF.FilePolarity,Positive*%
%FSLAX46Y46*%
G04 Gerber Fmt 4.6, Leading zero omitted, Abs format (unit mm)*
G04 Created by KiCad (PCBNEW (6.0.9)) date 2022-12-08 20:01:15*
%MOMM*%
%LPD*%
G01*
G04 APERTURE LIST*
%ADD10C,0.304800*%
%ADD11C,0.150000*%
%ADD12C,0.120000*%
G04 APERTURE END LIST*
D10*
X141321608Y-133223000D02*
X141321608Y-132642428D01*
X142337608Y-133005285D02*
X141031322Y-133005285D01*
X140886180Y-132932714D01*
X140813608Y-132787571D01*
X140813608Y-132642428D01*
X142337608Y-131916714D02*
X142265037Y-132061857D01*
X142119894Y-132134428D01*
X140813608Y-132134428D01*
X142337608Y-131118428D02*
X142265037Y-131263571D01*
X142192465Y-131336142D01*
X142047322Y-131408714D01*
X141611894Y-131408714D01*
X141466751Y-131336142D01*
X141394180Y-131263571D01*
X141321608Y-131118428D01*
X141321608Y-130900714D01*
X141394180Y-130755571D01*
X141466751Y-130683000D01*
X141611894Y-130610428D01*
X142047322Y-130610428D01*
X142192465Y-130683000D01*
X142265037Y-130755571D01*
X142337608Y-130900714D01*
X142337608Y-131118428D01*
X142337608Y-129739571D02*
X142265037Y-129884714D01*
X142192465Y-129957285D01*
X142047322Y-130029857D01*
X141611894Y-130029857D01*
X141466751Y-129957285D01*
X141394180Y-129884714D01*
X141321608Y-129739571D01*
X141321608Y-129521857D01*
X141394180Y-129376714D01*
X141466751Y-129304142D01*
X141611894Y-129231571D01*
X142047322Y-129231571D01*
X142192465Y-129304142D01*
X142265037Y-129376714D01*
X142337608Y-129521857D01*
X142337608Y-129739571D01*
X142337608Y-128578428D02*
X141321608Y-128578428D01*
X141611894Y-128578428D02*
X141466751Y-128505857D01*
X141394180Y-128433285D01*
X141321608Y-128288142D01*
X141321608Y-128143000D01*
X142337608Y-126473857D02*
X140813608Y-126473857D01*
X142337608Y-125820714D02*
X141539322Y-125820714D01*
X141394180Y-125893285D01*
X141321608Y-126038428D01*
X141321608Y-126256142D01*
X141394180Y-126401285D01*
X141466751Y-126473857D01*
X142265037Y-124514428D02*
X142337608Y-124659571D01*
X142337608Y-124949857D01*
X142265037Y-125095000D01*
X142119894Y-125167571D01*
X141539322Y-125167571D01*
X141394180Y-125095000D01*
X141321608Y-124949857D01*
X141321608Y-124659571D01*
X141394180Y-124514428D01*
X141539322Y-124441857D01*
X141684465Y-124441857D01*
X141829608Y-125167571D01*
X142337608Y-123135571D02*
X141539322Y-123135571D01*
X141394180Y-123208142D01*
X141321608Y-123353285D01*
X141321608Y-123643571D01*
X141394180Y-123788714D01*
X142265037Y-123135571D02*
X142337608Y-123280714D01*
X142337608Y-123643571D01*
X142265037Y-123788714D01*
X142119894Y-123861285D01*
X141974751Y-123861285D01*
X141829608Y-123788714D01*
X141757037Y-123643571D01*
X141757037Y-123280714D01*
X141684465Y-123135571D01*
X141321608Y-122627571D02*
X141321608Y-122047000D01*
X140813608Y-122409857D02*
X142119894Y-122409857D01*
X142265037Y-122337285D01*
X142337608Y-122192142D01*
X142337608Y-122047000D01*
X142337608Y-121539000D02*
X141321608Y-121539000D01*
X140813608Y-121539000D02*
X140886180Y-121611571D01*
X140958751Y-121539000D01*
X140886180Y-121466428D01*
X140813608Y-121539000D01*
X140958751Y-121539000D01*
X141321608Y-120813285D02*
X142337608Y-120813285D01*
X141466751Y-120813285D02*
X141394180Y-120740714D01*
X141321608Y-120595571D01*
X141321608Y-120377857D01*
X141394180Y-120232714D01*
X141539322Y-120160142D01*
X142337608Y-120160142D01*
X141321608Y-118781285D02*
X142555322Y-118781285D01*
X142700465Y-118853857D01*
X142773037Y-118926428D01*
X142845608Y-119071571D01*
X142845608Y-119289285D01*
X142773037Y-119434428D01*
X142265037Y-118781285D02*
X142337608Y-118926428D01*
X142337608Y-119216714D01*
X142265037Y-119361857D01*
X142192465Y-119434428D01*
X142047322Y-119507000D01*
X141611894Y-119507000D01*
X141466751Y-119434428D01*
X141394180Y-119361857D01*
X141321608Y-119216714D01*
X141321608Y-118926428D01*
X141394180Y-118781285D01*
X142265037Y-116241285D02*
X142337608Y-116386428D01*
X142337608Y-116676714D01*
X142265037Y-116821857D01*
X142192465Y-116894428D01*
X142047322Y-116967000D01*
X141611894Y-116967000D01*
X141466751Y-116894428D01*
X141394180Y-116821857D01*
X141321608Y-116676714D01*
X141321608Y-116386428D01*
X141394180Y-116241285D01*
X142337608Y-115370428D02*
X142265037Y-115515571D01*
X142192465Y-115588142D01*
X142047322Y-115660714D01*
X141611894Y-115660714D01*
X141466751Y-115588142D01*
X141394180Y-115515571D01*
X141321608Y-115370428D01*
X141321608Y-115152714D01*
X141394180Y-115007571D01*
X141466751Y-114935000D01*
X141611894Y-114862428D01*
X142047322Y-114862428D01*
X142192465Y-114935000D01*
X142265037Y-115007571D01*
X142337608Y-115152714D01*
X142337608Y-115370428D01*
X141321608Y-114209285D02*
X142337608Y-114209285D01*
X141466751Y-114209285D02*
X141394180Y-114136714D01*
X141321608Y-113991571D01*
X141321608Y-113773857D01*
X141394180Y-113628714D01*
X141539322Y-113556142D01*
X142337608Y-113556142D01*
X141321608Y-113048142D02*
X141321608Y-112467571D01*
X140813608Y-112830428D02*
X142119894Y-112830428D01*
X142265037Y-112757857D01*
X142337608Y-112612714D01*
X142337608Y-112467571D01*
X142337608Y-111959571D02*
X141321608Y-111959571D01*
X141611894Y-111959571D02*
X141466751Y-111887000D01*
X141394180Y-111814428D01*
X141321608Y-111669285D01*
X141321608Y-111524142D01*
X142337608Y-110798428D02*
X142265037Y-110943571D01*
X142192465Y-111016142D01*
X142047322Y-111088714D01*
X141611894Y-111088714D01*
X141466751Y-111016142D01*
X141394180Y-110943571D01*
X141321608Y-110798428D01*
X141321608Y-110580714D01*
X141394180Y-110435571D01*
X141466751Y-110363000D01*
X141611894Y-110290428D01*
X142047322Y-110290428D01*
X142192465Y-110363000D01*
X142265037Y-110435571D01*
X142337608Y-110580714D01*
X142337608Y-110798428D01*
X142337608Y-109419571D02*
X142265037Y-109564714D01*
X142119894Y-109637285D01*
X140813608Y-109637285D01*
X142337608Y-108621285D02*
X142265037Y-108766428D01*
X142119894Y-108839000D01*
X140813608Y-108839000D01*
X142265037Y-107460142D02*
X142337608Y-107605285D01*
X142337608Y-107895571D01*
X142265037Y-108040714D01*
X142119894Y-108113285D01*
X141539322Y-108113285D01*
X141394180Y-108040714D01*
X141321608Y-107895571D01*
X141321608Y-107605285D01*
X141394180Y-107460142D01*
X141539322Y-107387571D01*
X141684465Y-107387571D01*
X141829608Y-108113285D01*
X142337608Y-106734428D02*
X141321608Y-106734428D01*
X141611894Y-106734428D02*
X141466751Y-106661857D01*
X141394180Y-106589285D01*
X141321608Y-106444142D01*
X141321608Y-106299000D01*
X142265037Y-104702428D02*
X142337608Y-104484714D01*
X142337608Y-104121857D01*
X142265037Y-103976714D01*
X142192465Y-103904142D01*
X142047322Y-103831571D01*
X141902180Y-103831571D01*
X141757037Y-103904142D01*
X141684465Y-103976714D01*
X141611894Y-104121857D01*
X141539322Y-104412142D01*
X141466751Y-104557285D01*
X141394180Y-104629857D01*
X141249037Y-104702428D01*
X141103894Y-104702428D01*
X140958751Y-104629857D01*
X140886180Y-104557285D01*
X140813608Y-104412142D01*
X140813608Y-104049285D01*
X140886180Y-103831571D01*
X140958751Y-103251000D02*
X140886180Y-103178428D01*
X140813608Y-103033285D01*
X140813608Y-102670428D01*
X140886180Y-102525285D01*
X140958751Y-102452714D01*
X141103894Y-102380142D01*
X141249037Y-102380142D01*
X141466751Y-102452714D01*
X142337608Y-103323571D01*
X142337608Y-102380142D01*
X143267248Y-131590142D02*
X143267248Y-130719285D01*
X144791248Y-131154714D02*
X143267248Y-131154714D01*
X144718677Y-129630714D02*
X144791248Y-129775857D01*
X144791248Y-130066142D01*
X144718677Y-130211285D01*
X144573534Y-130283857D01*
X143992962Y-130283857D01*
X143847820Y-130211285D01*
X143775248Y-130066142D01*
X143775248Y-129775857D01*
X143847820Y-129630714D01*
X143992962Y-129558142D01*
X144138105Y-129558142D01*
X144283248Y-130283857D01*
X144718677Y-128251857D02*
X144791248Y-128397000D01*
X144791248Y-128687285D01*
X144718677Y-128832428D01*
X144646105Y-128905000D01*
X144500962Y-128977571D01*
X144065534Y-128977571D01*
X143920391Y-128905000D01*
X143847820Y-128832428D01*
X143775248Y-128687285D01*
X143775248Y-128397000D01*
X143847820Y-128251857D01*
X143775248Y-127598714D02*
X144791248Y-127598714D01*
X143920391Y-127598714D02*
X143847820Y-127526142D01*
X143775248Y-127381000D01*
X143775248Y-127163285D01*
X143847820Y-127018142D01*
X143992962Y-126945571D01*
X144791248Y-126945571D01*
X144791248Y-126002142D02*
X144718677Y-126147285D01*
X144646105Y-126219857D01*
X144500962Y-126292428D01*
X144065534Y-126292428D01*
X143920391Y-126219857D01*
X143847820Y-126147285D01*
X143775248Y-126002142D01*
X143775248Y-125784428D01*
X143847820Y-125639285D01*
X143920391Y-125566714D01*
X144065534Y-125494142D01*
X144500962Y-125494142D01*
X144646105Y-125566714D01*
X144718677Y-125639285D01*
X144791248Y-125784428D01*
X144791248Y-126002142D01*
X144791248Y-124623285D02*
X144718677Y-124768428D01*
X144573534Y-124841000D01*
X143267248Y-124841000D01*
X144791248Y-123825000D02*
X144718677Y-123970142D01*
X144646105Y-124042714D01*
X144500962Y-124115285D01*
X144065534Y-124115285D01*
X143920391Y-124042714D01*
X143847820Y-123970142D01*
X143775248Y-123825000D01*
X143775248Y-123607285D01*
X143847820Y-123462142D01*
X143920391Y-123389571D01*
X144065534Y-123317000D01*
X144500962Y-123317000D01*
X144646105Y-123389571D01*
X144718677Y-123462142D01*
X144791248Y-123607285D01*
X144791248Y-123825000D01*
X143775248Y-122010714D02*
X145008962Y-122010714D01*
X145154105Y-122083285D01*
X145226677Y-122155857D01*
X145299248Y-122301000D01*
X145299248Y-122518714D01*
X145226677Y-122663857D01*
X144718677Y-122010714D02*
X144791248Y-122155857D01*
X144791248Y-122446142D01*
X144718677Y-122591285D01*
X144646105Y-122663857D01*
X144500962Y-122736428D01*
X144065534Y-122736428D01*
X143920391Y-122663857D01*
X143847820Y-122591285D01*
X143775248Y-122446142D01*
X143775248Y-122155857D01*
X143847820Y-122010714D01*
X144791248Y-121285000D02*
X143775248Y-121285000D01*
X143267248Y-121285000D02*
X143339820Y-121357571D01*
X143412391Y-121285000D01*
X143339820Y-121212428D01*
X143267248Y-121285000D01*
X143412391Y-121285000D01*
X144718677Y-119906142D02*
X144791248Y-120051285D01*
X144791248Y-120341571D01*
X144718677Y-120486714D01*
X144646105Y-120559285D01*
X144500962Y-120631857D01*
X144065534Y-120631857D01*
X143920391Y-120559285D01*
X143847820Y-120486714D01*
X143775248Y-120341571D01*
X143775248Y-120051285D01*
X143847820Y-119906142D01*
X143412391Y-118164428D02*
X143339820Y-118091857D01*
X143267248Y-117946714D01*
X143267248Y-117583857D01*
X143339820Y-117438714D01*
X143412391Y-117366142D01*
X143557534Y-117293571D01*
X143702677Y-117293571D01*
X143920391Y-117366142D01*
X144791248Y-118237000D01*
X144791248Y-117293571D01*
X143267248Y-116350142D02*
X143267248Y-116205000D01*
X143339820Y-116059857D01*
X143412391Y-115987285D01*
X143557534Y-115914714D01*
X143847820Y-115842142D01*
X144210677Y-115842142D01*
X144500962Y-115914714D01*
X144646105Y-115987285D01*
X144718677Y-116059857D01*
X144791248Y-116205000D01*
X144791248Y-116350142D01*
X144718677Y-116495285D01*
X144646105Y-116567857D01*
X144500962Y-116640428D01*
X144210677Y-116713000D01*
X143847820Y-116713000D01*
X143557534Y-116640428D01*
X143412391Y-116567857D01*
X143339820Y-116495285D01*
X143267248Y-116350142D01*
X143412391Y-115261571D02*
X143339820Y-115189000D01*
X143267248Y-115043857D01*
X143267248Y-114681000D01*
X143339820Y-114535857D01*
X143412391Y-114463285D01*
X143557534Y-114390714D01*
X143702677Y-114390714D01*
X143920391Y-114463285D01*
X144791248Y-115334142D01*
X144791248Y-114390714D01*
X143412391Y-113810142D02*
X143339820Y-113737571D01*
X143267248Y-113592428D01*
X143267248Y-113229571D01*
X143339820Y-113084428D01*
X143412391Y-113011857D01*
X143557534Y-112939285D01*
X143702677Y-112939285D01*
X143920391Y-113011857D01*
X144791248Y-113882714D01*
X144791248Y-112939285D01*
X144791248Y-110254142D02*
X144065534Y-110762142D01*
X144791248Y-111125000D02*
X143267248Y-111125000D01*
X143267248Y-110544428D01*
X143339820Y-110399285D01*
X143412391Y-110326714D01*
X143557534Y-110254142D01*
X143775248Y-110254142D01*
X143920391Y-110326714D01*
X143992962Y-110399285D01*
X144065534Y-110544428D01*
X144065534Y-111125000D01*
X144718677Y-109020428D02*
X144791248Y-109165571D01*
X144791248Y-109455857D01*
X144718677Y-109601000D01*
X144573534Y-109673571D01*
X143992962Y-109673571D01*
X143847820Y-109601000D01*
X143775248Y-109455857D01*
X143775248Y-109165571D01*
X143847820Y-109020428D01*
X143992962Y-108947857D01*
X144138105Y-108947857D01*
X144283248Y-109673571D01*
X143775248Y-108439857D02*
X144791248Y-108077000D01*
X143775248Y-107714142D01*
X144791248Y-105174142D02*
X144791248Y-106045000D01*
X144791248Y-105609571D02*
X143267248Y-105609571D01*
X143484962Y-105754714D01*
X143630105Y-105899857D01*
X143702677Y-106045000D01*
D11*
%TO.C,J2*%
X111570000Y-134442380D02*
X111570000Y-133442380D01*
X111808095Y-133442380D01*
X111950952Y-133490000D01*
X112046190Y-133585238D01*
X112093809Y-133680476D01*
X112141428Y-133870952D01*
X112141428Y-134013809D01*
X112093809Y-134204285D01*
X112046190Y-134299523D01*
X111950952Y-134394761D01*
X111808095Y-134442380D01*
X111570000Y-134442380D01*
X112522380Y-134394761D02*
X112665238Y-134442380D01*
X112903333Y-134442380D01*
X112998571Y-134394761D01*
X113046190Y-134347142D01*
X113093809Y-134251904D01*
X113093809Y-134156666D01*
X113046190Y-134061428D01*
X112998571Y-134013809D01*
X112903333Y-133966190D01*
X112712857Y-133918571D01*
X112617619Y-133870952D01*
X112570000Y-133823333D01*
X112522380Y-133728095D01*
X112522380Y-133632857D01*
X112570000Y-133537619D01*
X112617619Y-133490000D01*
X112712857Y-133442380D01*
X112950952Y-133442380D01*
X113093809Y-133490000D01*
X114046190Y-134442380D02*
X113474761Y-134442380D01*
X113760476Y-134442380D02*
X113760476Y-133442380D01*
X113665238Y-133585238D01*
X113570000Y-133680476D01*
X113474761Y-133728095D01*
X114617619Y-133870952D02*
X114522380Y-133823333D01*
X114474761Y-133775714D01*
X114427142Y-133680476D01*
X114427142Y-133632857D01*
X114474761Y-133537619D01*
X114522380Y-133490000D01*
X114617619Y-133442380D01*
X114808095Y-133442380D01*
X114903333Y-133490000D01*
X114950952Y-133537619D01*
X114998571Y-133632857D01*
X114998571Y-133680476D01*
X114950952Y-133775714D01*
X114903333Y-133823333D01*
X114808095Y-133870952D01*
X114617619Y-133870952D01*
X114522380Y-133918571D01*
X114474761Y-133966190D01*
X114427142Y-134061428D01*
X114427142Y-134251904D01*
X114474761Y-134347142D01*
X114522380Y-134394761D01*
X114617619Y-134442380D01*
X114808095Y-134442380D01*
X114903333Y-134394761D01*
X114950952Y-134347142D01*
X114998571Y-134251904D01*
X114998571Y-134061428D01*
X114950952Y-133966190D01*
X114903333Y-133918571D01*
X114808095Y-133870952D01*
X115760476Y-133918571D02*
X115903333Y-133966190D01*
X115950952Y-134013809D01*
X115998571Y-134109047D01*
X115998571Y-134251904D01*
X115950952Y-134347142D01*
X115903333Y-134394761D01*
X115808095Y-134442380D01*
X115427142Y-134442380D01*
X115427142Y-133442380D01*
X115760476Y-133442380D01*
X115855714Y-133490000D01*
X115903333Y-133537619D01*
X115950952Y-133632857D01*
X115950952Y-133728095D01*
X115903333Y-133823333D01*
X115855714Y-133870952D01*
X115760476Y-133918571D01*
X115427142Y-133918571D01*
X116379523Y-133537619D02*
X116427142Y-133490000D01*
X116522380Y-133442380D01*
X116760476Y-133442380D01*
X116855714Y-133490000D01*
X116903333Y-133537619D01*
X116950952Y-133632857D01*
X116950952Y-133728095D01*
X116903333Y-133870952D01*
X116331904Y-134442380D01*
X116950952Y-134442380D01*
X117570000Y-133442380D02*
X117665238Y-133442380D01*
X117760476Y-133490000D01*
X117808095Y-133537619D01*
X117855714Y-133632857D01*
X117903333Y-133823333D01*
X117903333Y-134061428D01*
X117855714Y-134251904D01*
X117808095Y-134347142D01*
X117760476Y-134394761D01*
X117665238Y-134442380D01*
X117570000Y-134442380D01*
X117474761Y-134394761D01*
X117427142Y-134347142D01*
X117379523Y-134251904D01*
X117331904Y-134061428D01*
X117331904Y-133823333D01*
X117379523Y-133632857D01*
X117427142Y-133537619D01*
X117474761Y-133490000D01*
X117570000Y-133442380D01*
X118093809Y-134537619D02*
X118855714Y-134537619D01*
X119617619Y-134442380D02*
X119046190Y-134442380D01*
X119331904Y-134442380D02*
X119331904Y-133442380D01*
X119236666Y-133585238D01*
X119141428Y-133680476D01*
X119046190Y-133728095D01*
%TO.C,J9*%
X111570000Y-153746380D02*
X111570000Y-152746380D01*
X111808095Y-152746380D01*
X111950952Y-152794000D01*
X112046190Y-152889238D01*
X112093809Y-152984476D01*
X112141428Y-153174952D01*
X112141428Y-153317809D01*
X112093809Y-153508285D01*
X112046190Y-153603523D01*
X111950952Y-153698761D01*
X111808095Y-153746380D01*
X111570000Y-153746380D01*
X112522380Y-153698761D02*
X112665238Y-153746380D01*
X112903333Y-153746380D01*
X112998571Y-153698761D01*
X113046190Y-153651142D01*
X113093809Y-153555904D01*
X113093809Y-153460666D01*
X113046190Y-153365428D01*
X112998571Y-153317809D01*
X112903333Y-153270190D01*
X112712857Y-153222571D01*
X112617619Y-153174952D01*
X112570000Y-153127333D01*
X112522380Y-153032095D01*
X112522380Y-152936857D01*
X112570000Y-152841619D01*
X112617619Y-152794000D01*
X112712857Y-152746380D01*
X112950952Y-152746380D01*
X113093809Y-152794000D01*
X114046190Y-153746380D02*
X113474761Y-153746380D01*
X113760476Y-153746380D02*
X113760476Y-152746380D01*
X113665238Y-152889238D01*
X113570000Y-152984476D01*
X113474761Y-153032095D01*
X114617619Y-153174952D02*
X114522380Y-153127333D01*
X114474761Y-153079714D01*
X114427142Y-152984476D01*
X114427142Y-152936857D01*
X114474761Y-152841619D01*
X114522380Y-152794000D01*
X114617619Y-152746380D01*
X114808095Y-152746380D01*
X114903333Y-152794000D01*
X114950952Y-152841619D01*
X114998571Y-152936857D01*
X114998571Y-152984476D01*
X114950952Y-153079714D01*
X114903333Y-153127333D01*
X114808095Y-153174952D01*
X114617619Y-153174952D01*
X114522380Y-153222571D01*
X114474761Y-153270190D01*
X114427142Y-153365428D01*
X114427142Y-153555904D01*
X114474761Y-153651142D01*
X114522380Y-153698761D01*
X114617619Y-153746380D01*
X114808095Y-153746380D01*
X114903333Y-153698761D01*
X114950952Y-153651142D01*
X114998571Y-153555904D01*
X114998571Y-153365428D01*
X114950952Y-153270190D01*
X114903333Y-153222571D01*
X114808095Y-153174952D01*
X115760476Y-153222571D02*
X115903333Y-153270190D01*
X115950952Y-153317809D01*
X115998571Y-153413047D01*
X115998571Y-153555904D01*
X115950952Y-153651142D01*
X115903333Y-153698761D01*
X115808095Y-153746380D01*
X115427142Y-153746380D01*
X115427142Y-152746380D01*
X115760476Y-152746380D01*
X115855714Y-152794000D01*
X115903333Y-152841619D01*
X115950952Y-152936857D01*
X115950952Y-153032095D01*
X115903333Y-153127333D01*
X115855714Y-153174952D01*
X115760476Y-153222571D01*
X115427142Y-153222571D01*
X116379523Y-152841619D02*
X116427142Y-152794000D01*
X116522380Y-152746380D01*
X116760476Y-152746380D01*
X116855714Y-152794000D01*
X116903333Y-152841619D01*
X116950952Y-152936857D01*
X116950952Y-153032095D01*
X116903333Y-153174952D01*
X116331904Y-153746380D01*
X116950952Y-153746380D01*
X117570000Y-152746380D02*
X117665238Y-152746380D01*
X117760476Y-152794000D01*
X117808095Y-152841619D01*
X117855714Y-152936857D01*
X117903333Y-153127333D01*
X117903333Y-153365428D01*
X117855714Y-153555904D01*
X117808095Y-153651142D01*
X117760476Y-153698761D01*
X117665238Y-153746380D01*
X117570000Y-153746380D01*
X117474761Y-153698761D01*
X117427142Y-153651142D01*
X117379523Y-153555904D01*
X117331904Y-153365428D01*
X117331904Y-153127333D01*
X117379523Y-152936857D01*
X117427142Y-152841619D01*
X117474761Y-152794000D01*
X117570000Y-152746380D01*
X118093809Y-153841619D02*
X118855714Y-153841619D01*
X119236666Y-153174952D02*
X119141428Y-153127333D01*
X119093809Y-153079714D01*
X119046190Y-152984476D01*
X119046190Y-152936857D01*
X119093809Y-152841619D01*
X119141428Y-152794000D01*
X119236666Y-152746380D01*
X119427142Y-152746380D01*
X119522380Y-152794000D01*
X119570000Y-152841619D01*
X119617619Y-152936857D01*
X119617619Y-152984476D01*
X119570000Y-153079714D01*
X119522380Y-153127333D01*
X119427142Y-153174952D01*
X119236666Y-153174952D01*
X119141428Y-153222571D01*
X119093809Y-153270190D01*
X119046190Y-153365428D01*
X119046190Y-153555904D01*
X119093809Y-153651142D01*
X119141428Y-153698761D01*
X119236666Y-153746380D01*
X119427142Y-153746380D01*
X119522380Y-153698761D01*
X119570000Y-153651142D01*
X119617619Y-153555904D01*
X119617619Y-153365428D01*
X119570000Y-153270190D01*
X119522380Y-153222571D01*
X119427142Y-153174952D01*
%TO.C,J14*%
X60942380Y-118813809D02*
X61942380Y-118480476D01*
X60942380Y-118147142D01*
X61656666Y-117861428D02*
X61656666Y-117385238D01*
X61942380Y-117956666D02*
X60942380Y-117623333D01*
X61942380Y-117290000D01*
X61942380Y-116480476D02*
X61942380Y-116956666D01*
X60942380Y-116956666D01*
X60942380Y-116290000D02*
X61942380Y-115956666D01*
X60942380Y-115623333D01*
X61418571Y-115290000D02*
X61418571Y-114956666D01*
X61942380Y-114813809D02*
X61942380Y-115290000D01*
X60942380Y-115290000D01*
X60942380Y-114813809D01*
X60942380Y-113909047D02*
X60942380Y-114385238D01*
X61418571Y-114432857D01*
X61370952Y-114385238D01*
X61323333Y-114290000D01*
X61323333Y-114051904D01*
X61370952Y-113956666D01*
X61418571Y-113909047D01*
X61513809Y-113861428D01*
X61751904Y-113861428D01*
X61847142Y-113909047D01*
X61894761Y-113956666D01*
X61942380Y-114051904D01*
X61942380Y-114290000D01*
X61894761Y-114385238D01*
X61847142Y-114432857D01*
%TO.C,J10*%
X84217190Y-143470380D02*
X84550523Y-144470380D01*
X84883857Y-143470380D01*
X85169571Y-144184666D02*
X85645761Y-144184666D01*
X85074333Y-144470380D02*
X85407666Y-143470380D01*
X85741000Y-144470380D01*
X86550523Y-144470380D02*
X86074333Y-144470380D01*
X86074333Y-143470380D01*
X86741000Y-143470380D02*
X87074333Y-144470380D01*
X87407666Y-143470380D01*
X87741000Y-143946571D02*
X88074333Y-143946571D01*
X88217190Y-144470380D02*
X87741000Y-144470380D01*
X87741000Y-143470380D01*
X88217190Y-143470380D01*
X89169571Y-144470380D02*
X88598142Y-144470380D01*
X88883857Y-144470380D02*
X88883857Y-143470380D01*
X88788619Y-143613238D01*
X88693380Y-143708476D01*
X88598142Y-143756095D01*
%TO.C,J3*%
X123635000Y-134442380D02*
X123635000Y-133442380D01*
X123873095Y-133442380D01*
X124015952Y-133490000D01*
X124111190Y-133585238D01*
X124158809Y-133680476D01*
X124206428Y-133870952D01*
X124206428Y-134013809D01*
X124158809Y-134204285D01*
X124111190Y-134299523D01*
X124015952Y-134394761D01*
X123873095Y-134442380D01*
X123635000Y-134442380D01*
X124587380Y-134394761D02*
X124730238Y-134442380D01*
X124968333Y-134442380D01*
X125063571Y-134394761D01*
X125111190Y-134347142D01*
X125158809Y-134251904D01*
X125158809Y-134156666D01*
X125111190Y-134061428D01*
X125063571Y-134013809D01*
X124968333Y-133966190D01*
X124777857Y-133918571D01*
X124682619Y-133870952D01*
X124635000Y-133823333D01*
X124587380Y-133728095D01*
X124587380Y-133632857D01*
X124635000Y-133537619D01*
X124682619Y-133490000D01*
X124777857Y-133442380D01*
X125015952Y-133442380D01*
X125158809Y-133490000D01*
X126111190Y-134442380D02*
X125539761Y-134442380D01*
X125825476Y-134442380D02*
X125825476Y-133442380D01*
X125730238Y-133585238D01*
X125635000Y-133680476D01*
X125539761Y-133728095D01*
X126682619Y-133870952D02*
X126587380Y-133823333D01*
X126539761Y-133775714D01*
X126492142Y-133680476D01*
X126492142Y-133632857D01*
X126539761Y-133537619D01*
X126587380Y-133490000D01*
X126682619Y-133442380D01*
X126873095Y-133442380D01*
X126968333Y-133490000D01*
X127015952Y-133537619D01*
X127063571Y-133632857D01*
X127063571Y-133680476D01*
X127015952Y-133775714D01*
X126968333Y-133823333D01*
X126873095Y-133870952D01*
X126682619Y-133870952D01*
X126587380Y-133918571D01*
X126539761Y-133966190D01*
X126492142Y-134061428D01*
X126492142Y-134251904D01*
X126539761Y-134347142D01*
X126587380Y-134394761D01*
X126682619Y-134442380D01*
X126873095Y-134442380D01*
X126968333Y-134394761D01*
X127015952Y-134347142D01*
X127063571Y-134251904D01*
X127063571Y-134061428D01*
X127015952Y-133966190D01*
X126968333Y-133918571D01*
X126873095Y-133870952D01*
X127825476Y-133918571D02*
X127968333Y-133966190D01*
X128015952Y-134013809D01*
X128063571Y-134109047D01*
X128063571Y-134251904D01*
X128015952Y-134347142D01*
X127968333Y-134394761D01*
X127873095Y-134442380D01*
X127492142Y-134442380D01*
X127492142Y-133442380D01*
X127825476Y-133442380D01*
X127920714Y-133490000D01*
X127968333Y-133537619D01*
X128015952Y-133632857D01*
X128015952Y-133728095D01*
X127968333Y-133823333D01*
X127920714Y-133870952D01*
X127825476Y-133918571D01*
X127492142Y-133918571D01*
X128444523Y-133537619D02*
X128492142Y-133490000D01*
X128587380Y-133442380D01*
X128825476Y-133442380D01*
X128920714Y-133490000D01*
X128968333Y-133537619D01*
X129015952Y-133632857D01*
X129015952Y-133728095D01*
X128968333Y-133870952D01*
X128396904Y-134442380D01*
X129015952Y-134442380D01*
X129635000Y-133442380D02*
X129730238Y-133442380D01*
X129825476Y-133490000D01*
X129873095Y-133537619D01*
X129920714Y-133632857D01*
X129968333Y-133823333D01*
X129968333Y-134061428D01*
X129920714Y-134251904D01*
X129873095Y-134347142D01*
X129825476Y-134394761D01*
X129730238Y-134442380D01*
X129635000Y-134442380D01*
X129539761Y-134394761D01*
X129492142Y-134347142D01*
X129444523Y-134251904D01*
X129396904Y-134061428D01*
X129396904Y-133823333D01*
X129444523Y-133632857D01*
X129492142Y-133537619D01*
X129539761Y-133490000D01*
X129635000Y-133442380D01*
X130158809Y-134537619D02*
X130920714Y-134537619D01*
X131111190Y-133537619D02*
X131158809Y-133490000D01*
X131254047Y-133442380D01*
X131492142Y-133442380D01*
X131587380Y-133490000D01*
X131635000Y-133537619D01*
X131682619Y-133632857D01*
X131682619Y-133728095D01*
X131635000Y-133870952D01*
X131063571Y-134442380D01*
X131682619Y-134442380D01*
%TO.C,J5*%
X111570000Y-143967380D02*
X111570000Y-142967380D01*
X111808095Y-142967380D01*
X111950952Y-143015000D01*
X112046190Y-143110238D01*
X112093809Y-143205476D01*
X112141428Y-143395952D01*
X112141428Y-143538809D01*
X112093809Y-143729285D01*
X112046190Y-143824523D01*
X111950952Y-143919761D01*
X111808095Y-143967380D01*
X111570000Y-143967380D01*
X112522380Y-143919761D02*
X112665238Y-143967380D01*
X112903333Y-143967380D01*
X112998571Y-143919761D01*
X113046190Y-143872142D01*
X113093809Y-143776904D01*
X113093809Y-143681666D01*
X113046190Y-143586428D01*
X112998571Y-143538809D01*
X112903333Y-143491190D01*
X112712857Y-143443571D01*
X112617619Y-143395952D01*
X112570000Y-143348333D01*
X112522380Y-143253095D01*
X112522380Y-143157857D01*
X112570000Y-143062619D01*
X112617619Y-143015000D01*
X112712857Y-142967380D01*
X112950952Y-142967380D01*
X113093809Y-143015000D01*
X114046190Y-143967380D02*
X113474761Y-143967380D01*
X113760476Y-143967380D02*
X113760476Y-142967380D01*
X113665238Y-143110238D01*
X113570000Y-143205476D01*
X113474761Y-143253095D01*
X114617619Y-143395952D02*
X114522380Y-143348333D01*
X114474761Y-143300714D01*
X114427142Y-143205476D01*
X114427142Y-143157857D01*
X114474761Y-143062619D01*
X114522380Y-143015000D01*
X114617619Y-142967380D01*
X114808095Y-142967380D01*
X114903333Y-143015000D01*
X114950952Y-143062619D01*
X114998571Y-143157857D01*
X114998571Y-143205476D01*
X114950952Y-143300714D01*
X114903333Y-143348333D01*
X114808095Y-143395952D01*
X114617619Y-143395952D01*
X114522380Y-143443571D01*
X114474761Y-143491190D01*
X114427142Y-143586428D01*
X114427142Y-143776904D01*
X114474761Y-143872142D01*
X114522380Y-143919761D01*
X114617619Y-143967380D01*
X114808095Y-143967380D01*
X114903333Y-143919761D01*
X114950952Y-143872142D01*
X114998571Y-143776904D01*
X114998571Y-143586428D01*
X114950952Y-143491190D01*
X114903333Y-143443571D01*
X114808095Y-143395952D01*
X115760476Y-143443571D02*
X115903333Y-143491190D01*
X115950952Y-143538809D01*
X115998571Y-143634047D01*
X115998571Y-143776904D01*
X115950952Y-143872142D01*
X115903333Y-143919761D01*
X115808095Y-143967380D01*
X115427142Y-143967380D01*
X115427142Y-142967380D01*
X115760476Y-142967380D01*
X115855714Y-143015000D01*
X115903333Y-143062619D01*
X115950952Y-143157857D01*
X115950952Y-143253095D01*
X115903333Y-143348333D01*
X115855714Y-143395952D01*
X115760476Y-143443571D01*
X115427142Y-143443571D01*
X116379523Y-143062619D02*
X116427142Y-143015000D01*
X116522380Y-142967380D01*
X116760476Y-142967380D01*
X116855714Y-143015000D01*
X116903333Y-143062619D01*
X116950952Y-143157857D01*
X116950952Y-143253095D01*
X116903333Y-143395952D01*
X116331904Y-143967380D01*
X116950952Y-143967380D01*
X117570000Y-142967380D02*
X117665238Y-142967380D01*
X117760476Y-143015000D01*
X117808095Y-143062619D01*
X117855714Y-143157857D01*
X117903333Y-143348333D01*
X117903333Y-143586428D01*
X117855714Y-143776904D01*
X117808095Y-143872142D01*
X117760476Y-143919761D01*
X117665238Y-143967380D01*
X117570000Y-143967380D01*
X117474761Y-143919761D01*
X117427142Y-143872142D01*
X117379523Y-143776904D01*
X117331904Y-143586428D01*
X117331904Y-143348333D01*
X117379523Y-143157857D01*
X117427142Y-143062619D01*
X117474761Y-143015000D01*
X117570000Y-142967380D01*
X118093809Y-144062619D02*
X118855714Y-144062619D01*
X119522380Y-143300714D02*
X119522380Y-143967380D01*
X119284285Y-142919761D02*
X119046190Y-143634047D01*
X119665238Y-143634047D01*
%TO.C,J17*%
X83116190Y-102217380D02*
X83449523Y-103217380D01*
X83782857Y-102217380D01*
X84068571Y-102931666D02*
X84544761Y-102931666D01*
X83973333Y-103217380D02*
X84306666Y-102217380D01*
X84640000Y-103217380D01*
X85449523Y-103217380D02*
X84973333Y-103217380D01*
X84973333Y-102217380D01*
X85640000Y-102217380D02*
X85973333Y-103217380D01*
X86306666Y-102217380D01*
X86640000Y-102693571D02*
X86973333Y-102693571D01*
X87116190Y-103217380D02*
X86640000Y-103217380D01*
X86640000Y-102217380D01*
X87116190Y-102217380D01*
X87687619Y-102645952D02*
X87592380Y-102598333D01*
X87544761Y-102550714D01*
X87497142Y-102455476D01*
X87497142Y-102407857D01*
X87544761Y-102312619D01*
X87592380Y-102265000D01*
X87687619Y-102217380D01*
X87878095Y-102217380D01*
X87973333Y-102265000D01*
X88020952Y-102312619D01*
X88068571Y-102407857D01*
X88068571Y-102455476D01*
X88020952Y-102550714D01*
X87973333Y-102598333D01*
X87878095Y-102645952D01*
X87687619Y-102645952D01*
X87592380Y-102693571D01*
X87544761Y-102741190D01*
X87497142Y-102836428D01*
X87497142Y-103026904D01*
X87544761Y-103122142D01*
X87592380Y-103169761D01*
X87687619Y-103217380D01*
X87878095Y-103217380D01*
X87973333Y-103169761D01*
X88020952Y-103122142D01*
X88068571Y-103026904D01*
X88068571Y-102836428D01*
X88020952Y-102741190D01*
X87973333Y-102693571D01*
X87878095Y-102645952D01*
%TO.C,J12*%
X60539380Y-150859809D02*
X61539380Y-150526476D01*
X60539380Y-150193142D01*
X61253666Y-149907428D02*
X61253666Y-149431238D01*
X61539380Y-150002666D02*
X60539380Y-149669333D01*
X61539380Y-149336000D01*
X61539380Y-148526476D02*
X61539380Y-149002666D01*
X60539380Y-149002666D01*
X60539380Y-148336000D02*
X61539380Y-148002666D01*
X60539380Y-147669333D01*
X61015571Y-147336000D02*
X61015571Y-147002666D01*
X61539380Y-146859809D02*
X61539380Y-147336000D01*
X60539380Y-147336000D01*
X60539380Y-146859809D01*
X60539380Y-146526476D02*
X60539380Y-145907428D01*
X60920333Y-146240761D01*
X60920333Y-146097904D01*
X60967952Y-146002666D01*
X61015571Y-145955047D01*
X61110809Y-145907428D01*
X61348904Y-145907428D01*
X61444142Y-145955047D01*
X61491761Y-146002666D01*
X61539380Y-146097904D01*
X61539380Y-146383619D01*
X61491761Y-146478857D01*
X61444142Y-146526476D01*
%TO.C,J1*%
X105410285Y-113942761D02*
X105553142Y-113990380D01*
X105791238Y-113990380D01*
X105886476Y-113942761D01*
X105934095Y-113895142D01*
X105981714Y-113799904D01*
X105981714Y-113704666D01*
X105934095Y-113609428D01*
X105886476Y-113561809D01*
X105791238Y-113514190D01*
X105600761Y-113466571D01*
X105505523Y-113418952D01*
X105457904Y-113371333D01*
X105410285Y-113276095D01*
X105410285Y-113180857D01*
X105457904Y-113085619D01*
X105505523Y-113038000D01*
X105600761Y-112990380D01*
X105838857Y-112990380D01*
X105981714Y-113038000D01*
X106838857Y-113323714D02*
X106838857Y-113990380D01*
X106410285Y-113323714D02*
X106410285Y-113847523D01*
X106457904Y-113942761D01*
X106553142Y-113990380D01*
X106696000Y-113990380D01*
X106791238Y-113942761D01*
X106838857Y-113895142D01*
X107315047Y-113323714D02*
X107315047Y-114323714D01*
X107315047Y-113371333D02*
X107410285Y-113323714D01*
X107600761Y-113323714D01*
X107696000Y-113371333D01*
X107743619Y-113418952D01*
X107791238Y-113514190D01*
X107791238Y-113799904D01*
X107743619Y-113895142D01*
X107696000Y-113942761D01*
X107600761Y-113990380D01*
X107410285Y-113990380D01*
X107315047Y-113942761D01*
X108219809Y-113323714D02*
X108219809Y-114323714D01*
X108219809Y-113371333D02*
X108315047Y-113323714D01*
X108505523Y-113323714D01*
X108600761Y-113371333D01*
X108648380Y-113418952D01*
X108696000Y-113514190D01*
X108696000Y-113799904D01*
X108648380Y-113895142D01*
X108600761Y-113942761D01*
X108505523Y-113990380D01*
X108315047Y-113990380D01*
X108219809Y-113942761D01*
X109267428Y-113990380D02*
X109172190Y-113942761D01*
X109124571Y-113847523D01*
X109124571Y-112990380D01*
X109553142Y-113323714D02*
X109791238Y-113990380D01*
X110029333Y-113323714D02*
X109791238Y-113990380D01*
X109696000Y-114228476D01*
X109648380Y-114276095D01*
X109553142Y-114323714D01*
%TO.C,J6*%
X123635000Y-143967380D02*
X123635000Y-142967380D01*
X123873095Y-142967380D01*
X124015952Y-143015000D01*
X124111190Y-143110238D01*
X124158809Y-143205476D01*
X124206428Y-143395952D01*
X124206428Y-143538809D01*
X124158809Y-143729285D01*
X124111190Y-143824523D01*
X124015952Y-143919761D01*
X123873095Y-143967380D01*
X123635000Y-143967380D01*
X124587380Y-143919761D02*
X124730238Y-143967380D01*
X124968333Y-143967380D01*
X125063571Y-143919761D01*
X125111190Y-143872142D01*
X125158809Y-143776904D01*
X125158809Y-143681666D01*
X125111190Y-143586428D01*
X125063571Y-143538809D01*
X124968333Y-143491190D01*
X124777857Y-143443571D01*
X124682619Y-143395952D01*
X124635000Y-143348333D01*
X124587380Y-143253095D01*
X124587380Y-143157857D01*
X124635000Y-143062619D01*
X124682619Y-143015000D01*
X124777857Y-142967380D01*
X125015952Y-142967380D01*
X125158809Y-143015000D01*
X126111190Y-143967380D02*
X125539761Y-143967380D01*
X125825476Y-143967380D02*
X125825476Y-142967380D01*
X125730238Y-143110238D01*
X125635000Y-143205476D01*
X125539761Y-143253095D01*
X126682619Y-143395952D02*
X126587380Y-143348333D01*
X126539761Y-143300714D01*
X126492142Y-143205476D01*
X126492142Y-143157857D01*
X126539761Y-143062619D01*
X126587380Y-143015000D01*
X126682619Y-142967380D01*
X126873095Y-142967380D01*
X126968333Y-143015000D01*
X127015952Y-143062619D01*
X127063571Y-143157857D01*
X127063571Y-143205476D01*
X127015952Y-143300714D01*
X126968333Y-143348333D01*
X126873095Y-143395952D01*
X126682619Y-143395952D01*
X126587380Y-143443571D01*
X126539761Y-143491190D01*
X126492142Y-143586428D01*
X126492142Y-143776904D01*
X126539761Y-143872142D01*
X126587380Y-143919761D01*
X126682619Y-143967380D01*
X126873095Y-143967380D01*
X126968333Y-143919761D01*
X127015952Y-143872142D01*
X127063571Y-143776904D01*
X127063571Y-143586428D01*
X127015952Y-143491190D01*
X126968333Y-143443571D01*
X126873095Y-143395952D01*
X127825476Y-143443571D02*
X127968333Y-143491190D01*
X128015952Y-143538809D01*
X128063571Y-143634047D01*
X128063571Y-143776904D01*
X128015952Y-143872142D01*
X127968333Y-143919761D01*
X127873095Y-143967380D01*
X127492142Y-143967380D01*
X127492142Y-142967380D01*
X127825476Y-142967380D01*
X127920714Y-143015000D01*
X127968333Y-143062619D01*
X128015952Y-143157857D01*
X128015952Y-143253095D01*
X127968333Y-143348333D01*
X127920714Y-143395952D01*
X127825476Y-143443571D01*
X127492142Y-143443571D01*
X128444523Y-143062619D02*
X128492142Y-143015000D01*
X128587380Y-142967380D01*
X128825476Y-142967380D01*
X128920714Y-143015000D01*
X128968333Y-143062619D01*
X129015952Y-143157857D01*
X129015952Y-143253095D01*
X128968333Y-143395952D01*
X128396904Y-143967380D01*
X129015952Y-143967380D01*
X129635000Y-142967380D02*
X129730238Y-142967380D01*
X129825476Y-143015000D01*
X129873095Y-143062619D01*
X129920714Y-143157857D01*
X129968333Y-143348333D01*
X129968333Y-143586428D01*
X129920714Y-143776904D01*
X129873095Y-143872142D01*
X129825476Y-143919761D01*
X129730238Y-143967380D01*
X129635000Y-143967380D01*
X129539761Y-143919761D01*
X129492142Y-143872142D01*
X129444523Y-143776904D01*
X129396904Y-143586428D01*
X129396904Y-143348333D01*
X129444523Y-143157857D01*
X129492142Y-143062619D01*
X129539761Y-143015000D01*
X129635000Y-142967380D01*
X130158809Y-144062619D02*
X130920714Y-144062619D01*
X131635000Y-142967380D02*
X131158809Y-142967380D01*
X131111190Y-143443571D01*
X131158809Y-143395952D01*
X131254047Y-143348333D01*
X131492142Y-143348333D01*
X131587380Y-143395952D01*
X131635000Y-143443571D01*
X131682619Y-143538809D01*
X131682619Y-143776904D01*
X131635000Y-143872142D01*
X131587380Y-143919761D01*
X131492142Y-143967380D01*
X131254047Y-143967380D01*
X131158809Y-143919761D01*
X131111190Y-143872142D01*
%TO.C,J15*%
X60942380Y-102303809D02*
X61942380Y-101970476D01*
X60942380Y-101637142D01*
X61656666Y-101351428D02*
X61656666Y-100875238D01*
X61942380Y-101446666D02*
X60942380Y-101113333D01*
X61942380Y-100780000D01*
X61942380Y-99970476D02*
X61942380Y-100446666D01*
X60942380Y-100446666D01*
X60942380Y-99780000D02*
X61942380Y-99446666D01*
X60942380Y-99113333D01*
X61418571Y-98780000D02*
X61418571Y-98446666D01*
X61942380Y-98303809D02*
X61942380Y-98780000D01*
X60942380Y-98780000D01*
X60942380Y-98303809D01*
X60942380Y-97446666D02*
X60942380Y-97637142D01*
X60990000Y-97732380D01*
X61037619Y-97780000D01*
X61180476Y-97875238D01*
X61370952Y-97922857D01*
X61751904Y-97922857D01*
X61847142Y-97875238D01*
X61894761Y-97827619D01*
X61942380Y-97732380D01*
X61942380Y-97541904D01*
X61894761Y-97446666D01*
X61847142Y-97399047D01*
X61751904Y-97351428D01*
X61513809Y-97351428D01*
X61418571Y-97399047D01*
X61370952Y-97446666D01*
X61323333Y-97541904D01*
X61323333Y-97732380D01*
X61370952Y-97827619D01*
X61418571Y-97875238D01*
X61513809Y-97922857D01*
%TO.C,J4*%
X135700000Y-143967380D02*
X135700000Y-142967380D01*
X135938095Y-142967380D01*
X136080952Y-143015000D01*
X136176190Y-143110238D01*
X136223809Y-143205476D01*
X136271428Y-143395952D01*
X136271428Y-143538809D01*
X136223809Y-143729285D01*
X136176190Y-143824523D01*
X136080952Y-143919761D01*
X135938095Y-143967380D01*
X135700000Y-143967380D01*
X136652380Y-143919761D02*
X136795238Y-143967380D01*
X137033333Y-143967380D01*
X137128571Y-143919761D01*
X137176190Y-143872142D01*
X137223809Y-143776904D01*
X137223809Y-143681666D01*
X137176190Y-143586428D01*
X137128571Y-143538809D01*
X137033333Y-143491190D01*
X136842857Y-143443571D01*
X136747619Y-143395952D01*
X136700000Y-143348333D01*
X136652380Y-143253095D01*
X136652380Y-143157857D01*
X136700000Y-143062619D01*
X136747619Y-143015000D01*
X136842857Y-142967380D01*
X137080952Y-142967380D01*
X137223809Y-143015000D01*
X138176190Y-143967380D02*
X137604761Y-143967380D01*
X137890476Y-143967380D02*
X137890476Y-142967380D01*
X137795238Y-143110238D01*
X137700000Y-143205476D01*
X137604761Y-143253095D01*
X138747619Y-143395952D02*
X138652380Y-143348333D01*
X138604761Y-143300714D01*
X138557142Y-143205476D01*
X138557142Y-143157857D01*
X138604761Y-143062619D01*
X138652380Y-143015000D01*
X138747619Y-142967380D01*
X138938095Y-142967380D01*
X139033333Y-143015000D01*
X139080952Y-143062619D01*
X139128571Y-143157857D01*
X139128571Y-143205476D01*
X139080952Y-143300714D01*
X139033333Y-143348333D01*
X138938095Y-143395952D01*
X138747619Y-143395952D01*
X138652380Y-143443571D01*
X138604761Y-143491190D01*
X138557142Y-143586428D01*
X138557142Y-143776904D01*
X138604761Y-143872142D01*
X138652380Y-143919761D01*
X138747619Y-143967380D01*
X138938095Y-143967380D01*
X139033333Y-143919761D01*
X139080952Y-143872142D01*
X139128571Y-143776904D01*
X139128571Y-143586428D01*
X139080952Y-143491190D01*
X139033333Y-143443571D01*
X138938095Y-143395952D01*
X139890476Y-143443571D02*
X140033333Y-143491190D01*
X140080952Y-143538809D01*
X140128571Y-143634047D01*
X140128571Y-143776904D01*
X140080952Y-143872142D01*
X140033333Y-143919761D01*
X139938095Y-143967380D01*
X139557142Y-143967380D01*
X139557142Y-142967380D01*
X139890476Y-142967380D01*
X139985714Y-143015000D01*
X140033333Y-143062619D01*
X140080952Y-143157857D01*
X140080952Y-143253095D01*
X140033333Y-143348333D01*
X139985714Y-143395952D01*
X139890476Y-143443571D01*
X139557142Y-143443571D01*
X140509523Y-143062619D02*
X140557142Y-143015000D01*
X140652380Y-142967380D01*
X140890476Y-142967380D01*
X140985714Y-143015000D01*
X141033333Y-143062619D01*
X141080952Y-143157857D01*
X141080952Y-143253095D01*
X141033333Y-143395952D01*
X140461904Y-143967380D01*
X141080952Y-143967380D01*
X141700000Y-142967380D02*
X141795238Y-142967380D01*
X141890476Y-143015000D01*
X141938095Y-143062619D01*
X141985714Y-143157857D01*
X142033333Y-143348333D01*
X142033333Y-143586428D01*
X141985714Y-143776904D01*
X141938095Y-143872142D01*
X141890476Y-143919761D01*
X141795238Y-143967380D01*
X141700000Y-143967380D01*
X141604761Y-143919761D01*
X141557142Y-143872142D01*
X141509523Y-143776904D01*
X141461904Y-143586428D01*
X141461904Y-143348333D01*
X141509523Y-143157857D01*
X141557142Y-143062619D01*
X141604761Y-143015000D01*
X141700000Y-142967380D01*
X142223809Y-144062619D02*
X142985714Y-144062619D01*
X143128571Y-142967380D02*
X143747619Y-142967380D01*
X143414285Y-143348333D01*
X143557142Y-143348333D01*
X143652380Y-143395952D01*
X143700000Y-143443571D01*
X143747619Y-143538809D01*
X143747619Y-143776904D01*
X143700000Y-143872142D01*
X143652380Y-143919761D01*
X143557142Y-143967380D01*
X143271428Y-143967380D01*
X143176190Y-143919761D01*
X143128571Y-143872142D01*
%TO.C,J13*%
X60942380Y-135323809D02*
X61942380Y-134990476D01*
X60942380Y-134657142D01*
X61656666Y-134371428D02*
X61656666Y-133895238D01*
X61942380Y-134466666D02*
X60942380Y-134133333D01*
X61942380Y-133800000D01*
X61942380Y-132990476D02*
X61942380Y-133466666D01*
X60942380Y-133466666D01*
X60942380Y-132800000D02*
X61942380Y-132466666D01*
X60942380Y-132133333D01*
X61418571Y-131800000D02*
X61418571Y-131466666D01*
X61942380Y-131323809D02*
X61942380Y-131800000D01*
X60942380Y-131800000D01*
X60942380Y-131323809D01*
X61275714Y-130466666D02*
X61942380Y-130466666D01*
X60894761Y-130704761D02*
X61609047Y-130942857D01*
X61609047Y-130323809D01*
%TO.C,J8*%
X123540000Y-153754380D02*
X123540000Y-152754380D01*
X123778095Y-152754380D01*
X123920952Y-152802000D01*
X124016190Y-152897238D01*
X124063809Y-152992476D01*
X124111428Y-153182952D01*
X124111428Y-153325809D01*
X124063809Y-153516285D01*
X124016190Y-153611523D01*
X123920952Y-153706761D01*
X123778095Y-153754380D01*
X123540000Y-153754380D01*
X124492380Y-153706761D02*
X124635238Y-153754380D01*
X124873333Y-153754380D01*
X124968571Y-153706761D01*
X125016190Y-153659142D01*
X125063809Y-153563904D01*
X125063809Y-153468666D01*
X125016190Y-153373428D01*
X124968571Y-153325809D01*
X124873333Y-153278190D01*
X124682857Y-153230571D01*
X124587619Y-153182952D01*
X124540000Y-153135333D01*
X124492380Y-153040095D01*
X124492380Y-152944857D01*
X124540000Y-152849619D01*
X124587619Y-152802000D01*
X124682857Y-152754380D01*
X124920952Y-152754380D01*
X125063809Y-152802000D01*
X126016190Y-153754380D02*
X125444761Y-153754380D01*
X125730476Y-153754380D02*
X125730476Y-152754380D01*
X125635238Y-152897238D01*
X125540000Y-152992476D01*
X125444761Y-153040095D01*
X126587619Y-153182952D02*
X126492380Y-153135333D01*
X126444761Y-153087714D01*
X126397142Y-152992476D01*
X126397142Y-152944857D01*
X126444761Y-152849619D01*
X126492380Y-152802000D01*
X126587619Y-152754380D01*
X126778095Y-152754380D01*
X126873333Y-152802000D01*
X126920952Y-152849619D01*
X126968571Y-152944857D01*
X126968571Y-152992476D01*
X126920952Y-153087714D01*
X126873333Y-153135333D01*
X126778095Y-153182952D01*
X126587619Y-153182952D01*
X126492380Y-153230571D01*
X126444761Y-153278190D01*
X126397142Y-153373428D01*
X126397142Y-153563904D01*
X126444761Y-153659142D01*
X126492380Y-153706761D01*
X126587619Y-153754380D01*
X126778095Y-153754380D01*
X126873333Y-153706761D01*
X126920952Y-153659142D01*
X126968571Y-153563904D01*
X126968571Y-153373428D01*
X126920952Y-153278190D01*
X126873333Y-153230571D01*
X126778095Y-153182952D01*
X127730476Y-153230571D02*
X127873333Y-153278190D01*
X127920952Y-153325809D01*
X127968571Y-153421047D01*
X127968571Y-153563904D01*
X127920952Y-153659142D01*
X127873333Y-153706761D01*
X127778095Y-153754380D01*
X127397142Y-153754380D01*
X127397142Y-152754380D01*
X127730476Y-152754380D01*
X127825714Y-152802000D01*
X127873333Y-152849619D01*
X127920952Y-152944857D01*
X127920952Y-153040095D01*
X127873333Y-153135333D01*
X127825714Y-153182952D01*
X127730476Y-153230571D01*
X127397142Y-153230571D01*
X128349523Y-152849619D02*
X128397142Y-152802000D01*
X128492380Y-152754380D01*
X128730476Y-152754380D01*
X128825714Y-152802000D01*
X128873333Y-152849619D01*
X128920952Y-152944857D01*
X128920952Y-153040095D01*
X128873333Y-153182952D01*
X128301904Y-153754380D01*
X128920952Y-153754380D01*
X129540000Y-152754380D02*
X129635238Y-152754380D01*
X129730476Y-152802000D01*
X129778095Y-152849619D01*
X129825714Y-152944857D01*
X129873333Y-153135333D01*
X129873333Y-153373428D01*
X129825714Y-153563904D01*
X129778095Y-153659142D01*
X129730476Y-153706761D01*
X129635238Y-153754380D01*
X129540000Y-153754380D01*
X129444761Y-153706761D01*
X129397142Y-153659142D01*
X129349523Y-153563904D01*
X129301904Y-153373428D01*
X129301904Y-153135333D01*
X129349523Y-152944857D01*
X129397142Y-152849619D01*
X129444761Y-152802000D01*
X129540000Y-152754380D01*
X130063809Y-153849619D02*
X130825714Y-153849619D01*
X130968571Y-152754380D02*
X131635238Y-152754380D01*
X131206666Y-153754380D01*
%TO.C,J7*%
X135700000Y-153746380D02*
X135700000Y-152746380D01*
X135938095Y-152746380D01*
X136080952Y-152794000D01*
X136176190Y-152889238D01*
X136223809Y-152984476D01*
X136271428Y-153174952D01*
X136271428Y-153317809D01*
X136223809Y-153508285D01*
X136176190Y-153603523D01*
X136080952Y-153698761D01*
X135938095Y-153746380D01*
X135700000Y-153746380D01*
X136652380Y-153698761D02*
X136795238Y-153746380D01*
X137033333Y-153746380D01*
X137128571Y-153698761D01*
X137176190Y-153651142D01*
X137223809Y-153555904D01*
X137223809Y-153460666D01*
X137176190Y-153365428D01*
X137128571Y-153317809D01*
X137033333Y-153270190D01*
X136842857Y-153222571D01*
X136747619Y-153174952D01*
X136700000Y-153127333D01*
X136652380Y-153032095D01*
X136652380Y-152936857D01*
X136700000Y-152841619D01*
X136747619Y-152794000D01*
X136842857Y-152746380D01*
X137080952Y-152746380D01*
X137223809Y-152794000D01*
X138176190Y-153746380D02*
X137604761Y-153746380D01*
X137890476Y-153746380D02*
X137890476Y-152746380D01*
X137795238Y-152889238D01*
X137700000Y-152984476D01*
X137604761Y-153032095D01*
X138747619Y-153174952D02*
X138652380Y-153127333D01*
X138604761Y-153079714D01*
X138557142Y-152984476D01*
X138557142Y-152936857D01*
X138604761Y-152841619D01*
X138652380Y-152794000D01*
X138747619Y-152746380D01*
X138938095Y-152746380D01*
X139033333Y-152794000D01*
X139080952Y-152841619D01*
X139128571Y-152936857D01*
X139128571Y-152984476D01*
X139080952Y-153079714D01*
X139033333Y-153127333D01*
X138938095Y-153174952D01*
X138747619Y-153174952D01*
X138652380Y-153222571D01*
X138604761Y-153270190D01*
X138557142Y-153365428D01*
X138557142Y-153555904D01*
X138604761Y-153651142D01*
X138652380Y-153698761D01*
X138747619Y-153746380D01*
X138938095Y-153746380D01*
X139033333Y-153698761D01*
X139080952Y-153651142D01*
X139128571Y-153555904D01*
X139128571Y-153365428D01*
X139080952Y-153270190D01*
X139033333Y-153222571D01*
X138938095Y-153174952D01*
X139890476Y-153222571D02*
X140033333Y-153270190D01*
X140080952Y-153317809D01*
X140128571Y-153413047D01*
X140128571Y-153555904D01*
X140080952Y-153651142D01*
X140033333Y-153698761D01*
X139938095Y-153746380D01*
X139557142Y-153746380D01*
X139557142Y-152746380D01*
X139890476Y-152746380D01*
X139985714Y-152794000D01*
X140033333Y-152841619D01*
X140080952Y-152936857D01*
X140080952Y-153032095D01*
X140033333Y-153127333D01*
X139985714Y-153174952D01*
X139890476Y-153222571D01*
X139557142Y-153222571D01*
X140509523Y-152841619D02*
X140557142Y-152794000D01*
X140652380Y-152746380D01*
X140890476Y-152746380D01*
X140985714Y-152794000D01*
X141033333Y-152841619D01*
X141080952Y-152936857D01*
X141080952Y-153032095D01*
X141033333Y-153174952D01*
X140461904Y-153746380D01*
X141080952Y-153746380D01*
X141700000Y-152746380D02*
X141795238Y-152746380D01*
X141890476Y-152794000D01*
X141938095Y-152841619D01*
X141985714Y-152936857D01*
X142033333Y-153127333D01*
X142033333Y-153365428D01*
X141985714Y-153555904D01*
X141938095Y-153651142D01*
X141890476Y-153698761D01*
X141795238Y-153746380D01*
X141700000Y-153746380D01*
X141604761Y-153698761D01*
X141557142Y-153651142D01*
X141509523Y-153555904D01*
X141461904Y-153365428D01*
X141461904Y-153127333D01*
X141509523Y-152936857D01*
X141557142Y-152841619D01*
X141604761Y-152794000D01*
X141700000Y-152746380D01*
X142223809Y-153841619D02*
X142985714Y-153841619D01*
X143652380Y-152746380D02*
X143461904Y-152746380D01*
X143366666Y-152794000D01*
X143319047Y-152841619D01*
X143223809Y-152984476D01*
X143176190Y-153174952D01*
X143176190Y-153555904D01*
X143223809Y-153651142D01*
X143271428Y-153698761D01*
X143366666Y-153746380D01*
X143557142Y-153746380D01*
X143652380Y-153698761D01*
X143700000Y-153651142D01*
X143747619Y-153555904D01*
X143747619Y-153317809D01*
X143700000Y-153222571D01*
X143652380Y-153174952D01*
X143557142Y-153127333D01*
X143366666Y-153127333D01*
X143271428Y-153174952D01*
X143223809Y-153222571D01*
X143176190Y-153317809D01*
%TO.C,J18*%
X144581571Y-96575428D02*
X144581571Y-96242095D01*
X145105380Y-96099238D02*
X145105380Y-96575428D01*
X144105380Y-96575428D01*
X144105380Y-96099238D01*
X144105380Y-95765904D02*
X145105380Y-95099238D01*
X144105380Y-95099238D02*
X145105380Y-95765904D01*
X144105380Y-94861142D02*
X144105380Y-94289714D01*
X145105380Y-94575428D02*
X144105380Y-94575428D01*
%TO.C,J11*%
X68596190Y-143470380D02*
X68929523Y-144470380D01*
X69262857Y-143470380D01*
X69548571Y-144184666D02*
X70024761Y-144184666D01*
X69453333Y-144470380D02*
X69786666Y-143470380D01*
X70120000Y-144470380D01*
X70929523Y-144470380D02*
X70453333Y-144470380D01*
X70453333Y-143470380D01*
X71120000Y-143470380D02*
X71453333Y-144470380D01*
X71786666Y-143470380D01*
X72120000Y-143946571D02*
X72453333Y-143946571D01*
X72596190Y-144470380D02*
X72120000Y-144470380D01*
X72120000Y-143470380D01*
X72596190Y-143470380D01*
X72977142Y-143565619D02*
X73024761Y-143518000D01*
X73120000Y-143470380D01*
X73358095Y-143470380D01*
X73453333Y-143518000D01*
X73500952Y-143565619D01*
X73548571Y-143660857D01*
X73548571Y-143756095D01*
X73500952Y-143898952D01*
X72929523Y-144470380D01*
X73548571Y-144470380D01*
%TO.C,J16*%
X66606190Y-102217380D02*
X66939523Y-103217380D01*
X67272857Y-102217380D01*
X67558571Y-102931666D02*
X68034761Y-102931666D01*
X67463333Y-103217380D02*
X67796666Y-102217380D01*
X68130000Y-103217380D01*
X68939523Y-103217380D02*
X68463333Y-103217380D01*
X68463333Y-102217380D01*
X69130000Y-102217380D02*
X69463333Y-103217380D01*
X69796666Y-102217380D01*
X70130000Y-102693571D02*
X70463333Y-102693571D01*
X70606190Y-103217380D02*
X70130000Y-103217380D01*
X70130000Y-102217380D01*
X70606190Y-102217380D01*
X70939523Y-102217380D02*
X71606190Y-102217380D01*
X71177619Y-103217380D01*
D12*
%TO.C,J2*%
X110485000Y-125180000D02*
X120655000Y-125180000D01*
X112810000Y-130400000D02*
X112810000Y-132790000D01*
X120655000Y-129550000D02*
X120655000Y-130400000D01*
X110485000Y-126030000D02*
X110485000Y-125180000D01*
X120655000Y-125180000D02*
X120655000Y-126030000D01*
X120655000Y-130400000D02*
X118330000Y-130400000D01*
X110485000Y-130400000D02*
X112810000Y-130400000D01*
X110485000Y-129550000D02*
X110485000Y-130400000D01*
%TO.C,R51*%
X94217258Y-107427500D02*
X93742742Y-107427500D01*
X94217258Y-108472500D02*
X93742742Y-108472500D01*
%TO.C,R64*%
X105092500Y-105807742D02*
X105092500Y-106282258D01*
X104047500Y-105807742D02*
X104047500Y-106282258D01*
%TO.C,R27*%
X81296742Y-123175500D02*
X81771258Y-123175500D01*
X81296742Y-124220500D02*
X81771258Y-124220500D01*
%TO.C,C18*%
X84100580Y-111250000D02*
X83819420Y-111250000D01*
X84100580Y-112270000D02*
X83819420Y-112270000D01*
%TO.C,C5*%
X98935000Y-150354420D02*
X98935000Y-150635580D01*
X97915000Y-150354420D02*
X97915000Y-150635580D01*
%TO.C,R25*%
X86851258Y-123175500D02*
X86376742Y-123175500D01*
X86851258Y-124220500D02*
X86376742Y-124220500D01*
%TO.C,U13*%
X85725000Y-108732000D02*
X83775000Y-108732000D01*
X85725000Y-103612000D02*
X87675000Y-103612000D01*
X85725000Y-108732000D02*
X87675000Y-108732000D01*
X85725000Y-103612000D02*
X82275000Y-103612000D01*
%TO.C,J9*%
X110485000Y-145334000D02*
X110485000Y-144484000D01*
X120655000Y-144484000D02*
X120655000Y-145334000D01*
X110485000Y-148854000D02*
X110485000Y-149704000D01*
X110485000Y-149704000D02*
X112810000Y-149704000D01*
X120655000Y-149704000D02*
X118330000Y-149704000D01*
X110485000Y-144484000D02*
X120655000Y-144484000D01*
X112810000Y-149704000D02*
X112810000Y-152094000D01*
X120655000Y-148854000D02*
X120655000Y-149704000D01*
%TO.C,R44*%
X86312742Y-118857500D02*
X86787258Y-118857500D01*
X86312742Y-119902500D02*
X86787258Y-119902500D01*
%TO.C,C7*%
X101475000Y-135114420D02*
X101475000Y-135395580D01*
X100455000Y-135114420D02*
X100455000Y-135395580D01*
%TO.C,R61*%
X94092500Y-105172742D02*
X94092500Y-105647258D01*
X95137500Y-105172742D02*
X95137500Y-105647258D01*
%TO.C,R30*%
X91171500Y-130920258D02*
X91171500Y-130445742D01*
X92216500Y-130920258D02*
X92216500Y-130445742D01*
%TO.C,R35*%
X77707258Y-117587500D02*
X77232742Y-117587500D01*
X77707258Y-118632500D02*
X77232742Y-118632500D01*
%TO.C,C25*%
X120541920Y-105065000D02*
X120823080Y-105065000D01*
X120541920Y-104045000D02*
X120823080Y-104045000D01*
%TO.C,R56*%
X105807742Y-111012500D02*
X106282258Y-111012500D01*
X105807742Y-109967500D02*
X106282258Y-109967500D01*
%TO.C,C12*%
X70344420Y-131320000D02*
X70625580Y-131320000D01*
X70344420Y-130300000D02*
X70625580Y-130300000D01*
%TO.C,R20*%
X77961258Y-127395500D02*
X77486742Y-127395500D01*
X77961258Y-126350500D02*
X77486742Y-126350500D01*
%TO.C,R22*%
X64862064Y-129815000D02*
X63407936Y-129815000D01*
X64862064Y-127995000D02*
X63407936Y-127995000D01*
%TO.C,R10*%
X103902742Y-136002500D02*
X104377258Y-136002500D01*
X103902742Y-137047500D02*
X104377258Y-137047500D01*
%TO.C,C17*%
X120541920Y-102525000D02*
X120823080Y-102525000D01*
X120541920Y-101505000D02*
X120823080Y-101505000D01*
%TO.C,C8*%
X120541920Y-97445000D02*
X120823080Y-97445000D01*
X120541920Y-96425000D02*
X120823080Y-96425000D01*
%TO.C,C29*%
X80135000Y-104761420D02*
X80135000Y-105042580D01*
X81155000Y-104761420D02*
X81155000Y-105042580D01*
%TO.C,R50*%
X88502258Y-112282500D02*
X88027742Y-112282500D01*
X88502258Y-111237500D02*
X88027742Y-111237500D01*
%TO.C,R54*%
X98517064Y-97430000D02*
X97062936Y-97430000D01*
X98517064Y-95610000D02*
X97062936Y-95610000D01*
%TO.C,J14*%
X54570000Y-109370000D02*
X60040000Y-109370000D01*
X60040000Y-121770000D02*
X54570000Y-121770000D01*
X54640000Y-122380000D02*
X55140000Y-121880000D01*
X46640000Y-121770000D02*
X46640000Y-109370000D01*
X55140000Y-121880000D02*
X55640000Y-122380000D01*
X55640000Y-122380000D02*
X54640000Y-122380000D01*
X46640000Y-109370000D02*
X51110000Y-109370000D01*
X46640000Y-121770000D02*
X51110000Y-121770000D01*
X60040000Y-109370000D02*
X60040000Y-121770000D01*
%TO.C,R37*%
X64862064Y-118615000D02*
X63407936Y-118615000D01*
X64862064Y-120435000D02*
X63407936Y-120435000D01*
%TO.C,U9*%
X83820000Y-118130000D02*
X81870000Y-118130000D01*
X83820000Y-113010000D02*
X80370000Y-113010000D01*
X83820000Y-118130000D02*
X85770000Y-118130000D01*
X83820000Y-113010000D02*
X85770000Y-113010000D01*
%TO.C,R46*%
X79262500Y-114697742D02*
X79262500Y-115172258D01*
X78217500Y-114697742D02*
X78217500Y-115172258D01*
%TO.C,C23*%
X83310000Y-120155580D02*
X83310000Y-119874420D01*
X84330000Y-120155580D02*
X84330000Y-119874420D01*
%TO.C,R38*%
X65497064Y-109495000D02*
X64042936Y-109495000D01*
X65497064Y-107675000D02*
X64042936Y-107675000D01*
%TO.C,U2*%
X113367500Y-115715000D02*
X113367500Y-90165000D01*
X115817500Y-122715000D02*
X139067500Y-122715000D01*
X115817500Y-115715000D02*
X115817500Y-122715000D01*
X137017500Y-88115000D02*
X115417500Y-88115000D01*
X113367500Y-115715000D02*
X115817500Y-115715000D01*
X139067500Y-122715000D02*
X139067500Y-90165000D01*
X115417500Y-88115000D02*
G75*
G03*
X113367500Y-90165000I0J-2050000D01*
G01*
X139067500Y-90165000D02*
G75*
G03*
X137017500Y-88115000I-2050000J0D01*
G01*
G36*
X112912500Y-96465000D02*
G01*
X112277500Y-97100000D01*
X112277500Y-95830000D01*
X112912500Y-96465000D01*
G37*
X112912500Y-96465000D02*
X112277500Y-97100000D01*
X112277500Y-95830000D01*
X112912500Y-96465000D01*
%TO.C,R18*%
X94377742Y-143397500D02*
X94852258Y-143397500D01*
X94377742Y-142352500D02*
X94852258Y-142352500D01*
%TO.C,R7*%
X105807742Y-138952500D02*
X106282258Y-138952500D01*
X105807742Y-137907500D02*
X106282258Y-137907500D01*
%TO.C,R17*%
X102347500Y-145017258D02*
X102347500Y-144542742D01*
X103392500Y-145017258D02*
X103392500Y-144542742D01*
%TO.C,U7*%
X70955000Y-140990000D02*
X69005000Y-140990000D01*
X70955000Y-135870000D02*
X72905000Y-135870000D01*
X70955000Y-140990000D02*
X72905000Y-140990000D01*
X70955000Y-135870000D02*
X67505000Y-135870000D01*
%TO.C,C33*%
X120541920Y-106585000D02*
X120823080Y-106585000D01*
X120541920Y-107605000D02*
X120823080Y-107605000D01*
%TO.C,J10*%
X92560000Y-145065000D02*
X92560000Y-150535000D01*
X80160000Y-145065000D02*
X92560000Y-145065000D01*
X92560000Y-158465000D02*
X80160000Y-158465000D01*
X92560000Y-158465000D02*
X92560000Y-153995000D01*
X93170000Y-150465000D02*
X92670000Y-149965000D01*
X92670000Y-149965000D02*
X93170000Y-149465000D01*
X93170000Y-149465000D02*
X93170000Y-150465000D01*
X80160000Y-158465000D02*
X80160000Y-153995000D01*
X80160000Y-150535000D02*
X80160000Y-145065000D01*
%TO.C,R36*%
X89932742Y-117997500D02*
X90407258Y-117997500D01*
X89932742Y-116952500D02*
X90407258Y-116952500D01*
%TO.C,R62*%
X92187500Y-105172742D02*
X92187500Y-105647258D01*
X93232500Y-105172742D02*
X93232500Y-105647258D01*
%TO.C,R15*%
X93867500Y-140572258D02*
X93867500Y-140097742D01*
X92822500Y-140572258D02*
X92822500Y-140097742D01*
%TO.C,C20*%
X70979420Y-109980000D02*
X71260580Y-109980000D01*
X70979420Y-111000000D02*
X71260580Y-111000000D01*
%TO.C,R53*%
X80102064Y-108987000D02*
X78647936Y-108987000D01*
X80102064Y-107167000D02*
X78647936Y-107167000D01*
%TO.C,C27*%
X85584420Y-109218000D02*
X85865580Y-109218000D01*
X85584420Y-110238000D02*
X85865580Y-110238000D01*
%TO.C,R13*%
X107837500Y-143112258D02*
X107837500Y-142637742D01*
X106792500Y-143112258D02*
X106792500Y-142637742D01*
%TO.C,J3*%
X132720000Y-130400000D02*
X130395000Y-130400000D01*
X122550000Y-130400000D02*
X124875000Y-130400000D01*
X122550000Y-125180000D02*
X132720000Y-125180000D01*
X132720000Y-129550000D02*
X132720000Y-130400000D01*
X122550000Y-126030000D02*
X122550000Y-125180000D01*
X132720000Y-125180000D02*
X132720000Y-126030000D01*
X122550000Y-129550000D02*
X122550000Y-130400000D01*
X124875000Y-130400000D02*
X124875000Y-132790000D01*
%TO.C,R24*%
X77961258Y-125490500D02*
X77486742Y-125490500D01*
X77961258Y-124445500D02*
X77486742Y-124445500D01*
%TO.C,R32*%
X77611500Y-129650258D02*
X77611500Y-129175742D01*
X76566500Y-129650258D02*
X76566500Y-129175742D01*
%TO.C,R8*%
X94852258Y-135367500D02*
X94377742Y-135367500D01*
X94852258Y-136412500D02*
X94377742Y-136412500D01*
%TO.C,R29*%
X89266500Y-130920258D02*
X89266500Y-130445742D01*
X90311500Y-130920258D02*
X90311500Y-130445742D01*
%TO.C,R9*%
X104377258Y-135142500D02*
X103902742Y-135142500D01*
X104377258Y-134097500D02*
X103902742Y-134097500D01*
%TO.C,R14*%
X105932500Y-143112258D02*
X105932500Y-142637742D01*
X104887500Y-143112258D02*
X104887500Y-142637742D01*
%TO.C,R34*%
X80026742Y-133745500D02*
X80501258Y-133745500D01*
X80026742Y-132700500D02*
X80501258Y-132700500D01*
%TO.C,R26*%
X86376742Y-125080500D02*
X86851258Y-125080500D01*
X86376742Y-126125500D02*
X86851258Y-126125500D01*
%TO.C,R41*%
X81042742Y-121807500D02*
X81517258Y-121807500D01*
X81042742Y-120762500D02*
X81517258Y-120762500D01*
%TO.C,R58*%
X97392258Y-111012500D02*
X96917742Y-111012500D01*
X97392258Y-109967500D02*
X96917742Y-109967500D01*
%TO.C,R43*%
X86787258Y-120762500D02*
X86312742Y-120762500D01*
X86787258Y-121807500D02*
X86312742Y-121807500D01*
%TO.C,C16*%
X111298080Y-98330000D02*
X111016920Y-98330000D01*
X111298080Y-99350000D02*
X111016920Y-99350000D01*
%TO.C,R65*%
X95012742Y-103392500D02*
X95487258Y-103392500D01*
X95012742Y-102347500D02*
X95487258Y-102347500D01*
%TO.C,C10*%
X83933420Y-133733000D02*
X84214580Y-133733000D01*
X83933420Y-132713000D02*
X84214580Y-132713000D01*
%TO.C,R21*%
X65332064Y-141245000D02*
X63877936Y-141245000D01*
X65332064Y-139425000D02*
X63877936Y-139425000D01*
%TO.C,C6*%
X81075000Y-137019420D02*
X81075000Y-137300580D01*
X82095000Y-137019420D02*
X82095000Y-137300580D01*
%TO.C,R59*%
X102472258Y-112917500D02*
X101997742Y-112917500D01*
X102472258Y-111872500D02*
X101997742Y-111872500D01*
%TO.C,C30*%
X98550000Y-93204420D02*
X98550000Y-93485580D01*
X99570000Y-93204420D02*
X99570000Y-93485580D01*
%TO.C,C13*%
X66385000Y-137019420D02*
X66385000Y-137300580D01*
X65365000Y-137019420D02*
X65365000Y-137300580D01*
%TO.C,R28*%
X81771258Y-126125500D02*
X81296742Y-126125500D01*
X81771258Y-125080500D02*
X81296742Y-125080500D01*
%TO.C,R16*%
X94727500Y-140572258D02*
X94727500Y-140097742D01*
X95772500Y-140572258D02*
X95772500Y-140097742D01*
%TO.C,J5*%
X110485000Y-139925000D02*
X112810000Y-139925000D01*
X110485000Y-139075000D02*
X110485000Y-139925000D01*
X120655000Y-134705000D02*
X120655000Y-135555000D01*
X110485000Y-135555000D02*
X110485000Y-134705000D01*
X120655000Y-139075000D02*
X120655000Y-139925000D01*
X120655000Y-139925000D02*
X118330000Y-139925000D01*
X110485000Y-134705000D02*
X120655000Y-134705000D01*
X112810000Y-139925000D02*
X112810000Y-142315000D01*
%TO.C,R33*%
X88121258Y-133745500D02*
X87646742Y-133745500D01*
X88121258Y-132700500D02*
X87646742Y-132700500D01*
%TO.C,R4*%
X94852258Y-137272500D02*
X94377742Y-137272500D01*
X94852258Y-138317500D02*
X94377742Y-138317500D01*
%TO.C,R12*%
X98662258Y-137047500D02*
X98187742Y-137047500D01*
X98662258Y-136002500D02*
X98187742Y-136002500D01*
%TO.C,R66*%
X105647258Y-102347500D02*
X105172742Y-102347500D01*
X105647258Y-103392500D02*
X105172742Y-103392500D01*
%TO.C,J17*%
X80160000Y-87915000D02*
X80160000Y-92385000D01*
X92560000Y-95845000D02*
X92560000Y-101315000D01*
X80160000Y-87915000D02*
X92560000Y-87915000D01*
X92560000Y-101315000D02*
X80160000Y-101315000D01*
X79550000Y-95915000D02*
X80050000Y-96415000D01*
X80050000Y-96415000D02*
X79550000Y-96915000D01*
X79550000Y-96915000D02*
X79550000Y-95915000D01*
X92560000Y-87915000D02*
X92560000Y-92385000D01*
X80160000Y-101315000D02*
X80160000Y-95845000D01*
%TO.C,R39*%
X77707258Y-119492500D02*
X77232742Y-119492500D01*
X77707258Y-120537500D02*
X77232742Y-120537500D01*
%TO.C,C24*%
X111298080Y-101890000D02*
X111016920Y-101890000D01*
X111298080Y-100870000D02*
X111016920Y-100870000D01*
%TO.C,J12*%
X60040000Y-142130000D02*
X60040000Y-154530000D01*
X46640000Y-142130000D02*
X51110000Y-142130000D01*
X54640000Y-155140000D02*
X55140000Y-154640000D01*
X55140000Y-154640000D02*
X55640000Y-155140000D01*
X55640000Y-155140000D02*
X54640000Y-155140000D01*
X54570000Y-142130000D02*
X60040000Y-142130000D01*
X46640000Y-154530000D02*
X51110000Y-154530000D01*
X46640000Y-154530000D02*
X46640000Y-142130000D01*
X60040000Y-154530000D02*
X54570000Y-154530000D01*
%TO.C,C3*%
X103364420Y-155065000D02*
X103645580Y-155065000D01*
X103364420Y-156085000D02*
X103645580Y-156085000D01*
%TO.C,C19*%
X70344420Y-120775000D02*
X70625580Y-120775000D01*
X70344420Y-121795000D02*
X70625580Y-121795000D01*
%TO.C,C14*%
X65915000Y-125589420D02*
X65915000Y-125870580D01*
X64895000Y-125589420D02*
X64895000Y-125870580D01*
%TO.C,R63*%
X107202500Y-105807742D02*
X107202500Y-106282258D01*
X106157500Y-105807742D02*
X106157500Y-106282258D01*
%TO.C,C26*%
X99835580Y-103380000D02*
X99554420Y-103380000D01*
X99835580Y-102360000D02*
X99554420Y-102360000D01*
%TO.C,J1*%
X103865000Y-115870000D02*
X103865000Y-115020000D01*
X103865000Y-115020000D02*
X112035000Y-115020000D01*
X112035000Y-115020000D02*
X112035000Y-115870000D01*
X112035000Y-120240000D02*
X109710000Y-120240000D01*
X106190000Y-120240000D02*
X106190000Y-122630000D01*
X103865000Y-120240000D02*
X106190000Y-120240000D01*
X112035000Y-119390000D02*
X112035000Y-120240000D01*
X103865000Y-119390000D02*
X103865000Y-120240000D01*
%TO.C,U5*%
X86805000Y-135870000D02*
X83355000Y-135870000D01*
X86805000Y-135870000D02*
X88755000Y-135870000D01*
X86805000Y-140990000D02*
X84855000Y-140990000D01*
X86805000Y-140990000D02*
X88755000Y-140990000D01*
%TO.C,C32*%
X111298080Y-103410000D02*
X111016920Y-103410000D01*
X111298080Y-104430000D02*
X111016920Y-104430000D01*
%TO.C,R57*%
X96917742Y-112917500D02*
X97392258Y-112917500D01*
X96917742Y-111872500D02*
X97392258Y-111872500D01*
%TO.C,J6*%
X122550000Y-139925000D02*
X124875000Y-139925000D01*
X122550000Y-139075000D02*
X122550000Y-139925000D01*
X132720000Y-139075000D02*
X132720000Y-139925000D01*
X122550000Y-135555000D02*
X122550000Y-134705000D01*
X124875000Y-139925000D02*
X124875000Y-142315000D01*
X132720000Y-134705000D02*
X132720000Y-135555000D01*
X122550000Y-134705000D02*
X132720000Y-134705000D01*
X132720000Y-139925000D02*
X130395000Y-139925000D01*
%TO.C,R1*%
X131842742Y-113777500D02*
X132317258Y-113777500D01*
X131842742Y-114822500D02*
X132317258Y-114822500D01*
%TO.C,C22*%
X65530000Y-105269420D02*
X65530000Y-105550580D01*
X66550000Y-105269420D02*
X66550000Y-105550580D01*
%TO.C,U8*%
X70485000Y-129560000D02*
X68535000Y-129560000D01*
X70485000Y-124440000D02*
X67035000Y-124440000D01*
X70485000Y-124440000D02*
X72435000Y-124440000D01*
X70485000Y-129560000D02*
X72435000Y-129560000D01*
%TO.C,R47*%
X89422500Y-114697742D02*
X89422500Y-115172258D01*
X88377500Y-114697742D02*
X88377500Y-115172258D01*
%TO.C,C31*%
X99185000Y-111900580D02*
X99185000Y-111619420D01*
X100205000Y-111900580D02*
X100205000Y-111619420D01*
%TO.C,C2*%
X100189420Y-143635000D02*
X100470580Y-143635000D01*
X100189420Y-144655000D02*
X100470580Y-144655000D01*
%TO.C,R5*%
X97882064Y-152760000D02*
X96427936Y-152760000D01*
X97882064Y-154580000D02*
X96427936Y-154580000D01*
%TO.C,R40*%
X89932742Y-118857500D02*
X90407258Y-118857500D01*
X89932742Y-119902500D02*
X90407258Y-119902500D01*
%TO.C,R23*%
X90186742Y-125715500D02*
X90661258Y-125715500D01*
X90186742Y-126760500D02*
X90661258Y-126760500D01*
%TO.C,J15*%
X54570000Y-92860000D02*
X60040000Y-92860000D01*
X46640000Y-92860000D02*
X51110000Y-92860000D01*
X60040000Y-105260000D02*
X54570000Y-105260000D01*
X54640000Y-105870000D02*
X55140000Y-105370000D01*
X60040000Y-92860000D02*
X60040000Y-105260000D01*
X55140000Y-105370000D02*
X55640000Y-105870000D01*
X46640000Y-105260000D02*
X46640000Y-92860000D01*
X46640000Y-105260000D02*
X51110000Y-105260000D01*
X55640000Y-105870000D02*
X54640000Y-105870000D01*
%TO.C,C28*%
X103999420Y-97915000D02*
X104280580Y-97915000D01*
X103999420Y-98935000D02*
X104280580Y-98935000D01*
%TO.C,C4*%
X86524420Y-141730000D02*
X86805580Y-141730000D01*
X86524420Y-142750000D02*
X86805580Y-142750000D01*
%TO.C,J4*%
X134615000Y-139075000D02*
X134615000Y-139925000D01*
X134615000Y-134705000D02*
X144785000Y-134705000D01*
X144785000Y-139075000D02*
X144785000Y-139925000D01*
X134615000Y-135555000D02*
X134615000Y-134705000D01*
X134615000Y-139925000D02*
X136940000Y-139925000D01*
X144785000Y-134705000D02*
X144785000Y-135555000D01*
X144785000Y-139925000D02*
X142460000Y-139925000D01*
X136940000Y-139925000D02*
X136940000Y-142315000D01*
%TO.C,R19*%
X90186742Y-128665500D02*
X90661258Y-128665500D01*
X90186742Y-127620500D02*
X90661258Y-127620500D01*
%TO.C,J13*%
X55140000Y-138390000D02*
X55640000Y-138890000D01*
X46640000Y-138280000D02*
X46640000Y-125880000D01*
X60040000Y-138280000D02*
X54570000Y-138280000D01*
X46640000Y-138280000D02*
X51110000Y-138280000D01*
X54640000Y-138890000D02*
X55140000Y-138390000D01*
X55640000Y-138890000D02*
X54640000Y-138890000D01*
X60040000Y-125880000D02*
X60040000Y-138280000D01*
X54570000Y-125880000D02*
X60040000Y-125880000D01*
X46640000Y-125880000D02*
X51110000Y-125880000D01*
%TO.C,R42*%
X81517258Y-118857500D02*
X81042742Y-118857500D01*
X81517258Y-119902500D02*
X81042742Y-119902500D01*
%TO.C,J8*%
X132625000Y-148862000D02*
X132625000Y-149712000D01*
X122455000Y-145342000D02*
X122455000Y-144492000D01*
X122455000Y-148862000D02*
X122455000Y-149712000D01*
X122455000Y-144492000D02*
X132625000Y-144492000D01*
X132625000Y-149712000D02*
X130300000Y-149712000D01*
X124780000Y-149712000D02*
X124780000Y-152102000D01*
X132625000Y-144492000D02*
X132625000Y-145342000D01*
X122455000Y-149712000D02*
X124780000Y-149712000D01*
%TO.C,U1*%
X96230000Y-120650000D02*
X96230000Y-121300000D01*
X99350000Y-120650000D02*
X99350000Y-118975000D01*
X96230000Y-120650000D02*
X96230000Y-120000000D01*
X99350000Y-120650000D02*
X99350000Y-121300000D01*
%TO.C,U12*%
X99695000Y-109240000D02*
X101645000Y-109240000D01*
X99695000Y-109240000D02*
X97745000Y-109240000D01*
X99695000Y-104120000D02*
X96245000Y-104120000D01*
X99695000Y-104120000D02*
X101645000Y-104120000D01*
%TO.C,C15*%
X83564000Y-124827420D02*
X83564000Y-125108580D01*
X84584000Y-124827420D02*
X84584000Y-125108580D01*
%TO.C,J7*%
X134615000Y-144484000D02*
X144785000Y-144484000D01*
X134615000Y-148854000D02*
X134615000Y-149704000D01*
X134615000Y-145334000D02*
X134615000Y-144484000D01*
X144785000Y-148854000D02*
X144785000Y-149704000D01*
X134615000Y-149704000D02*
X136940000Y-149704000D01*
X144785000Y-144484000D02*
X144785000Y-145334000D01*
X144785000Y-149704000D02*
X142460000Y-149704000D01*
X136940000Y-149704000D02*
X136940000Y-152094000D01*
%TO.C,U10*%
X70485000Y-120180000D02*
X72435000Y-120180000D01*
X70485000Y-120180000D02*
X68535000Y-120180000D01*
X70485000Y-115060000D02*
X72435000Y-115060000D01*
X70485000Y-115060000D02*
X67035000Y-115060000D01*
%TO.C,R3*%
X105807742Y-139812500D02*
X106282258Y-139812500D01*
X105807742Y-140857500D02*
X106282258Y-140857500D01*
%TO.C,J18*%
X140740000Y-99310000D02*
X140740000Y-91210000D01*
X143740000Y-91210000D02*
X143740000Y-99310000D01*
X140740000Y-99310000D02*
X143740000Y-99310000D01*
X143740000Y-91210000D02*
X140740000Y-91210000D01*
%TO.C,J11*%
X75790000Y-158465000D02*
X63390000Y-158465000D01*
X75900000Y-149965000D02*
X76400000Y-149465000D01*
X63390000Y-158465000D02*
X63390000Y-153995000D01*
X63390000Y-145065000D02*
X75790000Y-145065000D01*
X63390000Y-150535000D02*
X63390000Y-145065000D01*
X76400000Y-150465000D02*
X75900000Y-149965000D01*
X75790000Y-158465000D02*
X75790000Y-153995000D01*
X75790000Y-145065000D02*
X75790000Y-150535000D01*
X76400000Y-149465000D02*
X76400000Y-150465000D01*
%TO.C,C1*%
X100455000Y-120509420D02*
X100455000Y-120790580D01*
X101475000Y-120509420D02*
X101475000Y-120790580D01*
%TO.C,R11*%
X98187742Y-135142500D02*
X98662258Y-135142500D01*
X98187742Y-134097500D02*
X98662258Y-134097500D01*
%TO.C,U6*%
X84074000Y-131973000D02*
X82124000Y-131973000D01*
X84074000Y-131973000D02*
X87524000Y-131973000D01*
X84074000Y-126853000D02*
X86024000Y-126853000D01*
X84074000Y-126853000D02*
X82124000Y-126853000D01*
%TO.C,R55*%
X94217258Y-109332500D02*
X93742742Y-109332500D01*
X94217258Y-110377500D02*
X93742742Y-110377500D01*
%TO.C,C21*%
X64895000Y-116209420D02*
X64895000Y-116490580D01*
X65915000Y-116209420D02*
X65915000Y-116490580D01*
%TO.C,R2*%
X99932258Y-116952500D02*
X99457742Y-116952500D01*
X99932258Y-117997500D02*
X99457742Y-117997500D01*
%TO.C,R52*%
X105807742Y-109107500D02*
X106282258Y-109107500D01*
X105807742Y-108062500D02*
X106282258Y-108062500D01*
%TO.C,R45*%
X76312500Y-114697742D02*
X76312500Y-115172258D01*
X77357500Y-114697742D02*
X77357500Y-115172258D01*
%TO.C,U3*%
X100330000Y-142895000D02*
X103780000Y-142895000D01*
X100330000Y-137775000D02*
X102280000Y-137775000D01*
X100330000Y-137775000D02*
X98380000Y-137775000D01*
X100330000Y-142895000D02*
X98380000Y-142895000D01*
%TO.C,R60*%
X101997742Y-109967500D02*
X102472258Y-109967500D01*
X101997742Y-111012500D02*
X102472258Y-111012500D01*
%TO.C,U11*%
X71120000Y-109240000D02*
X73070000Y-109240000D01*
X71120000Y-104120000D02*
X73070000Y-104120000D01*
X71120000Y-104120000D02*
X67670000Y-104120000D01*
X71120000Y-109240000D02*
X69170000Y-109240000D01*
%TO.C,R6*%
X81042064Y-141245000D02*
X79587936Y-141245000D01*
X81042064Y-139425000D02*
X79587936Y-139425000D01*
%TO.C,D1*%
X107060000Y-131130000D02*
X107060000Y-125730000D01*
X103760000Y-131130000D02*
X103760000Y-125730000D01*
X103760000Y-131130000D02*
X107060000Y-131130000D01*
%TO.C,C9*%
X120541920Y-98965000D02*
X120823080Y-98965000D01*
X120541920Y-99985000D02*
X120823080Y-99985000D01*
%TO.C,U4*%
X103505000Y-154325000D02*
X105455000Y-154325000D01*
X103505000Y-149205000D02*
X100055000Y-149205000D01*
X103505000Y-149205000D02*
X105455000Y-149205000D01*
X103505000Y-154325000D02*
X101555000Y-154325000D01*
%TO.C,R48*%
X90282500Y-114697742D02*
X90282500Y-115172258D01*
X91327500Y-114697742D02*
X91327500Y-115172258D01*
%TO.C,J16*%
X63650000Y-87915000D02*
X76050000Y-87915000D01*
X76050000Y-101315000D02*
X63650000Y-101315000D01*
X76050000Y-95845000D02*
X76050000Y-101315000D01*
X63040000Y-96915000D02*
X63040000Y-95915000D01*
X63040000Y-95915000D02*
X63540000Y-96415000D01*
X63540000Y-96415000D02*
X63040000Y-96915000D01*
X63650000Y-87915000D02*
X63650000Y-92385000D01*
X63650000Y-101315000D02*
X63650000Y-95845000D01*
X76050000Y-87915000D02*
X76050000Y-92385000D01*
%TO.C,C11*%
X70814420Y-141730000D02*
X71095580Y-141730000D01*
X70814420Y-142750000D02*
X71095580Y-142750000D01*
%TO.C,R31*%
X78471500Y-129650258D02*
X78471500Y-129175742D01*
X79516500Y-129650258D02*
X79516500Y-129175742D01*
%TO.C,U14*%
X104140000Y-92055000D02*
X100690000Y-92055000D01*
X104140000Y-97175000D02*
X106090000Y-97175000D01*
X104140000Y-92055000D02*
X106090000Y-92055000D01*
X104140000Y-97175000D02*
X102190000Y-97175000D01*
%TO.C,R49*%
X79137742Y-112282500D02*
X79612258Y-112282500D01*
X79137742Y-111237500D02*
X79612258Y-111237500D01*
%TD*%
M02*
