%TF.GenerationSoftware,KiCad,Pcbnew,(6.0.9)*%
%TF.CreationDate,2022-12-08T20:01:15+01:00*%
%TF.ProjectId,floor-heating-controller-s2,666c6f6f-722d-4686-9561-74696e672d63,1*%
%TF.SameCoordinates,Original*%
%TF.FileFunction,Soldermask,Bot*%
%TF.FilePolarity,Negative*%
%FSLAX46Y46*%
G04 Gerber Fmt 4.6, Leading zero omitted, Abs format (unit mm)*
G04 Created by KiCad (PCBNEW (6.0.9)) date 2022-12-08 20:01:15*
%MOMM*%
%LPD*%
G01*
G04 APERTURE LIST*
G04 Aperture macros list*
%AMRoundRect*
0 Rectangle with rounded corners*
0 $1 Rounding radius*
0 $2 $3 $4 $5 $6 $7 $8 $9 X,Y pos of 4 corners*
0 Add a 4 corners polygon primitive as box body*
4,1,4,$2,$3,$4,$5,$6,$7,$8,$9,$2,$3,0*
0 Add four circle primitives for the rounded corners*
1,1,$1+$1,$2,$3*
1,1,$1+$1,$4,$5*
1,1,$1+$1,$6,$7*
1,1,$1+$1,$8,$9*
0 Add four rect primitives between the rounded corners*
20,1,$1+$1,$2,$3,$4,$5,0*
20,1,$1+$1,$4,$5,$6,$7,0*
20,1,$1+$1,$6,$7,$8,$9,0*
20,1,$1+$1,$8,$9,$2,$3,0*%
%AMFreePoly0*
4,1,19,-0.850000,0.510000,-0.510000,0.850000,0.255000,0.850000,0.408997,0.829726,0.552500,0.770285,0.675729,0.675729,0.770285,0.552500,0.829726,0.408997,0.850000,0.255000,0.850000,-0.510000,0.510000,-0.850000,-0.255000,-0.850000,-0.408997,-0.829726,-0.552500,-0.770285,-0.675729,-0.675729,-0.770285,-0.552500,-0.829726,-0.408997,-0.850000,-0.255000,-0.850000,0.510000,-0.850000,0.510000,
$1*%
G04 Aperture macros list end*
%ADD10C,2.300000*%
%ADD11R,1.500000X1.500000*%
%ADD12C,1.500000*%
%ADD13FreePoly0,0.000000*%
%ADD14C,1.700000*%
%ADD15RoundRect,0.650000X-0.650000X0.650000X-0.650000X-0.650000X0.650000X-0.650000X0.650000X0.650000X0*%
%ADD16C,2.600000*%
G04 APERTURE END LIST*
D10*
%TO.C,J14*%
X52840000Y-121570000D03*
X52840000Y-109570000D03*
D11*
X55140000Y-117100000D03*
D12*
X57680000Y-116080000D03*
X55140000Y-115060000D03*
X57680000Y-114040000D03*
%TD*%
D13*
%TO.C,U2*%
X114817500Y-96465000D03*
D14*
X114817500Y-99005000D03*
X114817500Y-101545000D03*
X114817500Y-104085000D03*
X114817500Y-106625000D03*
X114817500Y-109165000D03*
X114817500Y-111705000D03*
X114817500Y-114245000D03*
X137677500Y-114245000D03*
X137677500Y-111705000D03*
X137677500Y-109165000D03*
X137677500Y-106625000D03*
X137677500Y-104085000D03*
X137677500Y-101545000D03*
X137677500Y-99005000D03*
X137677500Y-96465000D03*
X117357500Y-96465000D03*
X117357500Y-99005000D03*
X117357500Y-101545000D03*
X117357500Y-104085000D03*
X117357500Y-106625000D03*
X117357500Y-109165000D03*
X117357500Y-111705000D03*
X117357500Y-114245000D03*
X135137500Y-114245000D03*
X135137500Y-111705000D03*
X135137500Y-109165000D03*
X135137500Y-106625000D03*
X135137500Y-104085000D03*
X135137500Y-101545000D03*
X135137500Y-99005000D03*
X135137500Y-96465000D03*
%TD*%
D10*
%TO.C,J10*%
X92360000Y-152265000D03*
X80360000Y-152265000D03*
D11*
X87890000Y-149965000D03*
D12*
X86870000Y-147425000D03*
X85850000Y-149965000D03*
X84830000Y-147425000D03*
%TD*%
D10*
%TO.C,J17*%
X80360000Y-94115000D03*
X92360000Y-94115000D03*
D11*
X84830000Y-96415000D03*
D12*
X85850000Y-98955000D03*
X86870000Y-96415000D03*
X87890000Y-98955000D03*
%TD*%
D10*
%TO.C,J12*%
X52840000Y-142330000D03*
X52840000Y-154330000D03*
D11*
X55140000Y-149860000D03*
D12*
X57680000Y-148840000D03*
X55140000Y-147820000D03*
X57680000Y-146800000D03*
%TD*%
D10*
%TO.C,J15*%
X52840000Y-105060000D03*
X52840000Y-93060000D03*
D11*
X55140000Y-100590000D03*
D12*
X57680000Y-99570000D03*
X55140000Y-98550000D03*
X57680000Y-97530000D03*
%TD*%
D10*
%TO.C,J13*%
X52840000Y-126080000D03*
X52840000Y-138080000D03*
D11*
X55140000Y-133610000D03*
D12*
X57680000Y-132590000D03*
X55140000Y-131570000D03*
X57680000Y-130550000D03*
%TD*%
D15*
%TO.C,J18*%
X142240000Y-92710000D03*
D16*
X142240000Y-97790000D03*
%TD*%
D10*
%TO.C,J11*%
X63590000Y-152265000D03*
X75590000Y-152265000D03*
D11*
X71120000Y-149965000D03*
D12*
X70100000Y-147425000D03*
X69080000Y-149965000D03*
X68060000Y-147425000D03*
%TD*%
D10*
%TO.C,J16*%
X75850000Y-94115000D03*
X63850000Y-94115000D03*
D11*
X68320000Y-96415000D03*
D12*
X69340000Y-98955000D03*
X70360000Y-96415000D03*
X71380000Y-98955000D03*
%TD*%
M02*
