%TF.GenerationSoftware,KiCad,Pcbnew,(6.0.9)*%
%TF.CreationDate,2022-12-08T20:01:21+01:00*%
%TF.ProjectId,floor-heating-controller-s2,666c6f6f-722d-4686-9561-74696e672d63,1*%
%TF.SameCoordinates,Original*%
%TF.FileFunction,Drillmap*%
%TF.FilePolarity,Positive*%
%FSLAX45Y45*%
G04 Gerber Fmt 4.5, Leading zero omitted, Abs format (unit mm)*
G04 Created by KiCad (PCBNEW (6.0.9)) date 2022-12-08 20:01:21*
%MOMM*%
%LPD*%
G01*
G04 APERTURE LIST*
%ADD10C,0.100000*%
%ADD11C,0.200000*%
%ADD12C,0.033020*%
%ADD13C,0.040000*%
%ADD14C,0.090000*%
%ADD15C,0.130000*%
G04 APERTURE END LIST*
D10*
X14668500Y-15684500D02*
X14668500Y-9017000D01*
X14668500Y-9017000D02*
X4889500Y-9017000D01*
X4889500Y-15684500D02*
X14668500Y-15684500D01*
X4889500Y-9017000D02*
X4889500Y-15684500D01*
D11*
D12*
X6396990Y-10968990D02*
X6430010Y-11002010D01*
X6430010Y-10968990D02*
X6396990Y-11002010D01*
X6536690Y-10968990D02*
X6569710Y-11002010D01*
X6569710Y-10968990D02*
X6536690Y-11002010D01*
X7882890Y-10880090D02*
X7915910Y-10913110D01*
X7915910Y-10880090D02*
X7882890Y-10913110D01*
X7920990Y-11045190D02*
X7954010Y-11078210D01*
X7954010Y-11045190D02*
X7920990Y-11078210D01*
X7997190Y-10892790D02*
X8030210Y-10925810D01*
X8030210Y-10892790D02*
X7997190Y-10925810D01*
X8098790Y-13420090D02*
X8131810Y-13453110D01*
X8131810Y-13420090D02*
X8098790Y-13453110D01*
X8390890Y-12670790D02*
X8423910Y-12703810D01*
X8423910Y-12670790D02*
X8390890Y-12703810D01*
X8962390Y-10549890D02*
X8995410Y-10582910D01*
X8995410Y-10549890D02*
X8962390Y-10582910D01*
X8962390Y-10664190D02*
X8995410Y-10697210D01*
X8995410Y-10664190D02*
X8962390Y-10697210D01*
X9025890Y-13508990D02*
X9058910Y-13542010D01*
X9058910Y-13508990D02*
X9025890Y-13542010D01*
X9063990Y-13381990D02*
X9097010Y-13415010D01*
X9097010Y-13381990D02*
X9063990Y-13415010D01*
X9152890Y-10892790D02*
X9185910Y-10925810D01*
X9185910Y-10892790D02*
X9152890Y-10925810D01*
X9195062Y-10998462D02*
X9228082Y-11031482D01*
X9228082Y-10998462D02*
X9195062Y-11031482D01*
X9204329Y-11557050D02*
X9237349Y-11590070D01*
X9237349Y-11557050D02*
X9204329Y-11590070D01*
X9330690Y-11616690D02*
X9363710Y-11649710D01*
X9363710Y-11616690D02*
X9330690Y-11649710D01*
X9559290Y-12073890D02*
X9592310Y-12106910D01*
X9592310Y-12073890D02*
X9559290Y-12106910D01*
X9711690Y-9724390D02*
X9744710Y-9757410D01*
X9744710Y-9724390D02*
X9711690Y-9757410D01*
X9861142Y-9725998D02*
X9894162Y-9759018D01*
X9894162Y-9725998D02*
X9861142Y-9759018D01*
X9864090Y-11388090D02*
X9897110Y-11421110D01*
X9897110Y-11388090D02*
X9864090Y-11421110D01*
X9889490Y-10143490D02*
X9922510Y-10176510D01*
X9922510Y-10143490D02*
X9889490Y-10176510D01*
X10029190Y-10143490D02*
X10062210Y-10176510D01*
X10062210Y-10143490D02*
X10029190Y-10176510D01*
X10206990Y-13585190D02*
X10240010Y-13618210D01*
X10240010Y-13585190D02*
X10206990Y-13618210D01*
X10651490Y-14804390D02*
X10684510Y-14837410D01*
X10684510Y-14804390D02*
X10651490Y-14837410D01*
X10714990Y-14728190D02*
X10748010Y-14761210D01*
X10748010Y-14728190D02*
X10714990Y-14761210D01*
X10782350Y-10397490D02*
X10815370Y-10430510D01*
X10815370Y-10397490D02*
X10782350Y-10430510D01*
X10854051Y-10330130D02*
X10887071Y-10363150D01*
X10887071Y-10330130D02*
X10854051Y-10363150D01*
X10892790Y-9864090D02*
X10925810Y-9897110D01*
X10925810Y-9864090D02*
X10892790Y-9897110D01*
X10892790Y-10118090D02*
X10925810Y-10151110D01*
X10925810Y-10118090D02*
X10892790Y-10151110D01*
X11210290Y-12543790D02*
X11243310Y-12576810D01*
X11243310Y-12543790D02*
X11210290Y-12576810D01*
X11222990Y-12302490D02*
X11256010Y-12335510D01*
X11256010Y-12302490D02*
X11222990Y-12335510D01*
X11311890Y-12289790D02*
X11344910Y-12322810D01*
X11344910Y-12289790D02*
X11311890Y-12322810D01*
X12111990Y-12404090D02*
X12145010Y-12437110D01*
X12145010Y-12404090D02*
X12111990Y-12437110D01*
X12150090Y-12251690D02*
X12183110Y-12284710D01*
X12183110Y-12251690D02*
X12150090Y-12284710D01*
X12264390Y-9673590D02*
X12297410Y-9706610D01*
X12297410Y-9673590D02*
X12264390Y-9706610D01*
X12264390Y-9927590D02*
X12297410Y-9960610D01*
X12297410Y-9927590D02*
X12264390Y-9960610D01*
X12264390Y-10448290D02*
X12297410Y-10481310D01*
X12297410Y-10448290D02*
X12264390Y-10481310D01*
X12264390Y-10689590D02*
X12297410Y-10722610D01*
X12297410Y-10689590D02*
X12264390Y-10722610D01*
X12414512Y-11906512D02*
X12447532Y-11939532D01*
X12447532Y-11906512D02*
X12414512Y-11939532D01*
X12433350Y-11222351D02*
X12466370Y-11255371D01*
X12466370Y-11222351D02*
X12433350Y-11255371D01*
X12442190Y-10308590D02*
X12475210Y-10341610D01*
X12475210Y-10308590D02*
X12442190Y-10341610D01*
D13*
X6370000Y-12750800D02*
G75*
G03*
X6370000Y-12750800I-20000J0D01*
G01*
X6370000Y-13868400D02*
G75*
G03*
X6370000Y-13868400I-20000J0D01*
G01*
X6378270Y-11878868D02*
G75*
G03*
X6378270Y-11878868I-20000J0D01*
G01*
X6512396Y-11803868D02*
G75*
G03*
X6512396Y-11803868I-20000J0D01*
G01*
X6515639Y-12749435D02*
G75*
G03*
X6515639Y-12749435I-20000J0D01*
G01*
X6551242Y-13895009D02*
G75*
G03*
X6551242Y-13895009I-20000J0D01*
G01*
X6827200Y-11074400D02*
G75*
G03*
X6827200Y-11074400I-20000J0D01*
G01*
X6827200Y-12090400D02*
G75*
G03*
X6827200Y-12090400I-20000J0D01*
G01*
X6827200Y-12192000D02*
G75*
G03*
X6827200Y-12192000I-20000J0D01*
G01*
X6878000Y-13055600D02*
G75*
G03*
X6878000Y-13055600I-20000J0D01*
G01*
X6878000Y-13157200D02*
G75*
G03*
X6878000Y-13157200I-20000J0D01*
G01*
X6878000Y-14224000D02*
G75*
G03*
X6878000Y-14224000I-20000J0D01*
G01*
X6878000Y-14325600D02*
G75*
G03*
X6878000Y-14325600I-20000J0D01*
G01*
X6928800Y-11074400D02*
G75*
G03*
X6928800Y-11074400I-20000J0D01*
G01*
X7284400Y-12090400D02*
G75*
G03*
X7284400Y-12090400I-20000J0D01*
G01*
X7284400Y-12192000D02*
G75*
G03*
X7284400Y-12192000I-20000J0D01*
G01*
X7284400Y-13055600D02*
G75*
G03*
X7284400Y-13055600I-20000J0D01*
G01*
X7284400Y-13157200D02*
G75*
G03*
X7284400Y-13157200I-20000J0D01*
G01*
X7335200Y-11074400D02*
G75*
G03*
X7335200Y-11074400I-20000J0D01*
G01*
X7335200Y-14224000D02*
G75*
G03*
X7335200Y-14224000I-20000J0D01*
G01*
X7335200Y-14325600D02*
G75*
G03*
X7335200Y-14325600I-20000J0D01*
G01*
X7436800Y-11074400D02*
G75*
G03*
X7436800Y-11074400I-20000J0D01*
G01*
X7436800Y-12293600D02*
G75*
G03*
X7436800Y-12293600I-20000J0D01*
G01*
X7487170Y-11786030D02*
G75*
G03*
X7487170Y-11786030I-20000J0D01*
G01*
X7487600Y-11684000D02*
G75*
G03*
X7487600Y-11684000I-20000J0D01*
G01*
X7538400Y-11938000D02*
G75*
G03*
X7538400Y-11938000I-20000J0D01*
G01*
X7538400Y-12039600D02*
G75*
G03*
X7538400Y-12039600I-20000J0D01*
G01*
X7538400Y-12366050D02*
G75*
G03*
X7538400Y-12366050I-20000J0D01*
G01*
X7538400Y-13512800D02*
G75*
G03*
X7538400Y-13512800I-20000J0D01*
G01*
X7589200Y-10617200D02*
G75*
G03*
X7589200Y-10617200I-20000J0D01*
G01*
X7589200Y-10769600D02*
G75*
G03*
X7589200Y-10769600I-20000J0D01*
G01*
X7589200Y-12649200D02*
G75*
G03*
X7589200Y-12649200I-20000J0D01*
G01*
X7610850Y-12540872D02*
G75*
G03*
X7610850Y-12540872I-20000J0D01*
G01*
X7640430Y-13513230D02*
G75*
G03*
X7640430Y-13513230I-20000J0D01*
G01*
X7944800Y-13868400D02*
G75*
G03*
X7944800Y-13868400I-20000J0D01*
G01*
X8097200Y-13970000D02*
G75*
G03*
X8097200Y-13970000I-20000J0D01*
G01*
X8198800Y-11176000D02*
G75*
G03*
X8198800Y-11176000I-20000J0D01*
G01*
X8300400Y-13462000D02*
G75*
G03*
X8300400Y-13462000I-20000J0D01*
G01*
X8313100Y-10972800D02*
G75*
G03*
X8313100Y-10972800I-20000J0D01*
G01*
X8338500Y-14224000D02*
G75*
G03*
X8338500Y-14224000I-20000J0D01*
G01*
X8414700Y-10972800D02*
G75*
G03*
X8414700Y-10972800I-20000J0D01*
G01*
X8465500Y-14224000D02*
G75*
G03*
X8465500Y-14224000I-20000J0D01*
G01*
X8503600Y-13462000D02*
G75*
G03*
X8503600Y-13462000I-20000J0D01*
G01*
X8605082Y-11177850D02*
G75*
G03*
X8605082Y-11177850I-20000J0D01*
G01*
X8770300Y-10972800D02*
G75*
G03*
X8770300Y-10972800I-20000J0D01*
G01*
X8871900Y-10972800D02*
G75*
G03*
X8871900Y-10972800I-20000J0D01*
G01*
X8910000Y-14224000D02*
G75*
G03*
X8910000Y-14224000I-20000J0D01*
G01*
X9062400Y-14224000D02*
G75*
G03*
X9062400Y-14224000I-20000J0D01*
G01*
X9265600Y-12649200D02*
G75*
G03*
X9265600Y-12649200I-20000J0D01*
G01*
X9265600Y-12801600D02*
G75*
G03*
X9265600Y-12801600I-20000J0D01*
G01*
X9265600Y-13563600D02*
G75*
G03*
X9265600Y-13563600I-20000J0D01*
G01*
X9265600Y-13766800D02*
G75*
G03*
X9265600Y-13766800I-20000J0D01*
G01*
X9672000Y-15494000D02*
G75*
G03*
X9672000Y-15494000I-20000J0D01*
G01*
X9799000Y-15494000D02*
G75*
G03*
X9799000Y-15494000I-20000J0D01*
G01*
X9926000Y-14541500D02*
G75*
G03*
X9926000Y-14541500I-20000J0D01*
G01*
X10053000Y-15557500D02*
G75*
G03*
X10053000Y-15557500I-20000J0D01*
G01*
X10154600Y-9842500D02*
G75*
G03*
X10154600Y-9842500I-20000J0D01*
G01*
X10180000Y-14541500D02*
G75*
G03*
X10180000Y-14541500I-20000J0D01*
G01*
X10180000Y-15557500D02*
G75*
G03*
X10180000Y-15557500I-20000J0D01*
G01*
X10228950Y-12001500D02*
G75*
G03*
X10228950Y-12001500I-20000J0D01*
G01*
X10228950Y-12192000D02*
G75*
G03*
X10228950Y-12192000I-20000J0D01*
G01*
X10256200Y-9842500D02*
G75*
G03*
X10256200Y-9842500I-20000J0D01*
G01*
X10434000Y-12827000D02*
G75*
G03*
X10434000Y-12827000I-20000J0D01*
G01*
X10434000Y-13208000D02*
G75*
G03*
X10434000Y-13208000I-20000J0D01*
G01*
X10561000Y-15557500D02*
G75*
G03*
X10561000Y-15557500I-20000J0D01*
G01*
X10637200Y-9842500D02*
G75*
G03*
X10637200Y-9842500I-20000J0D01*
G01*
X10688000Y-15557500D02*
G75*
G03*
X10688000Y-15557500I-20000J0D01*
G01*
X10751500Y-9842500D02*
G75*
G03*
X10751500Y-9842500I-20000J0D01*
G01*
X10751500Y-12827000D02*
G75*
G03*
X10751500Y-12827000I-20000J0D01*
G01*
X10751500Y-13208000D02*
G75*
G03*
X10751500Y-13208000I-20000J0D01*
G01*
X10815000Y-13843000D02*
G75*
G03*
X10815000Y-13843000I-20000J0D01*
G01*
X10815000Y-14033500D02*
G75*
G03*
X10815000Y-14033500I-20000J0D01*
G01*
X10880350Y-11493500D02*
G75*
G03*
X10880350Y-11493500I-20000J0D01*
G01*
X11196000Y-11493500D02*
G75*
G03*
X11196000Y-11493500I-20000J0D01*
G01*
X11386500Y-14351000D02*
G75*
G03*
X11386500Y-14351000I-20000J0D01*
G01*
X11551386Y-12242154D02*
G75*
G03*
X11551386Y-12242154I-20000J0D01*
G01*
X11704000Y-12192000D02*
G75*
G03*
X11704000Y-12192000I-20000J0D01*
G01*
X11767500Y-14414500D02*
G75*
G03*
X11767500Y-14414500I-20000J0D01*
G01*
X11777000Y-13452500D02*
G75*
G03*
X11777000Y-13452500I-20000J0D01*
G01*
X12593000Y-14351000D02*
G75*
G03*
X12593000Y-14351000I-20000J0D01*
G01*
X12974000Y-14414500D02*
G75*
G03*
X12974000Y-14414500I-20000J0D01*
G01*
X12983500Y-13452500D02*
G75*
G03*
X12983500Y-13452500I-20000J0D01*
G01*
X13003150Y-11384559D02*
G75*
G03*
X13003150Y-11384559I-20000J0D01*
G01*
X13799500Y-14478000D02*
G75*
G03*
X13799500Y-14478000I-20000J0D01*
G01*
X14180500Y-14478000D02*
G75*
G03*
X14180500Y-14478000I-20000J0D01*
G01*
X14434500Y-13970000D02*
G75*
G03*
X14434500Y-13970000I-20000J0D01*
G01*
D14*
X5514000Y-9810000D02*
X5514000Y-9900000D01*
X5469000Y-9855000D02*
X5559000Y-9855000D01*
X5514000Y-10014000D02*
X5514000Y-10104000D01*
X5469000Y-10059000D02*
X5559000Y-10059000D01*
X5514000Y-11461000D02*
X5514000Y-11551000D01*
X5469000Y-11506000D02*
X5559000Y-11506000D01*
X5514000Y-11665000D02*
X5514000Y-11755000D01*
X5469000Y-11710000D02*
X5559000Y-11710000D01*
X5514000Y-13112000D02*
X5514000Y-13202000D01*
X5469000Y-13157000D02*
X5559000Y-13157000D01*
X5514000Y-13316000D02*
X5514000Y-13406000D01*
X5469000Y-13361000D02*
X5559000Y-13361000D01*
X5514000Y-14737000D02*
X5514000Y-14827000D01*
X5469000Y-14782000D02*
X5559000Y-14782000D01*
X5514000Y-14941000D02*
X5514000Y-15031000D01*
X5469000Y-14986000D02*
X5559000Y-14986000D01*
X5768000Y-9708000D02*
X5768000Y-9798000D01*
X5723000Y-9753000D02*
X5813000Y-9753000D01*
X5768000Y-9912000D02*
X5768000Y-10002000D01*
X5723000Y-9957000D02*
X5813000Y-9957000D01*
X5768000Y-11359000D02*
X5768000Y-11449000D01*
X5723000Y-11404000D02*
X5813000Y-11404000D01*
X5768000Y-11563000D02*
X5768000Y-11653000D01*
X5723000Y-11608000D02*
X5813000Y-11608000D01*
X5768000Y-13010000D02*
X5768000Y-13100000D01*
X5723000Y-13055000D02*
X5813000Y-13055000D01*
X5768000Y-13214000D02*
X5768000Y-13304000D01*
X5723000Y-13259000D02*
X5813000Y-13259000D01*
X5768000Y-14635000D02*
X5768000Y-14725000D01*
X5723000Y-14680000D02*
X5813000Y-14680000D01*
X5768000Y-14839000D02*
X5768000Y-14929000D01*
X5723000Y-14884000D02*
X5813000Y-14884000D01*
X6806000Y-14697500D02*
X6806000Y-14787500D01*
X6761000Y-14742500D02*
X6851000Y-14742500D01*
X6832000Y-9596500D02*
X6832000Y-9686500D01*
X6787000Y-9641500D02*
X6877000Y-9641500D01*
X6908000Y-14951500D02*
X6908000Y-15041500D01*
X6863000Y-14996500D02*
X6953000Y-14996500D01*
X6934000Y-9850500D02*
X6934000Y-9940500D01*
X6889000Y-9895500D02*
X6979000Y-9895500D01*
X7010000Y-14697500D02*
X7010000Y-14787500D01*
X6965000Y-14742500D02*
X7055000Y-14742500D01*
X7036000Y-9596500D02*
X7036000Y-9686500D01*
X6991000Y-9641500D02*
X7081000Y-9641500D01*
X7112000Y-14951500D02*
X7112000Y-15041500D01*
X7067000Y-14996500D02*
X7157000Y-14996500D01*
X7138000Y-9850500D02*
X7138000Y-9940500D01*
X7093000Y-9895500D02*
X7183000Y-9895500D01*
X8483000Y-9596500D02*
X8483000Y-9686500D01*
X8438000Y-9641500D02*
X8528000Y-9641500D01*
X8483000Y-14697500D02*
X8483000Y-14787500D01*
X8438000Y-14742500D02*
X8528000Y-14742500D01*
X8585000Y-9850500D02*
X8585000Y-9940500D01*
X8540000Y-9895500D02*
X8630000Y-9895500D01*
X8585000Y-14951500D02*
X8585000Y-15041500D01*
X8540000Y-14996500D02*
X8630000Y-14996500D01*
X8687000Y-9596500D02*
X8687000Y-9686500D01*
X8642000Y-9641500D02*
X8732000Y-9641500D01*
X8687000Y-14697500D02*
X8687000Y-14787500D01*
X8642000Y-14742500D02*
X8732000Y-14742500D01*
X8789000Y-9850500D02*
X8789000Y-9940500D01*
X8744000Y-9895500D02*
X8834000Y-9895500D01*
X8789000Y-14951500D02*
X8789000Y-15041500D01*
X8744000Y-14996500D02*
X8834000Y-14996500D01*
D10*
X11517106Y-9681856D02*
X11517106Y-9611144D01*
X11446394Y-9611144D01*
X11446394Y-9681856D01*
X11517106Y-9681856D01*
X11517106Y-9935856D02*
X11517106Y-9865144D01*
X11446394Y-9865144D01*
X11446394Y-9935856D01*
X11517106Y-9935856D01*
X11517106Y-10189856D02*
X11517106Y-10119144D01*
X11446394Y-10119144D01*
X11446394Y-10189856D01*
X11517106Y-10189856D01*
X11517106Y-10443856D02*
X11517106Y-10373144D01*
X11446394Y-10373144D01*
X11446394Y-10443856D01*
X11517106Y-10443856D01*
X11517106Y-10697856D02*
X11517106Y-10627144D01*
X11446394Y-10627144D01*
X11446394Y-10697856D01*
X11517106Y-10697856D01*
X11517106Y-10951856D02*
X11517106Y-10881144D01*
X11446394Y-10881144D01*
X11446394Y-10951856D01*
X11517106Y-10951856D01*
X11517106Y-11205856D02*
X11517106Y-11135144D01*
X11446394Y-11135144D01*
X11446394Y-11205856D01*
X11517106Y-11205856D01*
X11517106Y-11459856D02*
X11517106Y-11389144D01*
X11446394Y-11389144D01*
X11446394Y-11459856D01*
X11517106Y-11459856D01*
X11771106Y-9681856D02*
X11771106Y-9611144D01*
X11700394Y-9611144D01*
X11700394Y-9681856D01*
X11771106Y-9681856D01*
X11771106Y-9935856D02*
X11771106Y-9865144D01*
X11700394Y-9865144D01*
X11700394Y-9935856D01*
X11771106Y-9935856D01*
X11771106Y-10189856D02*
X11771106Y-10119144D01*
X11700394Y-10119144D01*
X11700394Y-10189856D01*
X11771106Y-10189856D01*
X11771106Y-10443856D02*
X11771106Y-10373144D01*
X11700394Y-10373144D01*
X11700394Y-10443856D01*
X11771106Y-10443856D01*
X11771106Y-10697856D02*
X11771106Y-10627144D01*
X11700394Y-10627144D01*
X11700394Y-10697856D01*
X11771106Y-10697856D01*
X11771106Y-10951856D02*
X11771106Y-10881144D01*
X11700394Y-10881144D01*
X11700394Y-10951856D01*
X11771106Y-10951856D01*
X11771106Y-11205856D02*
X11771106Y-11135144D01*
X11700394Y-11135144D01*
X11700394Y-11205856D01*
X11771106Y-11205856D01*
X11771106Y-11459856D02*
X11771106Y-11389144D01*
X11700394Y-11389144D01*
X11700394Y-11459856D01*
X11771106Y-11459856D01*
X13549106Y-9681856D02*
X13549106Y-9611144D01*
X13478394Y-9611144D01*
X13478394Y-9681856D01*
X13549106Y-9681856D01*
X13549106Y-9935856D02*
X13549106Y-9865144D01*
X13478394Y-9865144D01*
X13478394Y-9935856D01*
X13549106Y-9935856D01*
X13549106Y-10189856D02*
X13549106Y-10119144D01*
X13478394Y-10119144D01*
X13478394Y-10189856D01*
X13549106Y-10189856D01*
X13549106Y-10443856D02*
X13549106Y-10373144D01*
X13478394Y-10373144D01*
X13478394Y-10443856D01*
X13549106Y-10443856D01*
X13549106Y-10697856D02*
X13549106Y-10627144D01*
X13478394Y-10627144D01*
X13478394Y-10697856D01*
X13549106Y-10697856D01*
X13549106Y-10951856D02*
X13549106Y-10881144D01*
X13478394Y-10881144D01*
X13478394Y-10951856D01*
X13549106Y-10951856D01*
X13549106Y-11205856D02*
X13549106Y-11135144D01*
X13478394Y-11135144D01*
X13478394Y-11205856D01*
X13549106Y-11205856D01*
X13549106Y-11459856D02*
X13549106Y-11389144D01*
X13478394Y-11389144D01*
X13478394Y-11459856D01*
X13549106Y-11459856D01*
X13803106Y-9681856D02*
X13803106Y-9611144D01*
X13732394Y-9611144D01*
X13732394Y-9681856D01*
X13803106Y-9681856D01*
X13803106Y-9935856D02*
X13803106Y-9865144D01*
X13732394Y-9865144D01*
X13732394Y-9935856D01*
X13803106Y-9935856D01*
X13803106Y-10189856D02*
X13803106Y-10119144D01*
X13732394Y-10119144D01*
X13732394Y-10189856D01*
X13803106Y-10189856D01*
X13803106Y-10443856D02*
X13803106Y-10373144D01*
X13732394Y-10373144D01*
X13732394Y-10443856D01*
X13803106Y-10443856D01*
X13803106Y-10697856D02*
X13803106Y-10627144D01*
X13732394Y-10627144D01*
X13732394Y-10697856D01*
X13803106Y-10697856D01*
X13803106Y-10951856D02*
X13803106Y-10881144D01*
X13732394Y-10881144D01*
X13732394Y-10951856D01*
X13803106Y-10951856D01*
X13803106Y-11205856D02*
X13803106Y-11135144D01*
X13732394Y-11135144D01*
X13732394Y-11205856D01*
X13803106Y-11205856D01*
X13803106Y-11459856D02*
X13803106Y-11389144D01*
X13732394Y-11389144D01*
X13732394Y-11459856D01*
X13803106Y-11459856D01*
D15*
X14224000Y-9336000D02*
X14289000Y-9271000D01*
X14224000Y-9206000D01*
X14159000Y-9271000D01*
X14224000Y-9336000D01*
X14224000Y-9844000D02*
X14289000Y-9779000D01*
X14224000Y-9714000D01*
X14159000Y-9779000D01*
X14224000Y-9844000D01*
D11*
X5142119Y-15999976D02*
X5142119Y-15799976D01*
X5189738Y-15799976D01*
X5218310Y-15809500D01*
X5237357Y-15828548D01*
X5246881Y-15847595D01*
X5256405Y-15885690D01*
X5256405Y-15914262D01*
X5246881Y-15952357D01*
X5237357Y-15971405D01*
X5218310Y-15990452D01*
X5189738Y-15999976D01*
X5142119Y-15999976D01*
X5342119Y-15999976D02*
X5342119Y-15866643D01*
X5342119Y-15904738D02*
X5351643Y-15885690D01*
X5361167Y-15876167D01*
X5380214Y-15866643D01*
X5399262Y-15866643D01*
X5465929Y-15999976D02*
X5465929Y-15866643D01*
X5465929Y-15799976D02*
X5456405Y-15809500D01*
X5465929Y-15819024D01*
X5475452Y-15809500D01*
X5465929Y-15799976D01*
X5465929Y-15819024D01*
X5589738Y-15999976D02*
X5570690Y-15990452D01*
X5561167Y-15971405D01*
X5561167Y-15799976D01*
X5694500Y-15999976D02*
X5675452Y-15990452D01*
X5665928Y-15971405D01*
X5665928Y-15799976D01*
X5923071Y-15999976D02*
X5923071Y-15799976D01*
X5989738Y-15942833D01*
X6056405Y-15799976D01*
X6056405Y-15999976D01*
X6237357Y-15999976D02*
X6237357Y-15895214D01*
X6227833Y-15876167D01*
X6208786Y-15866643D01*
X6170690Y-15866643D01*
X6151643Y-15876167D01*
X6237357Y-15990452D02*
X6218309Y-15999976D01*
X6170690Y-15999976D01*
X6151643Y-15990452D01*
X6142119Y-15971405D01*
X6142119Y-15952357D01*
X6151643Y-15933309D01*
X6170690Y-15923786D01*
X6218309Y-15923786D01*
X6237357Y-15914262D01*
X6332595Y-15866643D02*
X6332595Y-16066643D01*
X6332595Y-15876167D02*
X6351643Y-15866643D01*
X6389738Y-15866643D01*
X6408786Y-15876167D01*
X6418309Y-15885690D01*
X6427833Y-15904738D01*
X6427833Y-15961881D01*
X6418309Y-15980928D01*
X6408786Y-15990452D01*
X6389738Y-15999976D01*
X6351643Y-15999976D01*
X6332595Y-15990452D01*
X6513548Y-15980928D02*
X6523071Y-15990452D01*
X6513548Y-15999976D01*
X6504024Y-15990452D01*
X6513548Y-15980928D01*
X6513548Y-15999976D01*
X6513548Y-15876167D02*
X6523071Y-15885690D01*
X6513548Y-15895214D01*
X6504024Y-15885690D01*
X6513548Y-15876167D01*
X6513548Y-15895214D01*
D12*
X4851480Y-16312990D02*
X4884500Y-16346010D01*
X4884500Y-16312990D02*
X4851480Y-16346010D01*
D11*
X5180214Y-16219976D02*
X5199262Y-16219976D01*
X5218310Y-16229500D01*
X5227833Y-16239024D01*
X5237357Y-16258071D01*
X5246881Y-16296167D01*
X5246881Y-16343786D01*
X5237357Y-16381881D01*
X5227833Y-16400928D01*
X5218310Y-16410452D01*
X5199262Y-16419976D01*
X5180214Y-16419976D01*
X5161167Y-16410452D01*
X5151643Y-16400928D01*
X5142119Y-16381881D01*
X5132595Y-16343786D01*
X5132595Y-16296167D01*
X5142119Y-16258071D01*
X5151643Y-16239024D01*
X5161167Y-16229500D01*
X5180214Y-16219976D01*
X5332595Y-16400928D02*
X5342119Y-16410452D01*
X5332595Y-16419976D01*
X5323071Y-16410452D01*
X5332595Y-16400928D01*
X5332595Y-16419976D01*
X5408786Y-16219976D02*
X5532595Y-16219976D01*
X5465929Y-16296167D01*
X5494500Y-16296167D01*
X5513548Y-16305690D01*
X5523071Y-16315214D01*
X5532595Y-16334262D01*
X5532595Y-16381881D01*
X5523071Y-16400928D01*
X5513548Y-16410452D01*
X5494500Y-16419976D01*
X5437357Y-16419976D01*
X5418310Y-16410452D01*
X5408786Y-16400928D01*
X5599262Y-16219976D02*
X5723071Y-16219976D01*
X5656405Y-16296167D01*
X5684976Y-16296167D01*
X5704024Y-16305690D01*
X5713548Y-16315214D01*
X5723071Y-16334262D01*
X5723071Y-16381881D01*
X5713548Y-16400928D01*
X5704024Y-16410452D01*
X5684976Y-16419976D01*
X5627833Y-16419976D01*
X5608786Y-16410452D01*
X5599262Y-16400928D01*
X5846881Y-16219976D02*
X5865928Y-16219976D01*
X5884976Y-16229500D01*
X5894500Y-16239024D01*
X5904024Y-16258071D01*
X5913548Y-16296167D01*
X5913548Y-16343786D01*
X5904024Y-16381881D01*
X5894500Y-16400928D01*
X5884976Y-16410452D01*
X5865928Y-16419976D01*
X5846881Y-16419976D01*
X5827833Y-16410452D01*
X5818309Y-16400928D01*
X5808786Y-16381881D01*
X5799262Y-16343786D01*
X5799262Y-16296167D01*
X5808786Y-16258071D01*
X5818309Y-16239024D01*
X5827833Y-16229500D01*
X5846881Y-16219976D01*
X5999262Y-16419976D02*
X5999262Y-16286643D01*
X5999262Y-16305690D02*
X6008786Y-16296167D01*
X6027833Y-16286643D01*
X6056405Y-16286643D01*
X6075452Y-16296167D01*
X6084976Y-16315214D01*
X6084976Y-16419976D01*
X6084976Y-16315214D02*
X6094500Y-16296167D01*
X6113548Y-16286643D01*
X6142119Y-16286643D01*
X6161167Y-16296167D01*
X6170690Y-16315214D01*
X6170690Y-16419976D01*
X6265928Y-16419976D02*
X6265928Y-16286643D01*
X6265928Y-16305690D02*
X6275452Y-16296167D01*
X6294500Y-16286643D01*
X6323071Y-16286643D01*
X6342119Y-16296167D01*
X6351643Y-16315214D01*
X6351643Y-16419976D01*
X6351643Y-16315214D02*
X6361167Y-16296167D01*
X6380214Y-16286643D01*
X6408786Y-16286643D01*
X6427833Y-16296167D01*
X6437357Y-16315214D01*
X6437357Y-16419976D01*
X6827833Y-16210452D02*
X6656405Y-16467595D01*
X7084976Y-16219976D02*
X7104024Y-16219976D01*
X7123071Y-16229500D01*
X7132595Y-16239024D01*
X7142119Y-16258071D01*
X7151643Y-16296167D01*
X7151643Y-16343786D01*
X7142119Y-16381881D01*
X7132595Y-16400928D01*
X7123071Y-16410452D01*
X7104024Y-16419976D01*
X7084976Y-16419976D01*
X7065928Y-16410452D01*
X7056405Y-16400928D01*
X7046881Y-16381881D01*
X7037357Y-16343786D01*
X7037357Y-16296167D01*
X7046881Y-16258071D01*
X7056405Y-16239024D01*
X7065928Y-16229500D01*
X7084976Y-16219976D01*
X7237357Y-16400928D02*
X7246881Y-16410452D01*
X7237357Y-16419976D01*
X7227833Y-16410452D01*
X7237357Y-16400928D01*
X7237357Y-16419976D01*
X7370690Y-16219976D02*
X7389738Y-16219976D01*
X7408786Y-16229500D01*
X7418309Y-16239024D01*
X7427833Y-16258071D01*
X7437357Y-16296167D01*
X7437357Y-16343786D01*
X7427833Y-16381881D01*
X7418309Y-16400928D01*
X7408786Y-16410452D01*
X7389738Y-16419976D01*
X7370690Y-16419976D01*
X7351643Y-16410452D01*
X7342119Y-16400928D01*
X7332595Y-16381881D01*
X7323071Y-16343786D01*
X7323071Y-16296167D01*
X7332595Y-16258071D01*
X7342119Y-16239024D01*
X7351643Y-16229500D01*
X7370690Y-16219976D01*
X7627833Y-16419976D02*
X7513548Y-16419976D01*
X7570690Y-16419976D02*
X7570690Y-16219976D01*
X7551643Y-16248548D01*
X7532595Y-16267595D01*
X7513548Y-16277119D01*
X7694500Y-16219976D02*
X7818309Y-16219976D01*
X7751643Y-16296167D01*
X7780214Y-16296167D01*
X7799262Y-16305690D01*
X7808786Y-16315214D01*
X7818309Y-16334262D01*
X7818309Y-16381881D01*
X7808786Y-16400928D01*
X7799262Y-16410452D01*
X7780214Y-16419976D01*
X7723071Y-16419976D01*
X7704024Y-16410452D01*
X7694500Y-16400928D01*
X7942119Y-16219976D02*
X7961167Y-16219976D01*
X7980214Y-16229500D01*
X7989738Y-16239024D01*
X7999262Y-16258071D01*
X8008786Y-16296167D01*
X8008786Y-16343786D01*
X7999262Y-16381881D01*
X7989738Y-16400928D01*
X7980214Y-16410452D01*
X7961167Y-16419976D01*
X7942119Y-16419976D01*
X7923071Y-16410452D01*
X7913548Y-16400928D01*
X7904024Y-16381881D01*
X7894500Y-16343786D01*
X7894500Y-16296167D01*
X7904024Y-16258071D01*
X7913548Y-16239024D01*
X7923071Y-16229500D01*
X7942119Y-16219976D01*
X8084976Y-16219976D02*
X8084976Y-16258071D01*
X8161167Y-16219976D02*
X8161167Y-16258071D01*
X8456405Y-16496167D02*
X8446881Y-16486643D01*
X8427833Y-16458071D01*
X8418310Y-16439024D01*
X8408786Y-16410452D01*
X8399262Y-16362833D01*
X8399262Y-16324738D01*
X8408786Y-16277119D01*
X8418310Y-16248548D01*
X8427833Y-16229500D01*
X8446881Y-16200928D01*
X8456405Y-16191405D01*
X8618310Y-16286643D02*
X8618310Y-16419976D01*
X8570690Y-16210452D02*
X8523071Y-16353309D01*
X8646881Y-16353309D01*
X8761167Y-16219976D02*
X8780214Y-16219976D01*
X8799262Y-16229500D01*
X8808786Y-16239024D01*
X8818310Y-16258071D01*
X8827833Y-16296167D01*
X8827833Y-16343786D01*
X8818310Y-16381881D01*
X8808786Y-16400928D01*
X8799262Y-16410452D01*
X8780214Y-16419976D01*
X8761167Y-16419976D01*
X8742119Y-16410452D01*
X8732595Y-16400928D01*
X8723071Y-16381881D01*
X8713548Y-16343786D01*
X8713548Y-16296167D01*
X8723071Y-16258071D01*
X8732595Y-16239024D01*
X8742119Y-16229500D01*
X8761167Y-16219976D01*
X9065929Y-16419976D02*
X9065929Y-16219976D01*
X9151643Y-16419976D02*
X9151643Y-16315214D01*
X9142119Y-16296167D01*
X9123071Y-16286643D01*
X9094500Y-16286643D01*
X9075452Y-16296167D01*
X9065929Y-16305690D01*
X9275452Y-16419976D02*
X9256405Y-16410452D01*
X9246881Y-16400928D01*
X9237357Y-16381881D01*
X9237357Y-16324738D01*
X9246881Y-16305690D01*
X9256405Y-16296167D01*
X9275452Y-16286643D01*
X9304024Y-16286643D01*
X9323071Y-16296167D01*
X9332595Y-16305690D01*
X9342119Y-16324738D01*
X9342119Y-16381881D01*
X9332595Y-16400928D01*
X9323071Y-16410452D01*
X9304024Y-16419976D01*
X9275452Y-16419976D01*
X9456405Y-16419976D02*
X9437357Y-16410452D01*
X9427833Y-16391405D01*
X9427833Y-16219976D01*
X9608786Y-16410452D02*
X9589738Y-16419976D01*
X9551643Y-16419976D01*
X9532595Y-16410452D01*
X9523071Y-16391405D01*
X9523071Y-16315214D01*
X9532595Y-16296167D01*
X9551643Y-16286643D01*
X9589738Y-16286643D01*
X9608786Y-16296167D01*
X9618310Y-16315214D01*
X9618310Y-16334262D01*
X9523071Y-16353309D01*
X9694500Y-16410452D02*
X9713548Y-16419976D01*
X9751643Y-16419976D01*
X9770690Y-16410452D01*
X9780214Y-16391405D01*
X9780214Y-16381881D01*
X9770690Y-16362833D01*
X9751643Y-16353309D01*
X9723071Y-16353309D01*
X9704024Y-16343786D01*
X9694500Y-16324738D01*
X9694500Y-16315214D01*
X9704024Y-16296167D01*
X9723071Y-16286643D01*
X9751643Y-16286643D01*
X9770690Y-16296167D01*
X9846881Y-16496167D02*
X9856405Y-16486643D01*
X9875452Y-16458071D01*
X9884976Y-16439024D01*
X9894500Y-16410452D01*
X9904024Y-16362833D01*
X9904024Y-16324738D01*
X9894500Y-16277119D01*
X9884976Y-16248548D01*
X9875452Y-16229500D01*
X9856405Y-16200928D01*
X9846881Y-16191405D01*
D13*
X4884500Y-16593500D02*
G75*
G03*
X4884500Y-16593500I-20000J0D01*
G01*
D11*
X5180214Y-16483976D02*
X5199262Y-16483976D01*
X5218310Y-16493500D01*
X5227833Y-16503024D01*
X5237357Y-16522071D01*
X5246881Y-16560167D01*
X5246881Y-16607786D01*
X5237357Y-16645881D01*
X5227833Y-16664928D01*
X5218310Y-16674452D01*
X5199262Y-16683976D01*
X5180214Y-16683976D01*
X5161167Y-16674452D01*
X5151643Y-16664928D01*
X5142119Y-16645881D01*
X5132595Y-16607786D01*
X5132595Y-16560167D01*
X5142119Y-16522071D01*
X5151643Y-16503024D01*
X5161167Y-16493500D01*
X5180214Y-16483976D01*
X5332595Y-16664928D02*
X5342119Y-16674452D01*
X5332595Y-16683976D01*
X5323071Y-16674452D01*
X5332595Y-16664928D01*
X5332595Y-16683976D01*
X5513548Y-16550643D02*
X5513548Y-16683976D01*
X5465929Y-16474452D02*
X5418310Y-16617309D01*
X5542119Y-16617309D01*
X5656405Y-16483976D02*
X5675452Y-16483976D01*
X5694500Y-16493500D01*
X5704024Y-16503024D01*
X5713548Y-16522071D01*
X5723071Y-16560167D01*
X5723071Y-16607786D01*
X5713548Y-16645881D01*
X5704024Y-16664928D01*
X5694500Y-16674452D01*
X5675452Y-16683976D01*
X5656405Y-16683976D01*
X5637357Y-16674452D01*
X5627833Y-16664928D01*
X5618309Y-16645881D01*
X5608786Y-16607786D01*
X5608786Y-16560167D01*
X5618309Y-16522071D01*
X5627833Y-16503024D01*
X5637357Y-16493500D01*
X5656405Y-16483976D01*
X5846881Y-16483976D02*
X5865928Y-16483976D01*
X5884976Y-16493500D01*
X5894500Y-16503024D01*
X5904024Y-16522071D01*
X5913548Y-16560167D01*
X5913548Y-16607786D01*
X5904024Y-16645881D01*
X5894500Y-16664928D01*
X5884976Y-16674452D01*
X5865928Y-16683976D01*
X5846881Y-16683976D01*
X5827833Y-16674452D01*
X5818309Y-16664928D01*
X5808786Y-16645881D01*
X5799262Y-16607786D01*
X5799262Y-16560167D01*
X5808786Y-16522071D01*
X5818309Y-16503024D01*
X5827833Y-16493500D01*
X5846881Y-16483976D01*
X5999262Y-16683976D02*
X5999262Y-16550643D01*
X5999262Y-16569690D02*
X6008786Y-16560167D01*
X6027833Y-16550643D01*
X6056405Y-16550643D01*
X6075452Y-16560167D01*
X6084976Y-16579214D01*
X6084976Y-16683976D01*
X6084976Y-16579214D02*
X6094500Y-16560167D01*
X6113548Y-16550643D01*
X6142119Y-16550643D01*
X6161167Y-16560167D01*
X6170690Y-16579214D01*
X6170690Y-16683976D01*
X6265928Y-16683976D02*
X6265928Y-16550643D01*
X6265928Y-16569690D02*
X6275452Y-16560167D01*
X6294500Y-16550643D01*
X6323071Y-16550643D01*
X6342119Y-16560167D01*
X6351643Y-16579214D01*
X6351643Y-16683976D01*
X6351643Y-16579214D02*
X6361167Y-16560167D01*
X6380214Y-16550643D01*
X6408786Y-16550643D01*
X6427833Y-16560167D01*
X6437357Y-16579214D01*
X6437357Y-16683976D01*
X6827833Y-16474452D02*
X6656405Y-16731595D01*
X7084976Y-16483976D02*
X7104024Y-16483976D01*
X7123071Y-16493500D01*
X7132595Y-16503024D01*
X7142119Y-16522071D01*
X7151643Y-16560167D01*
X7151643Y-16607786D01*
X7142119Y-16645881D01*
X7132595Y-16664928D01*
X7123071Y-16674452D01*
X7104024Y-16683976D01*
X7084976Y-16683976D01*
X7065928Y-16674452D01*
X7056405Y-16664928D01*
X7046881Y-16645881D01*
X7037357Y-16607786D01*
X7037357Y-16560167D01*
X7046881Y-16522071D01*
X7056405Y-16503024D01*
X7065928Y-16493500D01*
X7084976Y-16483976D01*
X7237357Y-16664928D02*
X7246881Y-16674452D01*
X7237357Y-16683976D01*
X7227833Y-16674452D01*
X7237357Y-16664928D01*
X7237357Y-16683976D01*
X7370690Y-16483976D02*
X7389738Y-16483976D01*
X7408786Y-16493500D01*
X7418309Y-16503024D01*
X7427833Y-16522071D01*
X7437357Y-16560167D01*
X7437357Y-16607786D01*
X7427833Y-16645881D01*
X7418309Y-16664928D01*
X7408786Y-16674452D01*
X7389738Y-16683976D01*
X7370690Y-16683976D01*
X7351643Y-16674452D01*
X7342119Y-16664928D01*
X7332595Y-16645881D01*
X7323071Y-16607786D01*
X7323071Y-16560167D01*
X7332595Y-16522071D01*
X7342119Y-16503024D01*
X7351643Y-16493500D01*
X7370690Y-16483976D01*
X7627833Y-16683976D02*
X7513548Y-16683976D01*
X7570690Y-16683976D02*
X7570690Y-16483976D01*
X7551643Y-16512548D01*
X7532595Y-16531595D01*
X7513548Y-16541119D01*
X7808786Y-16483976D02*
X7713548Y-16483976D01*
X7704024Y-16579214D01*
X7713548Y-16569690D01*
X7732595Y-16560167D01*
X7780214Y-16560167D01*
X7799262Y-16569690D01*
X7808786Y-16579214D01*
X7818309Y-16598262D01*
X7818309Y-16645881D01*
X7808786Y-16664928D01*
X7799262Y-16674452D01*
X7780214Y-16683976D01*
X7732595Y-16683976D01*
X7713548Y-16674452D01*
X7704024Y-16664928D01*
X7884976Y-16483976D02*
X8018309Y-16483976D01*
X7932595Y-16683976D01*
X8084976Y-16483976D02*
X8084976Y-16522071D01*
X8161167Y-16483976D02*
X8161167Y-16522071D01*
X8456405Y-16760167D02*
X8446881Y-16750643D01*
X8427833Y-16722071D01*
X8418310Y-16703024D01*
X8408786Y-16674452D01*
X8399262Y-16626833D01*
X8399262Y-16588738D01*
X8408786Y-16541119D01*
X8418310Y-16512548D01*
X8427833Y-16493500D01*
X8446881Y-16464928D01*
X8456405Y-16455405D01*
X8561167Y-16569690D02*
X8542119Y-16560167D01*
X8532595Y-16550643D01*
X8523071Y-16531595D01*
X8523071Y-16522071D01*
X8532595Y-16503024D01*
X8542119Y-16493500D01*
X8561167Y-16483976D01*
X8599262Y-16483976D01*
X8618310Y-16493500D01*
X8627833Y-16503024D01*
X8637357Y-16522071D01*
X8637357Y-16531595D01*
X8627833Y-16550643D01*
X8618310Y-16560167D01*
X8599262Y-16569690D01*
X8561167Y-16569690D01*
X8542119Y-16579214D01*
X8532595Y-16588738D01*
X8523071Y-16607786D01*
X8523071Y-16645881D01*
X8532595Y-16664928D01*
X8542119Y-16674452D01*
X8561167Y-16683976D01*
X8599262Y-16683976D01*
X8618310Y-16674452D01*
X8627833Y-16664928D01*
X8637357Y-16645881D01*
X8637357Y-16607786D01*
X8627833Y-16588738D01*
X8618310Y-16579214D01*
X8599262Y-16569690D01*
X8808786Y-16483976D02*
X8770690Y-16483976D01*
X8751643Y-16493500D01*
X8742119Y-16503024D01*
X8723071Y-16531595D01*
X8713548Y-16569690D01*
X8713548Y-16645881D01*
X8723071Y-16664928D01*
X8732595Y-16674452D01*
X8751643Y-16683976D01*
X8789738Y-16683976D01*
X8808786Y-16674452D01*
X8818310Y-16664928D01*
X8827833Y-16645881D01*
X8827833Y-16598262D01*
X8818310Y-16579214D01*
X8808786Y-16569690D01*
X8789738Y-16560167D01*
X8751643Y-16560167D01*
X8732595Y-16569690D01*
X8723071Y-16579214D01*
X8713548Y-16598262D01*
X9065929Y-16683976D02*
X9065929Y-16483976D01*
X9151643Y-16683976D02*
X9151643Y-16579214D01*
X9142119Y-16560167D01*
X9123071Y-16550643D01*
X9094500Y-16550643D01*
X9075452Y-16560167D01*
X9065929Y-16569690D01*
X9275452Y-16683976D02*
X9256405Y-16674452D01*
X9246881Y-16664928D01*
X9237357Y-16645881D01*
X9237357Y-16588738D01*
X9246881Y-16569690D01*
X9256405Y-16560167D01*
X9275452Y-16550643D01*
X9304024Y-16550643D01*
X9323071Y-16560167D01*
X9332595Y-16569690D01*
X9342119Y-16588738D01*
X9342119Y-16645881D01*
X9332595Y-16664928D01*
X9323071Y-16674452D01*
X9304024Y-16683976D01*
X9275452Y-16683976D01*
X9456405Y-16683976D02*
X9437357Y-16674452D01*
X9427833Y-16655405D01*
X9427833Y-16483976D01*
X9608786Y-16674452D02*
X9589738Y-16683976D01*
X9551643Y-16683976D01*
X9532595Y-16674452D01*
X9523071Y-16655405D01*
X9523071Y-16579214D01*
X9532595Y-16560167D01*
X9551643Y-16550643D01*
X9589738Y-16550643D01*
X9608786Y-16560167D01*
X9618310Y-16579214D01*
X9618310Y-16598262D01*
X9523071Y-16617309D01*
X9694500Y-16674452D02*
X9713548Y-16683976D01*
X9751643Y-16683976D01*
X9770690Y-16674452D01*
X9780214Y-16655405D01*
X9780214Y-16645881D01*
X9770690Y-16626833D01*
X9751643Y-16617309D01*
X9723071Y-16617309D01*
X9704024Y-16607786D01*
X9694500Y-16588738D01*
X9694500Y-16579214D01*
X9704024Y-16560167D01*
X9723071Y-16550643D01*
X9751643Y-16550643D01*
X9770690Y-16560167D01*
X9846881Y-16760167D02*
X9856405Y-16750643D01*
X9875452Y-16722071D01*
X9884976Y-16703024D01*
X9894500Y-16674452D01*
X9904024Y-16626833D01*
X9904024Y-16588738D01*
X9894500Y-16541119D01*
X9884976Y-16512548D01*
X9875452Y-16493500D01*
X9856405Y-16464928D01*
X9846881Y-16455405D01*
D14*
X4839500Y-16812500D02*
X4839500Y-16902500D01*
X4794500Y-16857500D02*
X4884500Y-16857500D01*
D11*
X5180214Y-16747976D02*
X5199262Y-16747976D01*
X5218310Y-16757500D01*
X5227833Y-16767024D01*
X5237357Y-16786071D01*
X5246881Y-16824167D01*
X5246881Y-16871786D01*
X5237357Y-16909881D01*
X5227833Y-16928929D01*
X5218310Y-16938452D01*
X5199262Y-16947976D01*
X5180214Y-16947976D01*
X5161167Y-16938452D01*
X5151643Y-16928929D01*
X5142119Y-16909881D01*
X5132595Y-16871786D01*
X5132595Y-16824167D01*
X5142119Y-16786071D01*
X5151643Y-16767024D01*
X5161167Y-16757500D01*
X5180214Y-16747976D01*
X5332595Y-16928929D02*
X5342119Y-16938452D01*
X5332595Y-16947976D01*
X5323071Y-16938452D01*
X5332595Y-16928929D01*
X5332595Y-16947976D01*
X5437357Y-16947976D02*
X5475452Y-16947976D01*
X5494500Y-16938452D01*
X5504024Y-16928929D01*
X5523071Y-16900357D01*
X5532595Y-16862262D01*
X5532595Y-16786071D01*
X5523071Y-16767024D01*
X5513548Y-16757500D01*
X5494500Y-16747976D01*
X5456405Y-16747976D01*
X5437357Y-16757500D01*
X5427833Y-16767024D01*
X5418310Y-16786071D01*
X5418310Y-16833690D01*
X5427833Y-16852738D01*
X5437357Y-16862262D01*
X5456405Y-16871786D01*
X5494500Y-16871786D01*
X5513548Y-16862262D01*
X5523071Y-16852738D01*
X5532595Y-16833690D01*
X5656405Y-16747976D02*
X5675452Y-16747976D01*
X5694500Y-16757500D01*
X5704024Y-16767024D01*
X5713548Y-16786071D01*
X5723071Y-16824167D01*
X5723071Y-16871786D01*
X5713548Y-16909881D01*
X5704024Y-16928929D01*
X5694500Y-16938452D01*
X5675452Y-16947976D01*
X5656405Y-16947976D01*
X5637357Y-16938452D01*
X5627833Y-16928929D01*
X5618309Y-16909881D01*
X5608786Y-16871786D01*
X5608786Y-16824167D01*
X5618309Y-16786071D01*
X5627833Y-16767024D01*
X5637357Y-16757500D01*
X5656405Y-16747976D01*
X5846881Y-16747976D02*
X5865928Y-16747976D01*
X5884976Y-16757500D01*
X5894500Y-16767024D01*
X5904024Y-16786071D01*
X5913548Y-16824167D01*
X5913548Y-16871786D01*
X5904024Y-16909881D01*
X5894500Y-16928929D01*
X5884976Y-16938452D01*
X5865928Y-16947976D01*
X5846881Y-16947976D01*
X5827833Y-16938452D01*
X5818309Y-16928929D01*
X5808786Y-16909881D01*
X5799262Y-16871786D01*
X5799262Y-16824167D01*
X5808786Y-16786071D01*
X5818309Y-16767024D01*
X5827833Y-16757500D01*
X5846881Y-16747976D01*
X5999262Y-16947976D02*
X5999262Y-16814643D01*
X5999262Y-16833690D02*
X6008786Y-16824167D01*
X6027833Y-16814643D01*
X6056405Y-16814643D01*
X6075452Y-16824167D01*
X6084976Y-16843214D01*
X6084976Y-16947976D01*
X6084976Y-16843214D02*
X6094500Y-16824167D01*
X6113548Y-16814643D01*
X6142119Y-16814643D01*
X6161167Y-16824167D01*
X6170690Y-16843214D01*
X6170690Y-16947976D01*
X6265928Y-16947976D02*
X6265928Y-16814643D01*
X6265928Y-16833690D02*
X6275452Y-16824167D01*
X6294500Y-16814643D01*
X6323071Y-16814643D01*
X6342119Y-16824167D01*
X6351643Y-16843214D01*
X6351643Y-16947976D01*
X6351643Y-16843214D02*
X6361167Y-16824167D01*
X6380214Y-16814643D01*
X6408786Y-16814643D01*
X6427833Y-16824167D01*
X6437357Y-16843214D01*
X6437357Y-16947976D01*
X6827833Y-16738452D02*
X6656405Y-16995595D01*
X7084976Y-16747976D02*
X7104024Y-16747976D01*
X7123071Y-16757500D01*
X7132595Y-16767024D01*
X7142119Y-16786071D01*
X7151643Y-16824167D01*
X7151643Y-16871786D01*
X7142119Y-16909881D01*
X7132595Y-16928929D01*
X7123071Y-16938452D01*
X7104024Y-16947976D01*
X7084976Y-16947976D01*
X7065928Y-16938452D01*
X7056405Y-16928929D01*
X7046881Y-16909881D01*
X7037357Y-16871786D01*
X7037357Y-16824167D01*
X7046881Y-16786071D01*
X7056405Y-16767024D01*
X7065928Y-16757500D01*
X7084976Y-16747976D01*
X7237357Y-16928929D02*
X7246881Y-16938452D01*
X7237357Y-16947976D01*
X7227833Y-16938452D01*
X7237357Y-16928929D01*
X7237357Y-16947976D01*
X7370690Y-16747976D02*
X7389738Y-16747976D01*
X7408786Y-16757500D01*
X7418309Y-16767024D01*
X7427833Y-16786071D01*
X7437357Y-16824167D01*
X7437357Y-16871786D01*
X7427833Y-16909881D01*
X7418309Y-16928929D01*
X7408786Y-16938452D01*
X7389738Y-16947976D01*
X7370690Y-16947976D01*
X7351643Y-16938452D01*
X7342119Y-16928929D01*
X7332595Y-16909881D01*
X7323071Y-16871786D01*
X7323071Y-16824167D01*
X7332595Y-16786071D01*
X7342119Y-16767024D01*
X7351643Y-16757500D01*
X7370690Y-16747976D01*
X7504024Y-16747976D02*
X7627833Y-16747976D01*
X7561167Y-16824167D01*
X7589738Y-16824167D01*
X7608786Y-16833690D01*
X7618309Y-16843214D01*
X7627833Y-16862262D01*
X7627833Y-16909881D01*
X7618309Y-16928929D01*
X7608786Y-16938452D01*
X7589738Y-16947976D01*
X7532595Y-16947976D01*
X7513548Y-16938452D01*
X7504024Y-16928929D01*
X7808786Y-16747976D02*
X7713548Y-16747976D01*
X7704024Y-16843214D01*
X7713548Y-16833690D01*
X7732595Y-16824167D01*
X7780214Y-16824167D01*
X7799262Y-16833690D01*
X7808786Y-16843214D01*
X7818309Y-16862262D01*
X7818309Y-16909881D01*
X7808786Y-16928929D01*
X7799262Y-16938452D01*
X7780214Y-16947976D01*
X7732595Y-16947976D01*
X7713548Y-16938452D01*
X7704024Y-16928929D01*
X7989738Y-16814643D02*
X7989738Y-16947976D01*
X7942119Y-16738452D02*
X7894500Y-16881310D01*
X8018309Y-16881310D01*
X8084976Y-16747976D02*
X8084976Y-16786071D01*
X8161167Y-16747976D02*
X8161167Y-16786071D01*
X8456405Y-17024167D02*
X8446881Y-17014643D01*
X8427833Y-16986071D01*
X8418310Y-16967024D01*
X8408786Y-16938452D01*
X8399262Y-16890833D01*
X8399262Y-16852738D01*
X8408786Y-16805119D01*
X8418310Y-16776548D01*
X8427833Y-16757500D01*
X8446881Y-16728928D01*
X8456405Y-16719405D01*
X8513548Y-16747976D02*
X8637357Y-16747976D01*
X8570690Y-16824167D01*
X8599262Y-16824167D01*
X8618310Y-16833690D01*
X8627833Y-16843214D01*
X8637357Y-16862262D01*
X8637357Y-16909881D01*
X8627833Y-16928929D01*
X8618310Y-16938452D01*
X8599262Y-16947976D01*
X8542119Y-16947976D01*
X8523071Y-16938452D01*
X8513548Y-16928929D01*
X8713548Y-16767024D02*
X8723071Y-16757500D01*
X8742119Y-16747976D01*
X8789738Y-16747976D01*
X8808786Y-16757500D01*
X8818310Y-16767024D01*
X8827833Y-16786071D01*
X8827833Y-16805119D01*
X8818310Y-16833690D01*
X8704024Y-16947976D01*
X8827833Y-16947976D01*
X9065929Y-16947976D02*
X9065929Y-16747976D01*
X9151643Y-16947976D02*
X9151643Y-16843214D01*
X9142119Y-16824167D01*
X9123071Y-16814643D01*
X9094500Y-16814643D01*
X9075452Y-16824167D01*
X9065929Y-16833690D01*
X9275452Y-16947976D02*
X9256405Y-16938452D01*
X9246881Y-16928929D01*
X9237357Y-16909881D01*
X9237357Y-16852738D01*
X9246881Y-16833690D01*
X9256405Y-16824167D01*
X9275452Y-16814643D01*
X9304024Y-16814643D01*
X9323071Y-16824167D01*
X9332595Y-16833690D01*
X9342119Y-16852738D01*
X9342119Y-16909881D01*
X9332595Y-16928929D01*
X9323071Y-16938452D01*
X9304024Y-16947976D01*
X9275452Y-16947976D01*
X9456405Y-16947976D02*
X9437357Y-16938452D01*
X9427833Y-16919405D01*
X9427833Y-16747976D01*
X9608786Y-16938452D02*
X9589738Y-16947976D01*
X9551643Y-16947976D01*
X9532595Y-16938452D01*
X9523071Y-16919405D01*
X9523071Y-16843214D01*
X9532595Y-16824167D01*
X9551643Y-16814643D01*
X9589738Y-16814643D01*
X9608786Y-16824167D01*
X9618310Y-16843214D01*
X9618310Y-16862262D01*
X9523071Y-16881310D01*
X9694500Y-16938452D02*
X9713548Y-16947976D01*
X9751643Y-16947976D01*
X9770690Y-16938452D01*
X9780214Y-16919405D01*
X9780214Y-16909881D01*
X9770690Y-16890833D01*
X9751643Y-16881310D01*
X9723071Y-16881310D01*
X9704024Y-16871786D01*
X9694500Y-16852738D01*
X9694500Y-16843214D01*
X9704024Y-16824167D01*
X9723071Y-16814643D01*
X9751643Y-16814643D01*
X9770690Y-16824167D01*
X9846881Y-17024167D02*
X9856405Y-17014643D01*
X9875452Y-16986071D01*
X9884976Y-16967024D01*
X9894500Y-16938452D01*
X9904024Y-16890833D01*
X9904024Y-16852738D01*
X9894500Y-16805119D01*
X9884976Y-16776548D01*
X9875452Y-16757500D01*
X9856405Y-16728928D01*
X9846881Y-16719405D01*
D10*
X4869856Y-17156856D02*
X4869856Y-17086144D01*
X4799144Y-17086144D01*
X4799144Y-17156856D01*
X4869856Y-17156856D01*
D11*
X5246881Y-17211976D02*
X5132595Y-17211976D01*
X5189738Y-17211976D02*
X5189738Y-17011976D01*
X5170690Y-17040548D01*
X5151643Y-17059595D01*
X5132595Y-17069119D01*
X5332595Y-17192929D02*
X5342119Y-17202452D01*
X5332595Y-17211976D01*
X5323071Y-17202452D01*
X5332595Y-17192929D01*
X5332595Y-17211976D01*
X5465929Y-17011976D02*
X5484976Y-17011976D01*
X5504024Y-17021500D01*
X5513548Y-17031024D01*
X5523071Y-17050071D01*
X5532595Y-17088167D01*
X5532595Y-17135786D01*
X5523071Y-17173881D01*
X5513548Y-17192929D01*
X5504024Y-17202452D01*
X5484976Y-17211976D01*
X5465929Y-17211976D01*
X5446881Y-17202452D01*
X5437357Y-17192929D01*
X5427833Y-17173881D01*
X5418310Y-17135786D01*
X5418310Y-17088167D01*
X5427833Y-17050071D01*
X5437357Y-17031024D01*
X5446881Y-17021500D01*
X5465929Y-17011976D01*
X5656405Y-17011976D02*
X5675452Y-17011976D01*
X5694500Y-17021500D01*
X5704024Y-17031024D01*
X5713548Y-17050071D01*
X5723071Y-17088167D01*
X5723071Y-17135786D01*
X5713548Y-17173881D01*
X5704024Y-17192929D01*
X5694500Y-17202452D01*
X5675452Y-17211976D01*
X5656405Y-17211976D01*
X5637357Y-17202452D01*
X5627833Y-17192929D01*
X5618309Y-17173881D01*
X5608786Y-17135786D01*
X5608786Y-17088167D01*
X5618309Y-17050071D01*
X5627833Y-17031024D01*
X5637357Y-17021500D01*
X5656405Y-17011976D01*
X5846881Y-17011976D02*
X5865928Y-17011976D01*
X5884976Y-17021500D01*
X5894500Y-17031024D01*
X5904024Y-17050071D01*
X5913548Y-17088167D01*
X5913548Y-17135786D01*
X5904024Y-17173881D01*
X5894500Y-17192929D01*
X5884976Y-17202452D01*
X5865928Y-17211976D01*
X5846881Y-17211976D01*
X5827833Y-17202452D01*
X5818309Y-17192929D01*
X5808786Y-17173881D01*
X5799262Y-17135786D01*
X5799262Y-17088167D01*
X5808786Y-17050071D01*
X5818309Y-17031024D01*
X5827833Y-17021500D01*
X5846881Y-17011976D01*
X5999262Y-17211976D02*
X5999262Y-17078643D01*
X5999262Y-17097690D02*
X6008786Y-17088167D01*
X6027833Y-17078643D01*
X6056405Y-17078643D01*
X6075452Y-17088167D01*
X6084976Y-17107214D01*
X6084976Y-17211976D01*
X6084976Y-17107214D02*
X6094500Y-17088167D01*
X6113548Y-17078643D01*
X6142119Y-17078643D01*
X6161167Y-17088167D01*
X6170690Y-17107214D01*
X6170690Y-17211976D01*
X6265928Y-17211976D02*
X6265928Y-17078643D01*
X6265928Y-17097690D02*
X6275452Y-17088167D01*
X6294500Y-17078643D01*
X6323071Y-17078643D01*
X6342119Y-17088167D01*
X6351643Y-17107214D01*
X6351643Y-17211976D01*
X6351643Y-17107214D02*
X6361167Y-17088167D01*
X6380214Y-17078643D01*
X6408786Y-17078643D01*
X6427833Y-17088167D01*
X6437357Y-17107214D01*
X6437357Y-17211976D01*
X6827833Y-17002452D02*
X6656405Y-17259595D01*
X7084976Y-17011976D02*
X7104024Y-17011976D01*
X7123071Y-17021500D01*
X7132595Y-17031024D01*
X7142119Y-17050071D01*
X7151643Y-17088167D01*
X7151643Y-17135786D01*
X7142119Y-17173881D01*
X7132595Y-17192929D01*
X7123071Y-17202452D01*
X7104024Y-17211976D01*
X7084976Y-17211976D01*
X7065928Y-17202452D01*
X7056405Y-17192929D01*
X7046881Y-17173881D01*
X7037357Y-17135786D01*
X7037357Y-17088167D01*
X7046881Y-17050071D01*
X7056405Y-17031024D01*
X7065928Y-17021500D01*
X7084976Y-17011976D01*
X7237357Y-17192929D02*
X7246881Y-17202452D01*
X7237357Y-17211976D01*
X7227833Y-17202452D01*
X7237357Y-17192929D01*
X7237357Y-17211976D01*
X7370690Y-17011976D02*
X7389738Y-17011976D01*
X7408786Y-17021500D01*
X7418309Y-17031024D01*
X7427833Y-17050071D01*
X7437357Y-17088167D01*
X7437357Y-17135786D01*
X7427833Y-17173881D01*
X7418309Y-17192929D01*
X7408786Y-17202452D01*
X7389738Y-17211976D01*
X7370690Y-17211976D01*
X7351643Y-17202452D01*
X7342119Y-17192929D01*
X7332595Y-17173881D01*
X7323071Y-17135786D01*
X7323071Y-17088167D01*
X7332595Y-17050071D01*
X7342119Y-17031024D01*
X7351643Y-17021500D01*
X7370690Y-17011976D01*
X7504024Y-17011976D02*
X7627833Y-17011976D01*
X7561167Y-17088167D01*
X7589738Y-17088167D01*
X7608786Y-17097690D01*
X7618309Y-17107214D01*
X7627833Y-17126262D01*
X7627833Y-17173881D01*
X7618309Y-17192929D01*
X7608786Y-17202452D01*
X7589738Y-17211976D01*
X7532595Y-17211976D01*
X7513548Y-17202452D01*
X7504024Y-17192929D01*
X7723071Y-17211976D02*
X7761167Y-17211976D01*
X7780214Y-17202452D01*
X7789738Y-17192929D01*
X7808786Y-17164357D01*
X7818309Y-17126262D01*
X7818309Y-17050071D01*
X7808786Y-17031024D01*
X7799262Y-17021500D01*
X7780214Y-17011976D01*
X7742119Y-17011976D01*
X7723071Y-17021500D01*
X7713548Y-17031024D01*
X7704024Y-17050071D01*
X7704024Y-17097690D01*
X7713548Y-17116738D01*
X7723071Y-17126262D01*
X7742119Y-17135786D01*
X7780214Y-17135786D01*
X7799262Y-17126262D01*
X7808786Y-17116738D01*
X7818309Y-17097690D01*
X7989738Y-17078643D02*
X7989738Y-17211976D01*
X7942119Y-17002452D02*
X7894500Y-17145310D01*
X8018309Y-17145310D01*
X8084976Y-17011976D02*
X8084976Y-17050071D01*
X8161167Y-17011976D02*
X8161167Y-17050071D01*
X8456405Y-17288167D02*
X8446881Y-17278643D01*
X8427833Y-17250071D01*
X8418310Y-17231024D01*
X8408786Y-17202452D01*
X8399262Y-17154833D01*
X8399262Y-17116738D01*
X8408786Y-17069119D01*
X8418310Y-17040548D01*
X8427833Y-17021500D01*
X8446881Y-16992929D01*
X8456405Y-16983405D01*
X8513548Y-17011976D02*
X8637357Y-17011976D01*
X8570690Y-17088167D01*
X8599262Y-17088167D01*
X8618310Y-17097690D01*
X8627833Y-17107214D01*
X8637357Y-17126262D01*
X8637357Y-17173881D01*
X8627833Y-17192929D01*
X8618310Y-17202452D01*
X8599262Y-17211976D01*
X8542119Y-17211976D01*
X8523071Y-17202452D01*
X8513548Y-17192929D01*
X8713548Y-17031024D02*
X8723071Y-17021500D01*
X8742119Y-17011976D01*
X8789738Y-17011976D01*
X8808786Y-17021500D01*
X8818310Y-17031024D01*
X8827833Y-17050071D01*
X8827833Y-17069119D01*
X8818310Y-17097690D01*
X8704024Y-17211976D01*
X8827833Y-17211976D01*
X9065929Y-17211976D02*
X9065929Y-17011976D01*
X9151643Y-17211976D02*
X9151643Y-17107214D01*
X9142119Y-17088167D01*
X9123071Y-17078643D01*
X9094500Y-17078643D01*
X9075452Y-17088167D01*
X9065929Y-17097690D01*
X9275452Y-17211976D02*
X9256405Y-17202452D01*
X9246881Y-17192929D01*
X9237357Y-17173881D01*
X9237357Y-17116738D01*
X9246881Y-17097690D01*
X9256405Y-17088167D01*
X9275452Y-17078643D01*
X9304024Y-17078643D01*
X9323071Y-17088167D01*
X9332595Y-17097690D01*
X9342119Y-17116738D01*
X9342119Y-17173881D01*
X9332595Y-17192929D01*
X9323071Y-17202452D01*
X9304024Y-17211976D01*
X9275452Y-17211976D01*
X9456405Y-17211976D02*
X9437357Y-17202452D01*
X9427833Y-17183405D01*
X9427833Y-17011976D01*
X9608786Y-17202452D02*
X9589738Y-17211976D01*
X9551643Y-17211976D01*
X9532595Y-17202452D01*
X9523071Y-17183405D01*
X9523071Y-17107214D01*
X9532595Y-17088167D01*
X9551643Y-17078643D01*
X9589738Y-17078643D01*
X9608786Y-17088167D01*
X9618310Y-17107214D01*
X9618310Y-17126262D01*
X9523071Y-17145310D01*
X9694500Y-17202452D02*
X9713548Y-17211976D01*
X9751643Y-17211976D01*
X9770690Y-17202452D01*
X9780214Y-17183405D01*
X9780214Y-17173881D01*
X9770690Y-17154833D01*
X9751643Y-17145310D01*
X9723071Y-17145310D01*
X9704024Y-17135786D01*
X9694500Y-17116738D01*
X9694500Y-17107214D01*
X9704024Y-17088167D01*
X9723071Y-17078643D01*
X9751643Y-17078643D01*
X9770690Y-17088167D01*
X9846881Y-17288167D02*
X9856405Y-17278643D01*
X9875452Y-17250071D01*
X9884976Y-17231024D01*
X9894500Y-17202452D01*
X9904024Y-17154833D01*
X9904024Y-17116738D01*
X9894500Y-17069119D01*
X9884976Y-17040548D01*
X9875452Y-17021500D01*
X9856405Y-16992929D01*
X9846881Y-16983405D01*
D15*
X4819500Y-17450500D02*
X4884500Y-17385500D01*
X4819500Y-17320500D01*
X4754500Y-17385500D01*
X4819500Y-17450500D01*
D11*
X5246881Y-17475976D02*
X5132595Y-17475976D01*
X5189738Y-17475976D02*
X5189738Y-17275976D01*
X5170690Y-17304548D01*
X5151643Y-17323595D01*
X5132595Y-17333119D01*
X5332595Y-17456929D02*
X5342119Y-17466452D01*
X5332595Y-17475976D01*
X5323071Y-17466452D01*
X5332595Y-17456929D01*
X5332595Y-17475976D01*
X5408786Y-17275976D02*
X5532595Y-17275976D01*
X5465929Y-17352167D01*
X5494500Y-17352167D01*
X5513548Y-17361690D01*
X5523071Y-17371214D01*
X5532595Y-17390262D01*
X5532595Y-17437881D01*
X5523071Y-17456929D01*
X5513548Y-17466452D01*
X5494500Y-17475976D01*
X5437357Y-17475976D01*
X5418310Y-17466452D01*
X5408786Y-17456929D01*
X5656405Y-17275976D02*
X5675452Y-17275976D01*
X5694500Y-17285500D01*
X5704024Y-17295024D01*
X5713548Y-17314071D01*
X5723071Y-17352167D01*
X5723071Y-17399786D01*
X5713548Y-17437881D01*
X5704024Y-17456929D01*
X5694500Y-17466452D01*
X5675452Y-17475976D01*
X5656405Y-17475976D01*
X5637357Y-17466452D01*
X5627833Y-17456929D01*
X5618309Y-17437881D01*
X5608786Y-17399786D01*
X5608786Y-17352167D01*
X5618309Y-17314071D01*
X5627833Y-17295024D01*
X5637357Y-17285500D01*
X5656405Y-17275976D01*
X5846881Y-17275976D02*
X5865928Y-17275976D01*
X5884976Y-17285500D01*
X5894500Y-17295024D01*
X5904024Y-17314071D01*
X5913548Y-17352167D01*
X5913548Y-17399786D01*
X5904024Y-17437881D01*
X5894500Y-17456929D01*
X5884976Y-17466452D01*
X5865928Y-17475976D01*
X5846881Y-17475976D01*
X5827833Y-17466452D01*
X5818309Y-17456929D01*
X5808786Y-17437881D01*
X5799262Y-17399786D01*
X5799262Y-17352167D01*
X5808786Y-17314071D01*
X5818309Y-17295024D01*
X5827833Y-17285500D01*
X5846881Y-17275976D01*
X5999262Y-17475976D02*
X5999262Y-17342643D01*
X5999262Y-17361690D02*
X6008786Y-17352167D01*
X6027833Y-17342643D01*
X6056405Y-17342643D01*
X6075452Y-17352167D01*
X6084976Y-17371214D01*
X6084976Y-17475976D01*
X6084976Y-17371214D02*
X6094500Y-17352167D01*
X6113548Y-17342643D01*
X6142119Y-17342643D01*
X6161167Y-17352167D01*
X6170690Y-17371214D01*
X6170690Y-17475976D01*
X6265928Y-17475976D02*
X6265928Y-17342643D01*
X6265928Y-17361690D02*
X6275452Y-17352167D01*
X6294500Y-17342643D01*
X6323071Y-17342643D01*
X6342119Y-17352167D01*
X6351643Y-17371214D01*
X6351643Y-17475976D01*
X6351643Y-17371214D02*
X6361167Y-17352167D01*
X6380214Y-17342643D01*
X6408786Y-17342643D01*
X6427833Y-17352167D01*
X6437357Y-17371214D01*
X6437357Y-17475976D01*
X6827833Y-17266452D02*
X6656405Y-17523595D01*
X7084976Y-17275976D02*
X7104024Y-17275976D01*
X7123071Y-17285500D01*
X7132595Y-17295024D01*
X7142119Y-17314071D01*
X7151643Y-17352167D01*
X7151643Y-17399786D01*
X7142119Y-17437881D01*
X7132595Y-17456929D01*
X7123071Y-17466452D01*
X7104024Y-17475976D01*
X7084976Y-17475976D01*
X7065928Y-17466452D01*
X7056405Y-17456929D01*
X7046881Y-17437881D01*
X7037357Y-17399786D01*
X7037357Y-17352167D01*
X7046881Y-17314071D01*
X7056405Y-17295024D01*
X7065928Y-17285500D01*
X7084976Y-17275976D01*
X7237357Y-17456929D02*
X7246881Y-17466452D01*
X7237357Y-17475976D01*
X7227833Y-17466452D01*
X7237357Y-17456929D01*
X7237357Y-17475976D01*
X7370690Y-17275976D02*
X7389738Y-17275976D01*
X7408786Y-17285500D01*
X7418309Y-17295024D01*
X7427833Y-17314071D01*
X7437357Y-17352167D01*
X7437357Y-17399786D01*
X7427833Y-17437881D01*
X7418309Y-17456929D01*
X7408786Y-17466452D01*
X7389738Y-17475976D01*
X7370690Y-17475976D01*
X7351643Y-17466452D01*
X7342119Y-17456929D01*
X7332595Y-17437881D01*
X7323071Y-17399786D01*
X7323071Y-17352167D01*
X7332595Y-17314071D01*
X7342119Y-17295024D01*
X7351643Y-17285500D01*
X7370690Y-17275976D01*
X7618309Y-17275976D02*
X7523071Y-17275976D01*
X7513548Y-17371214D01*
X7523071Y-17361690D01*
X7542119Y-17352167D01*
X7589738Y-17352167D01*
X7608786Y-17361690D01*
X7618309Y-17371214D01*
X7627833Y-17390262D01*
X7627833Y-17437881D01*
X7618309Y-17456929D01*
X7608786Y-17466452D01*
X7589738Y-17475976D01*
X7542119Y-17475976D01*
X7523071Y-17466452D01*
X7513548Y-17456929D01*
X7818309Y-17475976D02*
X7704024Y-17475976D01*
X7761167Y-17475976D02*
X7761167Y-17275976D01*
X7742119Y-17304548D01*
X7723071Y-17323595D01*
X7704024Y-17333119D01*
X7894500Y-17295024D02*
X7904024Y-17285500D01*
X7923071Y-17275976D01*
X7970690Y-17275976D01*
X7989738Y-17285500D01*
X7999262Y-17295024D01*
X8008786Y-17314071D01*
X8008786Y-17333119D01*
X7999262Y-17361690D01*
X7884976Y-17475976D01*
X8008786Y-17475976D01*
X8084976Y-17275976D02*
X8084976Y-17314071D01*
X8161167Y-17275976D02*
X8161167Y-17314071D01*
X8456405Y-17552167D02*
X8446881Y-17542643D01*
X8427833Y-17514071D01*
X8418310Y-17495024D01*
X8408786Y-17466452D01*
X8399262Y-17418833D01*
X8399262Y-17380738D01*
X8408786Y-17333119D01*
X8418310Y-17304548D01*
X8427833Y-17285500D01*
X8446881Y-17256929D01*
X8456405Y-17247405D01*
X8523071Y-17295024D02*
X8532595Y-17285500D01*
X8551643Y-17275976D01*
X8599262Y-17275976D01*
X8618310Y-17285500D01*
X8627833Y-17295024D01*
X8637357Y-17314071D01*
X8637357Y-17333119D01*
X8627833Y-17361690D01*
X8513548Y-17475976D01*
X8637357Y-17475976D01*
X8875452Y-17475976D02*
X8875452Y-17275976D01*
X8961167Y-17475976D02*
X8961167Y-17371214D01*
X8951643Y-17352167D01*
X8932595Y-17342643D01*
X8904024Y-17342643D01*
X8884976Y-17352167D01*
X8875452Y-17361690D01*
X9084976Y-17475976D02*
X9065929Y-17466452D01*
X9056405Y-17456929D01*
X9046881Y-17437881D01*
X9046881Y-17380738D01*
X9056405Y-17361690D01*
X9065929Y-17352167D01*
X9084976Y-17342643D01*
X9113548Y-17342643D01*
X9132595Y-17352167D01*
X9142119Y-17361690D01*
X9151643Y-17380738D01*
X9151643Y-17437881D01*
X9142119Y-17456929D01*
X9132595Y-17466452D01*
X9113548Y-17475976D01*
X9084976Y-17475976D01*
X9265929Y-17475976D02*
X9246881Y-17466452D01*
X9237357Y-17447405D01*
X9237357Y-17275976D01*
X9418310Y-17466452D02*
X9399262Y-17475976D01*
X9361167Y-17475976D01*
X9342119Y-17466452D01*
X9332595Y-17447405D01*
X9332595Y-17371214D01*
X9342119Y-17352167D01*
X9361167Y-17342643D01*
X9399262Y-17342643D01*
X9418310Y-17352167D01*
X9427833Y-17371214D01*
X9427833Y-17390262D01*
X9332595Y-17409310D01*
X9504024Y-17466452D02*
X9523071Y-17475976D01*
X9561167Y-17475976D01*
X9580214Y-17466452D01*
X9589738Y-17447405D01*
X9589738Y-17437881D01*
X9580214Y-17418833D01*
X9561167Y-17409310D01*
X9532595Y-17409310D01*
X9513548Y-17399786D01*
X9504024Y-17380738D01*
X9504024Y-17371214D01*
X9513548Y-17352167D01*
X9532595Y-17342643D01*
X9561167Y-17342643D01*
X9580214Y-17352167D01*
X9656405Y-17552167D02*
X9665929Y-17542643D01*
X9684976Y-17514071D01*
X9694500Y-17495024D01*
X9704024Y-17466452D01*
X9713548Y-17418833D01*
X9713548Y-17380738D01*
X9704024Y-17333119D01*
X9694500Y-17304548D01*
X9684976Y-17285500D01*
X9665929Y-17256929D01*
X9656405Y-17247405D01*
M02*
