M48
; DRILL file {KiCad (6.0.9)} date Thu Dec  8 20:01:19 2022
; FORMAT={-:-/ absolute / inch / decimal}
; #@! TF.CreationDate,2022-12-08T20:01:19+01:00
; #@! TF.GenerationSoftware,Kicad,Pcbnew,(6.0.9)
; #@! TF.FileFunction,Plated,1,4,PTH
FMAT,2
INCH
; #@! TA.AperFunction,Plated,PTH,ViaDrill
T1C0.0130
; #@! TA.AperFunction,Plated,PTH,ViaDrill
T2C0.0157
; #@! TA.AperFunction,Plated,PTH,ComponentDrill
T3C0.0354
; #@! TA.AperFunction,Plated,PTH,ComponentDrill
T4C0.0394
; #@! TA.AperFunction,Plated,PTH,ComponentDrill
T5C0.0512
%
G90
G05
T1
X2.525Y-4.325
X2.58Y-4.325
X3.11Y-4.29
X3.125Y-4.355
X3.155Y-4.295
X3.195Y-5.29
X3.31Y-4.995
X3.535Y-4.16
X3.535Y-4.205
X3.56Y-5.325
X3.575Y-5.275
X3.61Y-4.295
X3.6266Y-4.3366
X3.6303Y-4.5565
X3.68Y-4.58
X3.77Y-4.76
X3.83Y-3.835
X3.8888Y-3.8356
X3.89Y-4.49
X3.9Y-4.0
X3.955Y-4.0
X4.025Y-5.355
X4.2Y-5.835
X4.225Y-5.805
X4.2515Y-4.1
X4.2797Y-4.0735
X4.295Y-3.89
X4.295Y-3.99
X4.42Y-4.945
X4.425Y-4.85
X4.46Y-4.845
X4.775Y-4.89
X4.79Y-4.83
X4.835Y-3.815
X4.835Y-3.915
X4.835Y-4.12
X4.835Y-4.215
X4.8941Y-4.6941
X4.9015Y-4.4247
X4.905Y-4.065
T2
X2.5Y-5.02
X2.5Y-5.46
X2.5033Y-4.6767
X2.5561Y-4.6472
X2.5573Y-5.0195
X2.5714Y-5.4705
X2.68Y-4.36
X2.68Y-4.76
X2.68Y-4.8
X2.7Y-5.14
X2.7Y-5.18
X2.7Y-5.6
X2.7Y-5.64
X2.72Y-4.36
X2.86Y-4.76
X2.86Y-4.8
X2.86Y-5.14
X2.86Y-5.18
X2.88Y-4.36
X2.88Y-5.6
X2.88Y-5.64
X2.92Y-4.36
X2.92Y-4.84
X2.9398Y-4.6402
X2.94Y-4.6
X2.96Y-4.7
X2.96Y-4.74
X2.96Y-4.8685
X2.96Y-5.32
X2.98Y-4.18
X2.98Y-4.24
X2.98Y-4.98
X2.9885Y-4.9374
X3.0002Y-5.3202
X3.12Y-5.46
X3.18Y-5.5
X3.22Y-4.4
X3.26Y-5.3
X3.265Y-4.32
X3.275Y-5.6
X3.305Y-4.32
X3.325Y-5.6
X3.34Y-5.3
X3.38Y-4.4007
X3.445Y-4.32
X3.485Y-4.32
X3.5Y-5.6
X3.56Y-5.6
X3.64Y-4.98
X3.64Y-5.04
X3.64Y-5.34
X3.64Y-5.42
X3.8Y-6.1
X3.85Y-6.1
X3.9Y-5.725
X3.95Y-6.125
X3.99Y-3.875
X4.0Y-5.725
X4.0Y-6.125
X4.0193Y-4.725
X4.0193Y-4.8
X4.03Y-3.875
X4.1Y-5.05
X4.1Y-5.2
X4.15Y-6.125
X4.18Y-3.875
X4.2Y-6.125
X4.225Y-3.875
X4.225Y-5.05
X4.225Y-5.2
X4.25Y-5.45
X4.25Y-5.525
X4.2757Y-4.525
X4.4Y-4.525
X4.475Y-5.65
X4.5399Y-4.8197
X4.6Y-4.8
X4.625Y-5.675
X4.6287Y-5.2963
X4.95Y-5.65
X5.1Y-5.675
X5.1037Y-5.2963
X5.1115Y-4.4821
X5.425Y-5.7
X5.575Y-5.7
X5.675Y-5.5
T3
X2.1709Y-3.8799
X2.1709Y-3.9602
X2.1709Y-4.5299
X2.1709Y-4.6102
X2.1709Y-5.1799
X2.1709Y-5.2602
X2.1709Y-5.8197
X2.1709Y-5.9
X2.2709Y-3.8398
X2.2709Y-3.9201
X2.2709Y-4.4898
X2.2709Y-4.5701
X2.2709Y-5.1398
X2.2709Y-5.2201
X2.2709Y-5.7795
X2.2709Y-5.8598
X2.6795Y-5.8041
X2.6898Y-3.7959
X2.7197Y-5.9041
X2.7299Y-3.8959
X2.7598Y-5.8041
X2.7701Y-3.7959
X2.8Y-5.9041
X2.8102Y-3.8959
X3.3398Y-3.7959
X3.3398Y-5.8041
X3.3799Y-3.8959
X3.3799Y-5.9041
X3.4201Y-3.7959
X3.4201Y-5.8041
X3.4602Y-3.8959
X3.4602Y-5.9041
T4
X4.5204Y-3.7978
X4.5204Y-3.8978
X4.5204Y-3.9978
X4.5204Y-4.0978
X4.5204Y-4.1978
X4.5204Y-4.2978
X4.5204Y-4.3978
X4.5204Y-4.4978
X4.6204Y-3.7978
X4.6204Y-3.8978
X4.6204Y-3.9978
X4.6204Y-4.0978
X4.6204Y-4.1978
X4.6204Y-4.2978
X4.6204Y-4.3978
X4.6204Y-4.4978
X5.3204Y-3.7978
X5.3204Y-3.8978
X5.3204Y-3.9978
X5.3204Y-4.0978
X5.3204Y-4.1978
X5.3204Y-4.2978
X5.3204Y-4.3978
X5.3204Y-4.4978
X5.4204Y-3.7978
X5.4204Y-3.8978
X5.4204Y-3.9978
X5.4204Y-4.0978
X5.4204Y-4.1978
X5.4204Y-4.2978
X5.4204Y-4.3978
X5.4204Y-4.4978
T5
X5.6Y-3.65
X5.6Y-3.85
T0
M30
