%TF.GenerationSoftware,KiCad,Pcbnew,(6.0.9)*%
%TF.CreationDate,2022-12-08T20:01:15+01:00*%
%TF.ProjectId,floor-heating-controller-s2,666c6f6f-722d-4686-9561-74696e672d63,1*%
%TF.SameCoordinates,Original*%
%TF.FileFunction,Soldermask,Top*%
%TF.FilePolarity,Negative*%
%FSLAX46Y46*%
G04 Gerber Fmt 4.6, Leading zero omitted, Abs format (unit mm)*
G04 Created by KiCad (PCBNEW (6.0.9)) date 2022-12-08 20:01:15*
%MOMM*%
%LPD*%
G01*
G04 APERTURE LIST*
G04 Aperture macros list*
%AMRoundRect*
0 Rectangle with rounded corners*
0 $1 Rounding radius*
0 $2 $3 $4 $5 $6 $7 $8 $9 X,Y pos of 4 corners*
0 Add a 4 corners polygon primitive as box body*
4,1,4,$2,$3,$4,$5,$6,$7,$8,$9,$2,$3,0*
0 Add four circle primitives for the rounded corners*
1,1,$1+$1,$2,$3*
1,1,$1+$1,$4,$5*
1,1,$1+$1,$6,$7*
1,1,$1+$1,$8,$9*
0 Add four rect primitives between the rounded corners*
20,1,$1+$1,$2,$3,$4,$5,0*
20,1,$1+$1,$4,$5,$6,$7,0*
20,1,$1+$1,$6,$7,$8,$9,0*
20,1,$1+$1,$8,$9,$2,$3,0*%
%AMFreePoly0*
4,1,19,-0.850000,0.510000,-0.510000,0.850000,0.255000,0.850000,0.408997,0.829726,0.552500,0.770285,0.675729,0.675729,0.770285,0.552500,0.829726,0.408997,0.850000,0.255000,0.850000,-0.510000,0.510000,-0.850000,-0.255000,-0.850000,-0.408997,-0.829726,-0.552500,-0.770285,-0.675729,-0.675729,-0.770285,-0.552500,-0.829726,-0.408997,-0.850000,-0.255000,-0.850000,0.510000,-0.850000,0.510000,
$1*%
G04 Aperture macros list end*
%ADD10RoundRect,0.250000X-0.250000X-2.500000X0.250000X-2.500000X0.250000X2.500000X-0.250000X2.500000X0*%
%ADD11RoundRect,0.250000X-0.550000X-1.250000X0.550000X-1.250000X0.550000X1.250000X-0.550000X1.250000X0*%
%ADD12RoundRect,0.200000X0.200000X0.275000X-0.200000X0.275000X-0.200000X-0.275000X0.200000X-0.275000X0*%
%ADD13RoundRect,0.200000X-0.275000X0.200000X-0.275000X-0.200000X0.275000X-0.200000X0.275000X0.200000X0*%
%ADD14RoundRect,0.200000X-0.200000X-0.275000X0.200000X-0.275000X0.200000X0.275000X-0.200000X0.275000X0*%
%ADD15RoundRect,0.225000X0.225000X0.250000X-0.225000X0.250000X-0.225000X-0.250000X0.225000X-0.250000X0*%
%ADD16RoundRect,0.225000X-0.250000X0.225000X-0.250000X-0.225000X0.250000X-0.225000X0.250000X0.225000X0*%
%ADD17RoundRect,0.150000X-0.725000X-0.150000X0.725000X-0.150000X0.725000X0.150000X-0.725000X0.150000X0*%
%ADD18RoundRect,0.200000X0.275000X-0.200000X0.275000X0.200000X-0.275000X0.200000X-0.275000X-0.200000X0*%
%ADD19RoundRect,0.225000X-0.225000X-0.250000X0.225000X-0.250000X0.225000X0.250000X-0.225000X0.250000X0*%
%ADD20RoundRect,0.250000X0.312500X0.625000X-0.312500X0.625000X-0.312500X-0.625000X0.312500X-0.625000X0*%
%ADD21C,2.300000*%
%ADD22R,1.500000X1.500000*%
%ADD23C,1.500000*%
%ADD24RoundRect,0.225000X0.250000X-0.225000X0.250000X0.225000X-0.250000X0.225000X-0.250000X-0.225000X0*%
%ADD25FreePoly0,0.000000*%
%ADD26C,1.700000*%
%ADD27RoundRect,0.150000X-0.150000X0.587500X-0.150000X-0.587500X0.150000X-0.587500X0.150000X0.587500X0*%
%ADD28RoundRect,0.650000X-0.650000X0.650000X-0.650000X-0.650000X0.650000X-0.650000X0.650000X0.650000X0*%
%ADD29C,2.600000*%
%ADD30RoundRect,0.150000X0.725000X0.150000X-0.725000X0.150000X-0.725000X-0.150000X0.725000X-0.150000X0*%
%ADD31R,1.800000X2.500000*%
G04 APERTURE END LIST*
D10*
%TO.C,J2*%
X113570000Y-130040000D03*
X115570000Y-130040000D03*
X117570000Y-130040000D03*
D11*
X119970000Y-127790000D03*
X111170000Y-127790000D03*
%TD*%
D12*
%TO.C,R51*%
X94805000Y-107950000D03*
X93155000Y-107950000D03*
%TD*%
D13*
%TO.C,R64*%
X104570000Y-105220000D03*
X104570000Y-106870000D03*
%TD*%
D14*
%TO.C,R27*%
X80709000Y-123698000D03*
X82359000Y-123698000D03*
%TD*%
D15*
%TO.C,C18*%
X84735000Y-111760000D03*
X83185000Y-111760000D03*
%TD*%
D16*
%TO.C,C5*%
X98425000Y-149720000D03*
X98425000Y-151270000D03*
%TD*%
D12*
%TO.C,R25*%
X87439000Y-123698000D03*
X85789000Y-123698000D03*
%TD*%
D17*
%TO.C,U13*%
X83150000Y-104267000D03*
X83150000Y-105537000D03*
X83150000Y-106807000D03*
X83150000Y-108077000D03*
X88300000Y-108077000D03*
X88300000Y-106807000D03*
X88300000Y-105537000D03*
X88300000Y-104267000D03*
%TD*%
D10*
%TO.C,J9*%
X113570000Y-149344000D03*
X115570000Y-149344000D03*
X117570000Y-149344000D03*
D11*
X111170000Y-147094000D03*
X119970000Y-147094000D03*
%TD*%
D14*
%TO.C,R44*%
X85725000Y-119380000D03*
X87375000Y-119380000D03*
%TD*%
D16*
%TO.C,C7*%
X100965000Y-134480000D03*
X100965000Y-136030000D03*
%TD*%
D13*
%TO.C,R61*%
X94615000Y-104585000D03*
X94615000Y-106235000D03*
%TD*%
D18*
%TO.C,R30*%
X91694000Y-131508000D03*
X91694000Y-129858000D03*
%TD*%
D12*
%TO.C,R35*%
X78295000Y-118110000D03*
X76645000Y-118110000D03*
%TD*%
D19*
%TO.C,C25*%
X119907500Y-104555000D03*
X121457500Y-104555000D03*
%TD*%
D14*
%TO.C,R56*%
X105220000Y-110490000D03*
X106870000Y-110490000D03*
%TD*%
D19*
%TO.C,C12*%
X69710000Y-130810000D03*
X71260000Y-130810000D03*
%TD*%
D12*
%TO.C,R20*%
X78549000Y-126873000D03*
X76899000Y-126873000D03*
%TD*%
D20*
%TO.C,R22*%
X65597500Y-128905000D03*
X62672500Y-128905000D03*
%TD*%
D14*
%TO.C,R10*%
X103315000Y-136525000D03*
X104965000Y-136525000D03*
%TD*%
D19*
%TO.C,C17*%
X119907500Y-102015000D03*
X121457500Y-102015000D03*
%TD*%
%TO.C,C8*%
X119907500Y-96935000D03*
X121457500Y-96935000D03*
%TD*%
D16*
%TO.C,C29*%
X80645000Y-104127000D03*
X80645000Y-105677000D03*
%TD*%
D12*
%TO.C,R50*%
X89090000Y-111760000D03*
X87440000Y-111760000D03*
%TD*%
D20*
%TO.C,R54*%
X99252500Y-96520000D03*
X96327500Y-96520000D03*
%TD*%
D21*
%TO.C,J14*%
X52840000Y-121570000D03*
X52840000Y-109570000D03*
D22*
X55140000Y-117100000D03*
D23*
X57680000Y-116080000D03*
X55140000Y-115060000D03*
X57680000Y-114040000D03*
%TD*%
D20*
%TO.C,R37*%
X65597500Y-119525000D03*
X62672500Y-119525000D03*
%TD*%
D17*
%TO.C,U9*%
X81245000Y-113665000D03*
X81245000Y-114935000D03*
X81245000Y-116205000D03*
X81245000Y-117475000D03*
X86395000Y-117475000D03*
X86395000Y-116205000D03*
X86395000Y-114935000D03*
X86395000Y-113665000D03*
%TD*%
D13*
%TO.C,R46*%
X78740000Y-114110000D03*
X78740000Y-115760000D03*
%TD*%
D24*
%TO.C,C23*%
X83820000Y-120790000D03*
X83820000Y-119240000D03*
%TD*%
D20*
%TO.C,R38*%
X66232500Y-108585000D03*
X63307500Y-108585000D03*
%TD*%
D25*
%TO.C,U2*%
X114817500Y-96465000D03*
D26*
X114817500Y-99005000D03*
X114817500Y-101545000D03*
X114817500Y-104085000D03*
X114817500Y-106625000D03*
X114817500Y-109165000D03*
X114817500Y-111705000D03*
X114817500Y-114245000D03*
X137677500Y-114245000D03*
X137677500Y-111705000D03*
X137677500Y-109165000D03*
X137677500Y-106625000D03*
X137677500Y-104085000D03*
X137677500Y-101545000D03*
X137677500Y-99005000D03*
X137677500Y-96465000D03*
X117357500Y-96465000D03*
X117357500Y-99005000D03*
X117357500Y-101545000D03*
X117357500Y-104085000D03*
X117357500Y-106625000D03*
X117357500Y-109165000D03*
X117357500Y-111705000D03*
X117357500Y-114245000D03*
X135137500Y-114245000D03*
X135137500Y-111705000D03*
X135137500Y-109165000D03*
X135137500Y-106625000D03*
X135137500Y-104085000D03*
X135137500Y-101545000D03*
X135137500Y-99005000D03*
X135137500Y-96465000D03*
%TD*%
D14*
%TO.C,R18*%
X93790000Y-142875000D03*
X95440000Y-142875000D03*
%TD*%
%TO.C,R7*%
X105220000Y-138430000D03*
X106870000Y-138430000D03*
%TD*%
D18*
%TO.C,R17*%
X102870000Y-145605000D03*
X102870000Y-143955000D03*
%TD*%
D17*
%TO.C,U7*%
X68380000Y-136525000D03*
X68380000Y-137795000D03*
X68380000Y-139065000D03*
X68380000Y-140335000D03*
X73530000Y-140335000D03*
X73530000Y-139065000D03*
X73530000Y-137795000D03*
X73530000Y-136525000D03*
%TD*%
D19*
%TO.C,C33*%
X119907500Y-107095000D03*
X121457500Y-107095000D03*
%TD*%
D21*
%TO.C,J10*%
X92360000Y-152265000D03*
X80360000Y-152265000D03*
D22*
X87890000Y-149965000D03*
D23*
X86870000Y-147425000D03*
X85850000Y-149965000D03*
X84830000Y-147425000D03*
%TD*%
D14*
%TO.C,R36*%
X89345000Y-117475000D03*
X90995000Y-117475000D03*
%TD*%
D13*
%TO.C,R62*%
X92710000Y-104585000D03*
X92710000Y-106235000D03*
%TD*%
D18*
%TO.C,R15*%
X93345000Y-141160000D03*
X93345000Y-139510000D03*
%TD*%
D19*
%TO.C,C20*%
X70345000Y-110490000D03*
X71895000Y-110490000D03*
%TD*%
D20*
%TO.C,R53*%
X80837500Y-108077000D03*
X77912500Y-108077000D03*
%TD*%
D19*
%TO.C,C27*%
X84950000Y-109728000D03*
X86500000Y-109728000D03*
%TD*%
D18*
%TO.C,R13*%
X107315000Y-143700000D03*
X107315000Y-142050000D03*
%TD*%
D10*
%TO.C,J3*%
X125635000Y-130040000D03*
X127635000Y-130040000D03*
X129635000Y-130040000D03*
D11*
X123235000Y-127790000D03*
X132035000Y-127790000D03*
%TD*%
D12*
%TO.C,R24*%
X78549000Y-124968000D03*
X76899000Y-124968000D03*
%TD*%
D18*
%TO.C,R32*%
X77089000Y-130238000D03*
X77089000Y-128588000D03*
%TD*%
D12*
%TO.C,R8*%
X95440000Y-135890000D03*
X93790000Y-135890000D03*
%TD*%
D18*
%TO.C,R29*%
X89789000Y-131508000D03*
X89789000Y-129858000D03*
%TD*%
D12*
%TO.C,R9*%
X104965000Y-134620000D03*
X103315000Y-134620000D03*
%TD*%
D18*
%TO.C,R14*%
X105410000Y-143700000D03*
X105410000Y-142050000D03*
%TD*%
D14*
%TO.C,R34*%
X79439000Y-133223000D03*
X81089000Y-133223000D03*
%TD*%
%TO.C,R26*%
X85789000Y-125603000D03*
X87439000Y-125603000D03*
%TD*%
%TO.C,R41*%
X80455000Y-121285000D03*
X82105000Y-121285000D03*
%TD*%
D12*
%TO.C,R58*%
X97980000Y-110490000D03*
X96330000Y-110490000D03*
%TD*%
%TO.C,R43*%
X87375000Y-121285000D03*
X85725000Y-121285000D03*
%TD*%
D15*
%TO.C,C16*%
X111932500Y-98840000D03*
X110382500Y-98840000D03*
%TD*%
D14*
%TO.C,R65*%
X94425000Y-102870000D03*
X96075000Y-102870000D03*
%TD*%
D19*
%TO.C,C10*%
X83299000Y-133223000D03*
X84849000Y-133223000D03*
%TD*%
D20*
%TO.C,R21*%
X66067500Y-140335000D03*
X63142500Y-140335000D03*
%TD*%
D16*
%TO.C,C6*%
X81585000Y-136385000D03*
X81585000Y-137935000D03*
%TD*%
D12*
%TO.C,R59*%
X103060000Y-112395000D03*
X101410000Y-112395000D03*
%TD*%
D16*
%TO.C,C30*%
X99060000Y-92570000D03*
X99060000Y-94120000D03*
%TD*%
%TO.C,C13*%
X65875000Y-136385000D03*
X65875000Y-137935000D03*
%TD*%
D12*
%TO.C,R28*%
X82359000Y-125603000D03*
X80709000Y-125603000D03*
%TD*%
D18*
%TO.C,R16*%
X95250000Y-141160000D03*
X95250000Y-139510000D03*
%TD*%
D10*
%TO.C,J5*%
X113570000Y-139565000D03*
X115570000Y-139565000D03*
X117570000Y-139565000D03*
D11*
X119970000Y-137315000D03*
X111170000Y-137315000D03*
%TD*%
D12*
%TO.C,R33*%
X88709000Y-133223000D03*
X87059000Y-133223000D03*
%TD*%
%TO.C,R4*%
X95440000Y-137795000D03*
X93790000Y-137795000D03*
%TD*%
%TO.C,R12*%
X99250000Y-136525000D03*
X97600000Y-136525000D03*
%TD*%
%TO.C,R66*%
X106235000Y-102870000D03*
X104585000Y-102870000D03*
%TD*%
D21*
%TO.C,J17*%
X80360000Y-94115000D03*
X92360000Y-94115000D03*
D22*
X84830000Y-96415000D03*
D23*
X85850000Y-98955000D03*
X86870000Y-96415000D03*
X87890000Y-98955000D03*
%TD*%
D12*
%TO.C,R39*%
X78295000Y-120015000D03*
X76645000Y-120015000D03*
%TD*%
D15*
%TO.C,C24*%
X111932500Y-101380000D03*
X110382500Y-101380000D03*
%TD*%
D21*
%TO.C,J12*%
X52840000Y-142330000D03*
X52840000Y-154330000D03*
D22*
X55140000Y-149860000D03*
D23*
X57680000Y-148840000D03*
X55140000Y-147820000D03*
X57680000Y-146800000D03*
%TD*%
D19*
%TO.C,C3*%
X102730000Y-155575000D03*
X104280000Y-155575000D03*
%TD*%
%TO.C,C19*%
X69710000Y-121285000D03*
X71260000Y-121285000D03*
%TD*%
D16*
%TO.C,C14*%
X65405000Y-124955000D03*
X65405000Y-126505000D03*
%TD*%
D13*
%TO.C,R63*%
X106680000Y-105220000D03*
X106680000Y-106870000D03*
%TD*%
D15*
%TO.C,C26*%
X100470000Y-102870000D03*
X98920000Y-102870000D03*
%TD*%
D10*
%TO.C,J1*%
X106950000Y-119880000D03*
X108950000Y-119880000D03*
D11*
X104550000Y-117630000D03*
X111350000Y-117630000D03*
%TD*%
D17*
%TO.C,U5*%
X84230000Y-136525000D03*
X84230000Y-137795000D03*
X84230000Y-139065000D03*
X84230000Y-140335000D03*
X89380000Y-140335000D03*
X89380000Y-139065000D03*
X89380000Y-137795000D03*
X89380000Y-136525000D03*
%TD*%
D15*
%TO.C,C32*%
X111932500Y-103920000D03*
X110382500Y-103920000D03*
%TD*%
D14*
%TO.C,R57*%
X96330000Y-112395000D03*
X97980000Y-112395000D03*
%TD*%
D10*
%TO.C,J6*%
X125635000Y-139565000D03*
X127635000Y-139565000D03*
X129635000Y-139565000D03*
D11*
X123235000Y-137315000D03*
X132035000Y-137315000D03*
%TD*%
D14*
%TO.C,R1*%
X131255000Y-114300000D03*
X132905000Y-114300000D03*
%TD*%
D16*
%TO.C,C22*%
X66040000Y-104635000D03*
X66040000Y-106185000D03*
%TD*%
D17*
%TO.C,U8*%
X67910000Y-125095000D03*
X67910000Y-126365000D03*
X67910000Y-127635000D03*
X67910000Y-128905000D03*
X73060000Y-128905000D03*
X73060000Y-127635000D03*
X73060000Y-126365000D03*
X73060000Y-125095000D03*
%TD*%
D13*
%TO.C,R47*%
X88900000Y-114110000D03*
X88900000Y-115760000D03*
%TD*%
D24*
%TO.C,C31*%
X99695000Y-112535000D03*
X99695000Y-110985000D03*
%TD*%
D19*
%TO.C,C2*%
X99555000Y-144145000D03*
X101105000Y-144145000D03*
%TD*%
D20*
%TO.C,R5*%
X98617500Y-153670000D03*
X95692500Y-153670000D03*
%TD*%
D14*
%TO.C,R40*%
X89345000Y-119380000D03*
X90995000Y-119380000D03*
%TD*%
%TO.C,R23*%
X89599000Y-126238000D03*
X91249000Y-126238000D03*
%TD*%
D21*
%TO.C,J15*%
X52840000Y-105060000D03*
X52840000Y-93060000D03*
D22*
X55140000Y-100590000D03*
D23*
X57680000Y-99570000D03*
X55140000Y-98550000D03*
X57680000Y-97530000D03*
%TD*%
D19*
%TO.C,C28*%
X103365000Y-98425000D03*
X104915000Y-98425000D03*
%TD*%
%TO.C,C4*%
X85890000Y-142240000D03*
X87440000Y-142240000D03*
%TD*%
D10*
%TO.C,J4*%
X137700000Y-139565000D03*
X139700000Y-139565000D03*
X141700000Y-139565000D03*
D11*
X144100000Y-137315000D03*
X135300000Y-137315000D03*
%TD*%
D14*
%TO.C,R19*%
X89599000Y-128143000D03*
X91249000Y-128143000D03*
%TD*%
D21*
%TO.C,J13*%
X52840000Y-126080000D03*
X52840000Y-138080000D03*
D22*
X55140000Y-133610000D03*
D23*
X57680000Y-132590000D03*
X55140000Y-131570000D03*
X57680000Y-130550000D03*
%TD*%
D12*
%TO.C,R42*%
X82105000Y-119380000D03*
X80455000Y-119380000D03*
%TD*%
D10*
%TO.C,J8*%
X125540000Y-149352000D03*
X127540000Y-149352000D03*
X129540000Y-149352000D03*
D11*
X123140000Y-147102000D03*
X131940000Y-147102000D03*
%TD*%
D27*
%TO.C,U1*%
X98740000Y-119712500D03*
X96840000Y-119712500D03*
X97790000Y-121587500D03*
%TD*%
D17*
%TO.C,U12*%
X97120000Y-104775000D03*
X97120000Y-106045000D03*
X97120000Y-107315000D03*
X97120000Y-108585000D03*
X102270000Y-108585000D03*
X102270000Y-107315000D03*
X102270000Y-106045000D03*
X102270000Y-104775000D03*
%TD*%
D16*
%TO.C,C15*%
X84074000Y-124193000D03*
X84074000Y-125743000D03*
%TD*%
D10*
%TO.C,J7*%
X137700000Y-149344000D03*
X139700000Y-149344000D03*
X141700000Y-149344000D03*
D11*
X144100000Y-147094000D03*
X135300000Y-147094000D03*
%TD*%
D17*
%TO.C,U10*%
X67910000Y-115715000D03*
X67910000Y-116985000D03*
X67910000Y-118255000D03*
X67910000Y-119525000D03*
X73060000Y-119525000D03*
X73060000Y-118255000D03*
X73060000Y-116985000D03*
X73060000Y-115715000D03*
%TD*%
D14*
%TO.C,R3*%
X105220000Y-140335000D03*
X106870000Y-140335000D03*
%TD*%
D28*
%TO.C,J18*%
X142240000Y-92710000D03*
D29*
X142240000Y-97790000D03*
%TD*%
D21*
%TO.C,J11*%
X63590000Y-152265000D03*
X75590000Y-152265000D03*
D22*
X71120000Y-149965000D03*
D23*
X70100000Y-147425000D03*
X69080000Y-149965000D03*
X68060000Y-147425000D03*
%TD*%
D16*
%TO.C,C1*%
X100965000Y-119875000D03*
X100965000Y-121425000D03*
%TD*%
D14*
%TO.C,R11*%
X97600000Y-134620000D03*
X99250000Y-134620000D03*
%TD*%
D30*
%TO.C,U6*%
X86649000Y-131318000D03*
X86649000Y-130048000D03*
X86649000Y-128778000D03*
X86649000Y-127508000D03*
X81499000Y-127508000D03*
X81499000Y-128778000D03*
X81499000Y-130048000D03*
X81499000Y-131318000D03*
%TD*%
D12*
%TO.C,R55*%
X94805000Y-109855000D03*
X93155000Y-109855000D03*
%TD*%
D16*
%TO.C,C21*%
X65405000Y-115575000D03*
X65405000Y-117125000D03*
%TD*%
D12*
%TO.C,R2*%
X100520000Y-117475000D03*
X98870000Y-117475000D03*
%TD*%
D14*
%TO.C,R52*%
X105220000Y-108585000D03*
X106870000Y-108585000D03*
%TD*%
D13*
%TO.C,R45*%
X76835000Y-114110000D03*
X76835000Y-115760000D03*
%TD*%
D30*
%TO.C,U3*%
X102905000Y-142240000D03*
X102905000Y-140970000D03*
X102905000Y-139700000D03*
X102905000Y-138430000D03*
X97755000Y-138430000D03*
X97755000Y-139700000D03*
X97755000Y-140970000D03*
X97755000Y-142240000D03*
%TD*%
D14*
%TO.C,R60*%
X101410000Y-110490000D03*
X103060000Y-110490000D03*
%TD*%
D17*
%TO.C,U11*%
X68545000Y-104775000D03*
X68545000Y-106045000D03*
X68545000Y-107315000D03*
X68545000Y-108585000D03*
X73695000Y-108585000D03*
X73695000Y-107315000D03*
X73695000Y-106045000D03*
X73695000Y-104775000D03*
%TD*%
D20*
%TO.C,R6*%
X81777500Y-140335000D03*
X78852500Y-140335000D03*
%TD*%
D31*
%TO.C,D1*%
X105410000Y-129730000D03*
X105410000Y-125730000D03*
%TD*%
D19*
%TO.C,C9*%
X119907500Y-99475000D03*
X121457500Y-99475000D03*
%TD*%
D17*
%TO.C,U4*%
X100930000Y-149860000D03*
X100930000Y-151130000D03*
X100930000Y-152400000D03*
X100930000Y-153670000D03*
X106080000Y-153670000D03*
X106080000Y-152400000D03*
X106080000Y-151130000D03*
X106080000Y-149860000D03*
%TD*%
D13*
%TO.C,R48*%
X90805000Y-114110000D03*
X90805000Y-115760000D03*
%TD*%
D21*
%TO.C,J16*%
X75850000Y-94115000D03*
X63850000Y-94115000D03*
D22*
X68320000Y-96415000D03*
D23*
X69340000Y-98955000D03*
X70360000Y-96415000D03*
X71380000Y-98955000D03*
%TD*%
D19*
%TO.C,C11*%
X70180000Y-142240000D03*
X71730000Y-142240000D03*
%TD*%
D18*
%TO.C,R31*%
X78994000Y-130238000D03*
X78994000Y-128588000D03*
%TD*%
D17*
%TO.C,U14*%
X101565000Y-92710000D03*
X101565000Y-93980000D03*
X101565000Y-95250000D03*
X101565000Y-96520000D03*
X106715000Y-96520000D03*
X106715000Y-95250000D03*
X106715000Y-93980000D03*
X106715000Y-92710000D03*
%TD*%
D14*
%TO.C,R49*%
X78550000Y-111760000D03*
X80200000Y-111760000D03*
%TD*%
M02*
